<?xml version="1.0" encoding="UTF-8"?>
<svg id="Lag_1" data-name="Lag 1" xmlns="http://www.w3.org/2000/svg" viewBox="0 0 483.9 400.1">
  <defs>
    <style>
      .cls-1, .cls-2 {
        fill: #f1ecda;
      }

      .cls-3 {
        stroke-width: .75px;
      }

      .cls-3, .cls-2, .cls-4, .cls-5, .cls-6, .cls-7, .cls-8 {
        stroke-miterlimit: 10;
      }

      .cls-3, .cls-4, .cls-5, .cls-6, .cls-7, .cls-8 {
        stroke: #f0ecda;
      }

      .cls-3, .cls-5, .cls-6, .cls-7, .cls-8 {
        fill: none;
      }

      .cls-2 {
        stroke: #f1ecda;
      }

      .cls-4 {
        fill: #f0ecda;
      }

      .cls-5 {
        stroke-width: 2px;
      }

      .cls-6 {
        stroke-width: 4px;
      }

      .cls-8 {
        stroke-width: .5px;
      }
    </style>
  </defs>
  <g>
    <path class="cls-1" d="M144.4,217s3-16.8,24.2-19.7c0,0,.5,16.8-12.1,26.6,0,0,6.2-11.9,6.7-18.8,0,0-2.5-3.9-18.8,11.9Z"/>
    <path class="cls-2" d="M166.1,254.5h-9.6s2.2,11.8,9.6,0Z"/>
    <path class="cls-2" d="M191,326.3s13.1-32.1-10.4-14.9c0,0-14.9-5.5-16.2,9.7-1.4,15.2,15.1,16.2,15.1,16.2l-4.8-11.1s-2.4-5.1,1-4.5c3.5,.7,3.7,9.6,3.7,9.6,0,0,.1,3.5,2.9,5.9,2.8,2.5,8.7-10.9,8.7-10.9Z"/>
    <path class="cls-4" d="M139.7,218.8l6.6-11.1s-26.2-25.2-71.1,7.2c0,0-28.2,20.3-34.7,33.1-6.6,12.8-22.6,20.3-22.6,20.3,0,0,22.6-.7,61-33.4-.2,0,28.3-34.1,60.8-16.1Z"/>
    <path class="cls-2" d="M139.7,218.8s8.6,27.6-16.3,80.5c0,0,14.9-54.5,6.7-84.4,0,0,5.5,1.2,7,20.7,0,0,1.5-5.7,2.6-16.8Z"/>
    <path class="cls-2" d="M117.6,214.9s-3.2,2.6,7.6,26.8c0,0,5.3,20.6-4,48,0,0,4-33.6,.7-41.9-3.2-8.3-4.9-7-9-19.8,0,0-1.1-9.2-1.4-13.1s6.1,0,6.1,0Z"/>
    <path class="cls-2" d="M101.4,217.9s-3.4-5.7,16.2,32.1c0,0,3.6,22.7,0,56.3l-4.3,5.4s3.2-29.6-1.8-44.7c0,0-3.2-27.1-5.4-28.1-2.2-1.1-10-18.2-10-18.2l5.3-2.8Z"/>
    <path class="cls-1" d="M91.1,223.9s10,11.8,10.7,33.2c.7,21.4-1.8,24,0,42.2s4,22.7,4,22.7v4.6s-10.1-11.2-11.5-20.2,1.4-28.4,.4-34.1c0,0,3.2-16.4-1.4-27.6-4.7-11.2-6.9-17-6.9-17l4.7-3.8Z"/>
    <path class="cls-1" d="M78.7,234.9s14.7,23.1,1.8,54.8c0,0-1.1,13.3,3.2,18.4s6.5,7.8,9.4,13.8,6.5,8.7,4.3,15.7l-3.2,5.1s-.3-13.7-15.5-27.8c0,0-11.2-10.8-7.6-30.7,0,0-7.1-24.1-7.7-37.3l7.3-4.5s-1.1,9.4,3.6,18.8c0,0,4.3,2.1,4.7-5.3s-4.4-17.6-4.4-17.6l4.1-3.4Z"/>
    <path class="cls-2" d="M54.4,253.1s6.4,18,6.1,29.3c-.3,11.4,3,26.2,3,26.2,0,0,6.5,4.5,4.9,13.3,0,0,2.2,7.7,10.1,15.7s6,21,6,21l-3.7,5s1.5-13.9-14-28.7c0,0-11.2-8.5-12.4-30s-4-43.7-6.7-47.7c-2.7-4.2,6.7-4.1,6.7-4.1Z"/>
    <path class="cls-2" d="M39.9,261.2s7.6,13.9,4.5,55.9c0,0-2.9,20.5,19.1,34.4,0,0,3.7-2.5,5.3,15.5,0,0,2.5,4.1,4.4,4.7l-2.8,5.1s-5.8-4.4-6.8-7.6c-1.1-3.2,1.1-6-6.9-12.6-8-6.6-30.1-7.3-22.2-92l5.4-3.4Z"/>
    <path class="cls-2" d="M25.5,266.8s-10.4,72.9,7,82.1c0,0,2.3,1.1,1.7,9.7,0,0,29,11,29.2,32.5h-5.2s2.8-14.8-15.3-20.8c0,0,11.5,10,11.2,20.8h-5.4s1.7-8.6-26.3-32.5,0-91.8,0-91.8h3.1Z"/>
    <path class="cls-2" d="M14.7,270.3h-4.7l-3,4.9v16.2s4.5-19.2,7.7-21.1Z"/>
    <path class="cls-2" d="M7,347.7s2.8,2.5,3.8,7.6,3.8,13.3,17.1,21.6c0,0,10.7,3.2,14.2,14.3h-6.9s-5.9-7.2-28.2-25.8v-17.7Z"/>
    <path class="cls-2" d="M29.8,391.2h-9.5s-3,.1-13.4-6.2v-6.3c.1-.1,12.2,8.6,22.9,12.5Z"/>
    <path class="cls-2" d="M157.4,228.2l-1.6-1.8s-10.5,1.9-10.3,13.9c.2,12.1,7.4,14.7-18.8,60.8l1.4,2.3s18.6-23,20.1-42.2c1.4-19.2,13.2-26.3,13.2-26.3l-1.4-2.9s-7.8,2.5-8.9,6.9c-1.1,4.4-1.1-4-1.1-4,0,0,1.6-6.6,7.4-6.7Z"/>
    <path class="cls-1" d="M167.3,246.9l-1.2-2.7s-16.2-4.6-15.5,12.9c.7,17.5-2.4,25.8-2.4,25.8,0,0-15.4,22.1-16,22.6s1.4,2.8,1.4,2.8c0,0,13-12.4,18.4-26.7s4.5-11.8,9.2-13.3,9.4-9.7,9.4-9.7l-1.3-2.6s-4.4,10-11.6,9-2.2-14.6-2.2-14.6c0,0,4.9-6.2,11.8-3.5Z"/>
    <path class="cls-1" d="M173,268.3l-1.2-2.6s-1.5,4-10.4,6.5c0,0-6.7,3.6-7.5,14.1-.9,10.6-16.9,23.8-16.9,23.8l3,1.5s18.5-16.4,16.7-26.6c-1.8-10.1,9.6-11.3,9.6-11.3l6.7-5.4Z"/>
    <path class="cls-1" d="M179.5,277.2l-1.9-2s-14.1-2.6-17.5,13.5-16.1,25.2-16.1,25.2l2.2,1.8s15-14.6,18.1-23.8c3-9.2,19.3-4.8,19.3-4.8v-3s-9.7-3.2-13.8-1.1,2.1-4.6,2.1-4.6l7.6-1.2Z"/>
    <path class="cls-1" d="M189,293.8l-2.8-3.4s-20.4-3.3-24.9,13c0,0-5.4,10.5-10.9,13.8l3.2,1.8s12.5-12,13.4-18.6,22-6.6,22-6.6Z"/>
    <path class="cls-1" d="M193.6,303.4l-1.9-2.8s-6.9-.3-10.8,2.8c0,0-1.6,2.1-11.8,0,0,0-5.1-1.5-10.4,18.5h2.6s4.1-13.3,6.6-13.6c2.5-.3,6-2.7,13.2-2.1,7.2,.7,12.5-2.8,12.5-2.8Z"/>
  </g>
  <line class="cls-5" x1="7" y1="391.2" x2="106.8" y2="391.2"/>
  <g>
    <path class="cls-4" d="M108.4,14H5.6c-.5,0-.9-.4-.9-.9V3.3c0-.5,.4-.9,.9-.9H108.3c.5,0,.9,.4,.9,.9V13c.1,.6-.3,1-.8,1Z"/>
    <path class="cls-4" d="M108.2,138.2H5.5c-.5,0-.9-.4-.9-.9v-8.3c0-1.3,1.1-2.4,2.4-2.4H108.3c.5,0,.9,.4,.9,.9v9.7c-.1,.6-.5,1-1,1Z"/>
    <path class="cls-7" d="M109.3,12.6S13,37.4,4.7,128c0,0,7.1-79,104.6-115.4Z"/>
    <path class="cls-7" d="M4.7,128S13,57.3,109.3,12.6c0,0-82.6,41.1-104.6,115.4Z"/>
    <path class="cls-7" d="M4.7,128S28,64.7,109.3,12.6c0,0-65.1,47.9-104.6,115.4Z"/>
    <path class="cls-7" d="M109.3,13.2S86.8,118.3,4.7,127.3c0,0,71.5-7.7,104.6-114.1Z"/>
    <path class="cls-7" d="M4.7,127.3S50.1,64.9,109.3,13.2L4.7,127.3Z"/>
    <path class="cls-7" d="M4.7,127.3S44,96.9,109.3,13.2c0,0-34.6,61-104.6,114.1Z"/>
    <path class="cls-7" d="M4.7,127.3S71.3,89.2,109.3,13.2c0,0-21.8,69.1-104.6,114.1Z"/>
    <path class="cls-7" d="M4.7,127.3S75.2,108.1,109.3,13.2"/>
  </g>
  <g>
    <path class="cls-4" d="M233.4,41.3h-77.6c-.8,0-1.4-.6-1.4-1.4v-8.7c0-.8,.6-1.4,1.4-1.4h77.6c.8,0,1.4,.6,1.4,1.4v8.7c.1,.8-.6,1.4-1.4,1.4Z"/>
    <rect class="cls-4" x="154.36" y="40.72" width="3.8" height="126.3"/>
    <path class="cls-4" d="M233.4,167h-75.2c-.8,0-1.5-.7-1.5-1.5v-8.6c0-.8,.7-1.5,1.5-1.5h75.2c.8,0,1.5,.7,1.5,1.5v8.6c0,.8-.7,1.5-1.5,1.5Z"/>
    <path class="cls-3" d="M234.8,92.6s-38.4-24.4-78.2,0c0,0,34.2-19.2,78.2,0Z"/>
    <path class="cls-3" d="M156.7,92s40.2-15.3,78.2,1.3c0,0-32.9-11-78.2-1.3Z"/>
    <path class="cls-3" d="M156.7,92.6s38.4,24.4,78.2,0c0,0-34.2,19.3-78.2,0Z"/>
    <path class="cls-3" d="M156.7,92s41.6-4.1,78.2,1.3l-78.2-1.3Z"/>
    <path class="cls-3" d="M156.7,92s33.6,16.1,78.2,1.3c0,0-34.7,9.6-78.2-1.3Z"/>
    <path class="cls-3" d="M156.7,92s47,6.3,78.2,1.3"/>
  </g>
  <g>
    <path class="cls-4" d="M371.6,392.5c12.8-45.7,32.1-92.4,47.8-137.5,.1-.4,.3-.5,.7-.3,.4,.1,1.7,.6,2.1,.8s.5,.4,.4,.7c-15.6,45-33.9,90.9-47.5,136.4-.1,.4-.3,.4-.7,.4h-2.3c-.5,.1-.6-.1-.5-.5Z"/>
    <path class="cls-4" d="M420.3,256.1c15.8,45.5,34.5,90,47.5,136.5,.2,.6,.4,.6,1.1,.6,3.4-.2,7.1,0,10.6-.3,.6,0,.8-.5,.6-1.1-14.5-47.4-32.4-93.3-48.7-140-.2-.6-.5-.7-1.1-.5-3.1,1.1-6.3,2.4-9.3,3.7-.7,.2-.9,.5-.7,1.1Z"/>
    <path class="cls-4" d="M419.8,253.8c.2-.6,.6-1.8,.8-2.5,.1-.4,.4-.5,.8-.5h7.8c1.4,0-.1,0,.8,0,.3,0,.8,.2,1.1,.5,.2,.3,.1,.5,.2,.8-2.9,1.4-5.9,2.7-8.8,3.9-.3,.1-.4,.1-.7-.1-.3-.2-1-.6-1.4-.9-.5-.4-.8-.6-.6-1.2Z"/>
    <path class="cls-8" d="M395.1,333.9h53.3s-23.8-4.3-53.3,0Z"/>
    <path class="cls-8" d="M395.1,333.9s23-8.1,53.3,0c0,0-28.3-11.4-53.3,0Z"/>
    <path class="cls-8" d="M395.1,333.9s22.1-15.3,53.3,0c0,0-26.7-19.1-53.3,0Z"/>
    <path class="cls-8" d="M448.3,333.3s-21.8,15.7-53.3,1c0,.1,27,18.7,53.3-1Z"/>
    <path class="cls-8" d="M395.1,333.9s22.5,3.7,53.3,0c0,0-27.8,7.1-53.3,0Z"/>
    <path class="cls-8" d="M395.1,333.9s24.2,10.8,53.3,0"/>
  </g>
  <g>
    <path class="cls-4" d="M270.6,392.1V251.8c0-.5,.4-.8,.8-.8h10.6c.5,0,.8,.4,.8,.8v140.3c0,.5-.4,.8-.8,.8h-10.6c-.5,0-.8-.4-.8-.8Z"/>
    <circle class="cls-3" cx="350.6" cy="392.5" r=".4"/>
    <path class="cls-7" d="M282.4,307.8s65.3,10.9,68.2,84.3c0,.1-1.5-63.3-68.2-84.3Z"/>
    <path class="cls-7" d="M282.7,307.6s-4.6,64.6,67.7,84.7c0,.1-62.6-16.4-67.7-84.7Z"/>
    <path class="cls-7" d="M282.7,307.6s58.4,20.2,67.7,84.7c0,.1-9.6-53.2-67.7-84.7Z"/>
    <path class="cls-3" d="M282.7,307.6s49.3,31.6,67.7,84.7c0,.1-16.5-40.7-67.7-84.7Z"/>
    <path class="cls-3" d="M282.7,307.6s50.5,52.7,67.7,84.7l-67.7-84.7Z"/>
    <path class="cls-3" d="M282.7,307.6s17.2,30.9,67.7,84.7c0,.1-52.8-45.4-67.7-84.7Z"/>
    <path class="cls-3" d="M282.7,307.6s8.4,41.9,67.7,84.7c0,.1-55.5-28-67.7-84.7Z"/>
    <path class="cls-3" d="M282.7,307.6s1.7,54.3,67.7,84.7"/>
    <path class="cls-6" d="M319,280c.8,17.6-20.2,26.7-32.9,27-12.7,.4-14-21-11.7-34.8s-4.8-19.7,11-19.5c15.9,.3,32.8,9.7,33.6,27.3Z"/>
  </g>
  <g>
    <path class="cls-4" d="M268.6,221.9V86.7c0-1.2,1-2.2,2.2-2.2h7.9c1.2,0,2.2,1,2.2,2.2V221.8c0,1.2-1,2.2-2.2,2.2h-7.9c-1.2,0-2.2-.9-2.2-2.1Z"/>
    <path class="cls-6" d="M334.3,183.2c.8,25-26,39-47.9,39.4-21.9,.3-13.9-14.1-10.6-28.9,3.3-14.8-12.6-50,9.5-50.1,22.1,0,48.2,14.6,49,39.6Z"/>
    <path class="cls-3" d="M280.9,85.2s43.5,21,0,57.2c0-.1,49.7-32.6,0-57.2Z"/>
    <path class="cls-7" d="M280.9,85.2s55.5,17.8,0,57.2c0-.1,61.9-35.7,0-57.2Z"/>
    <path class="cls-7" d="M280.9,85.2s67.2,15.1,0,57.2c0-.1,38-32,0-57.2Z"/>
    <path class="cls-7" d="M280.9,85.3s71.9,13.2,0,57"/>
  </g>
  <line class="cls-5" x1="6.9" y1="392.6" x2="6.9" y2="197.3"/>
</svg>