<?xml version="1.0" encoding="UTF-8"?>
<svg id="Lag_1" data-name="Lag 1" xmlns="http://www.w3.org/2000/svg" viewBox="0 0 1621.78 1988.61">
  <defs>
    <style>
      .cls-1, .cls-2, .cls-3 {
        fill: #f0ecdc;
      }

      .cls-2, .cls-4, .cls-3, .cls-5, .cls-6, .cls-7, .cls-8 {
        stroke-miterlimit: 10;
      }

      .cls-2, .cls-3, .cls-7 {
        stroke: #f0ecdc;
      }

      .cls-4, .cls-5, .cls-6, .cls-8 {
        stroke: #7b4a38;
      }

      .cls-4, .cls-8 {
        fill: #7b4a38;
      }

      .cls-3, .cls-7 {
        stroke-width: 7px;
      }

      .cls-5 {
        stroke-width: 4px;
      }

      .cls-5, .cls-6, .cls-7 {
        fill: none;
      }

      .cls-8 {
        isolation: isolate;
        opacity: .3;
      }
    </style>
  </defs>
  <path class="cls-2" d="M893.95,1857.38c0-.48-.02-.97,0-1.46-.02-3.36-.03-6.72-.04-10.09-.41-1.01-.46-2.15-.02-3.19-.16-36.32-.32-72.64-.48-108.95-.06-13.41-.11-26.83-.18-40.24-.48-3.77-.86-7.53-.79-11.31,.09-4.52,.48-9.01,.68-13.51-.03-5.39-.04-10.79-.07-16.18-.04-1.84-.07-3.68-.09-5.52-.15-2.96-.18-5.92,.03-8.89l-.05-11.26c-.09-1.97-.15-3.93-.19-5.9-.19-.47-.31-1-.31-1.61,.24-8.52-.15-17.07,.34-25.53-.05-11.39-.1-22.77-.15-34.16-.41-10.2-.44-20.41-.44-30.61v-.23c0-9.02,0-18.02,.19-27.03-.07-17.16-.15-34.31-.22-51.46-.11-23.89-.21-47.83-2.86-71.64-.19-1.21-.33-2.43-.42-3.65-.02-.13-.03-.26-.04-.39-.63-5.13-1.39-10.27-2.07-15.41-.96-3.81-1.89-7.6-1.31-11.45-.79-8.8-.93-17.59,.58-26.32,1.58-9.13,4.76-18.75,7.63-28.31,.42-1.87,.94-3.71,1.6-5.49,5.61-19.88,8.31-39.13-9.14-52.98-1.35-1.07-2.78-2.05-4.27-2.97-5.61-2.46-11.2-4.89-16.97-6.9-.93-.25-1.85-.49-2.79-.7-6.01-1.34-12.03-2.3-18.15-3.03-.6-.07-1.21-.13-1.82-.2-.13-.02-.26-.03-.41-.04-8.15-.83-16.54-1.01-24.69-2.11-3.49-.05-6.98-.2-10.31-.79-158.55-11.86-318.32-10.7-477.69-9.5-59.33,.44-118.66,.89-177.99,1.33-3.88,.02-7.69,.22-11.44,.54-4.8,1.37-9.82,2.15-14.73,2.98-2.26,.37-4.74,.51-7.27,.63-6.59,1.61-13,3.64-19.25,6.06-3.11,1.75-6.68,2.99-9.79,4.42-3.61,1.66-7.55,4.13-11.54,5.57-.61,.33-1.22,.66-1.82,1-6.42,3.62-12.46,8.33-17.71,13.61-3.2,3.43-6.06,7.1-8.65,10.98-.17,.25-.32,.51-.48,.76-.11,.82-.55,1.62-1.45,2.33-.03,.02-.04,.04-.07,.07-2.05,3.34-3.9,6.79-5.58,10.3-.29,.94-.56,1.85-.84,2.71-1.6,4.95-2.58,10.12-3.54,15.2-.15,.78-.31,1.69-.5,2.69,.08,.33,.12,.7,.12,1.09-.14,7.32-2,14.51-2.41,21.77,.26,3.88,.41,7.76,.42,11.68,0,.29-.03,.56-.08,.82,1.37,30.04,3.03,60.07,4.28,90.12,.08,1.01,.17,2,.3,3,.08,.6,.04,1.12-.11,1.58,.25,6.12,.48,12.23,.68,18.35,.31,9.54,.59,19.08,.85,28.62,.34,4.38,.45,8.67,.34,13.05,1.71,70.55,1.93,141.11,.64,211.67,.1,4.79,.41,10-.21,14.85,.03,.21,.04,.42,.04,.66-.04,1.91-.26,3.81-.51,5.7-3.02,67.54-13.81,134.81-13.81,201.98,0,19.99,15.52,37.34,37.79,45.39,5.66,1.2,11.15,2.92,16.91,3.67,2.1,.27,4.18,.68,6.28,.96,1.54,.08,3.09,.14,4.65,.14h103.77c1.73-.14,3.49-.08,5.24,0h84.34c.64-.15,1.31-.15,1.96,0h33.04c3.42-.49,6.96-.29,10.61-.22,3.26,.06,7.13-.24,10.68,.22h34.74c1.75-.06,3.47-.08,5.2,0h17.12c.19-.02,.38,0,.57,0h9.59c.91-.02,1.82-.02,2.73,0h5.11c2.01-.05,4.13-.12,6.22,0h47.52c2.52-.1,5.05-.17,7.6-.09,2.21,.07,5.13-.29,7.64,.09h16.4c.22-.03,.46-.04,.7-.03,.39-.11,.81-.17,1.28-.18,2.49-.03,4.98,.08,7.48,.22h4.02c2.52-.14,5.03-.1,7.56,0h41.66c2.84-.27,5.66-.2,8.56-.16,.86,0,1.76,.07,2.67,.16h52.61c1.88-.07,3.76-.04,5.64,0h9.26c4.25-.18,8.35-.19,12.49,0h54.81c2.19-.14,4.36-.07,6.56,0h43.31c6.9-.58,14.12-.24,20.96-.16,.43,0,.83,.07,1.2,.16h42.05c5.14,0,10.28-.36,15.41-.13,.3,.02,.58,.05,.85,.11,24.24-.5,37.86-7.72,45.34-18.46,1.03-2.1,2.4-4.08,3.48-6.16,1.82-4.01,3.04-8.35,3.83-12.91,.14-3.1,.19-6.72,1.08-9.95,.81-14.9-1.38-31.04-1.44-44.75-.02-5.01-.04-10-.06-15.01v.03Z"/>
  <path class="cls-2" d="M795.17,1241.74c0,18.18-3.59,64.8-38.69,36.09-10.72-8.77-14.26-22.08-17.31-34.57-11.28-46.4-22.54-92.8-33.82-139.19-6.28-25.85-12.57-51.73-21.07-77.09-21.31-63.54-56.32-123.17-97.57-178.87-13.29-17.94-27.49-35.76-46.38-49.43-18.89-13.67-43.24-22.91-67.78-21.02-29.51,2.29-54.25,19.79-75.1,38-127.17,111.02-181,271.15-195.31,426.94-1.11,12.08-2.81,25.57-13.63,33.27-28.55,20.29-33.76-21.09-33.76-34.12,0-274.22,143.36-496.51,320.21-496.51s320.21,222.3,320.21,496.51h-.02Z"/>
  <g>
    <path class="cls-8" d="M37.9,1281.77c-.34,1.7-.67,3.4-1,5.1-.15,.77-.31,1.69-.5,2.69,.08,.33,.12,.7,.12,1.09-.14,7.3-1.99,14.47-2.4,21.71,.26,3.89,.41,7.8,.42,11.75,0,1.07-.35,1.93-.93,2.58v.14c.2,5.74,0,11.52,.82,17.22,.48,3.4,.89,6.61,.82,9.91,.08,.28,.15,.57,.18,.89,.91,10.2-.07,20.43,1.1,30.61,.63,5.42,1.02,10.87,1.54,16.3,.19,1.93,.27,3.86,.34,5.79,.04,.8,.07,1.61,.08,2.4,.09,2.7,.19,5.4,.55,8.08,.17,1.26-.21,2.23-.89,2.89,.04,.58,.08,1.16,.11,1.75,.4,7.83,1.74,15.54,1.33,23.4,0,.13-.03,.26-.04,.38,.07,1.88,.03,3.77,.02,5.67,0,4.72,.49,9.46,.87,14.16,.38,4.65,.48,9.17,.34,13.83-.05,1.9,0,3.93-.39,5.83,.02,.26,.04,.52,.04,.77,3.79-15.18,7.66-30.38,10.75-52.97,4.63-33.94-4.37-99.99-13.29-151.98h0Z"/>
    <path class="cls-8" d="M96.15,1401.26c-.52-84.66-15.09-139.2-25.9-168.15-1.28,1.06-2.47,2.24-3.68,3.24-2.2,1.8-4.38,3.53-6.42,5.5-4.29,4.15-8.01,8.77-11.28,13.66-.18,.26-.33,.52-.49,.78-.11,.81-.55,1.61-1.43,2.3-.03,.02-.04,.04-.07,.06-.41,.67-.81,1.36-1.21,2.04,26.24,115.72,16.68,135.24,6.79,239.32-6.87,72.3-10.17,136.33-11.69,175.18,.17,.37,.26,.79,.32,1.25,.22,.48,.34,1.05,.34,1.68,0,2.89-.23,5.82-.42,8.77,.27,.52,.42,1.14,.42,1.85-.04,5.46,.56,11.73-.19,17.46,.03,.2,.04,.4,.03,.62-.09,3.32-.64,6.59-1.09,9.86,.06,2.06,.1,4.12-.02,6.2-.07,1.29-.22,2.56-.4,3.83,1.49,93.47-2.9,167.38-6.44,209.93,.41,.56,.78,1.12,1.12,1.7,2.06,3.06,4.32,6.05,7.13,8.52,.41,.29,.83,.57,1.25,.87,.87,.61,1.65,1.24,2.34,1.9,.27,.2,.56,.4,.83,.6,.34-1.84,.69-3.79,1.04-5.89,5-29.88,5-90.95,5.42-150.71,.42-59.76,12.07-178,12.07-178,38.3-181.9,31.64-214.38,31.64-214.38h-.02Z"/>
    <path class="cls-8" d="M124.88,1213.23c-4.76,.8-10.51,.49-15.61,1.38l5.23,34.33,18.87-37.2c-2.82,.56-5.67,1.01-8.48,1.49h0Z"/>
    <path class="cls-8" d="M159.99,1212.69l-7.58-5.02s-18.95,60.64-32.22,97.32c-10.72,29.65-19.53-52.19-22.51-84.68-2.94,1.56-6.22,2.73-9.09,4.05-1.61,.74-3.29,1.64-5,2.54,5.18,29.71,15.72,84.41,24.62,94.65,12.35,14.2,7.04,46.15,7.04,46.15,0,0,12.89-34.31,44.73-155.01Z"/>
    <path class="cls-8" d="M203.81,1775.54c1.39,4.42,0-4.92,0-4.92,0,0-99.38-338.19-7.89-562.95h-23.66s-89.91,183.86,31.54,567.87h0Z"/>
    <path class="cls-8" d="M121.82,1395.06s-19.29,87.55-13.61,175.1c0,0-28.84,89.79-37.47,134.69-8.63,44.89-6.92,71.84-7.78,134.69,0,0,17.12-146.35,58.86-260.4,0,0,13.61-110.57,0-184.08h0Z"/>
    <path class="cls-8" d="M95.41,1715.55s32.8-70.16,38.64-123.3c5.85-53.14,9.75,94.4,28.75,123.3,19.01,28.9-27.78-15.97-31.68-25.1,0,0,2.15-12.93-35.72,25.1h0Z"/>
    <path class="cls-8" d="M58.32,1911.29s6.64-74.5,38.27-163.19c0,0,12.88-14.19,21.97-28.38,0,0,22.3,34.26,53.78,42.57,31.48,8.32,56.48,99.33,56.48,99.33,0,0-49.01-91.72-100.94-98.44,0,0-37.72,34.59-69.55,148.11h0Z"/>
    <path class="cls-8" d="M75.02,1887.05s46.31-187.85,142.76,2.99c0,0-90.32-135.88-142.76-2.99Z"/>
    <path class="cls-8" d="M52.44,1952.82s64.23-206.77,198.72,8.32c0,0-138.1-148.58-198.72-8.32Z"/>
    <path class="cls-8" d="M75.67,1962.46c1.97,.44,3.96,.82,5.98,1.09,2.8,.37,5.59,.97,8.42,1.2,1.27,.1,2.52,.11,3.76,.17,34.87-60.1,85.01-22.1,107.15-.29,1.63,.07,3.26,.18,4.85,.2,3.24,.04,6.63-.07,9.94,.2-79.93-116.92-125.44-37.72-140.1-2.57h0Z"/>
    <path class="cls-8" d="M288.06,1964.69c.11,.03,.22,.05,.33,.08h.04c-161.34-596.78-49.69-757.11-49.69-757.11h-20.96c-122.09,236.66,38.55,677.85,69.08,756.88,.41,0,.81,.04,1.21,.15Z"/>
    <path class="cls-8" d="M331.55,1964.43c3.11,.06,6.79-.22,10.21,.16-15.15-44.26-66.43-204.02-90.36-404.86-28.26-237.2,28.26-352.06,28.26-352.06h-20.26c-51.39,80.9-46.35,243.03-46.35,243.03,6.15,229.1,88.23,458.91,109.07,513.82,3.05-.31,6.19-.14,9.42-.07h0Z"/>
    <path class="cls-8" d="M364.28,1964.71c1.3-.02,2.61,.02,3.91,.11,2.15-.03,4.31-.02,6.49-.09,3.04-.1,6.05-.25,9.04,.03-19.95-25.81-62.75-91.97-66.32-188.04-4.66-125.63-25.68-241.89-25.68-241.89,2.68-203.94,38.01-327.16,38.01-327.16h-30.82s-55.14,202.12-40.69,259.82,21.27,173.16,21.27,173.16c-1.82,136.3,64.1,281.82,84.79,324.06h0Z"/>
    <path class="cls-8" d="M401.49,1964.76c1.35,.1,2.71,.17,4.07,.21,3.44-.55,7-.23,10.61-.29,2.79-.05,5.85-.21,8.8,.08-16.57-38.18-65.73-157.51-62.06-220.69,4.42-75.86-5.53-170.7-5.53-170.7-27.62-136.22-16.57-165.53-16.57-165.53,22.1-56.9,36.98-103.89,53.01-146.22,16.03-42.33,67.8-53.96,67.8-53.96h-47.9c-29.83,12.16-53.04,69.14-53.04,69.14-5.53-27.59,4.42-69.14,4.42-69.14h-24.31c-3.31,75.7-6.63,80.01-6.63,80.01-19.89,110.88-5.53,221.89-5.53,221.89l3.31,174.15c2.7,141.58,51.39,246.68,69.52,281.04h0Z"/>
    <path class="cls-8" d="M507.66,1207.67s-121.54,138.1-103.86,143.28c0,0-8.38,8.46-15.86,62.18-7.48,53.73-10.48,69.35-15.72,79.07-5.24,9.71-14.22-12.48-14.22-12.48,0,0-.75-66.34,12.72-112.02,13.47-45.67,23.95-59.7,54.64-104.08,30.69-44.39,68.11-55.95,68.11-55.95h14.19Z"/>
    <path class="cls-8" d="M655.28,1207.67c-162.67,134.5-143.03,167.49-164.07,187.39-21.04,19.89-81.33,295.23-58.39,97.14,22.94-198.09,169.17-284.52,169.17-284.52h-72.92c-109.38,90.73-135.24,270.35-135.24,270.35-44.78,325.98,37.57,451.08,70.56,486.9,4.74-.15,9.47-.49,14.25-.36,2.03,.06,4.65-.23,7.01,0-73.61-164.71-58.94-244.85-58.94-244.85,47.68-333.83,270.64-512.06,270.64-512.06h-42.07v.02Z"/>
    <path class="cls-8" d="M980.55,1219.31c-.09-.56-.19-1.11-.29-1.66h0v2.84c.04-.42,.14-.82,.29-1.19h0Z"/>
    <path class="cls-8" d="M864.86,1224.74c-.91-.25-1.83-.48-2.76-.69-6.01-1.34-12.03-2.3-18.15-3.03-8.84-1.06-18.01-1.16-26.9-2.35-4.06-.06-8.13-.25-11.93-1.11-2.38-.12-4.5-.37-5.83-.51-1.77-.19-3.95-1.12-4.25-3.05-.33-2.12-.49-4.22-.58-6.34h-4.57c-144.43,46.96-172.48,132.48-172.48,132.48,0,0-29.45,94.1-56.09,126.93-26.64,32.83-44.87,72.21-44.87,72.21-14.03,50.33-35.05,129.11-35.05,129.11-43.34,169.96,2.27,264.23,23.06,296.04,.07,0,.13,0,.19,0,3.15-.04,6.29,.15,9.43,.32h.6c4.94-.44,9.85-.03,14.78,.12-27.05-44.74-40.03-165.52-30.84-188.16,10.22-25.17,40.45-112.7,40.45-112.7,2.99-89.73,100.78-251.67,100.78-251.67,62.82-133.9,163.09-173.09,241.15-181.09-5.32-2.34-10.65-4.62-16.14-6.53h0Z"/>
    <path class="cls-8" d="M975.78,1293.9v-1.16c-.1,.93-.19,1.86-.26,2.79,0,.66,.02,1.31,.03,1.97,.08-1.21,.16-2.4,.24-3.61Z"/>
    <path class="cls-8" d="M752.53,1351.16c-47.08,16.04-64.42,43.89-64.42,43.89-32.21,71.38-94.16,245.16-94.16,245.16-72.14,199.57-44.08,293.5-28.85,324.46,2.92-.31,5.82-.23,8.79-.18,2.64,.04,5.54,.56,8.28,.57,1.12-.07,2.23-.17,3.34-.27-10.79-27.6-21.77-95.22-2.72-141.51,23.54-57.21,34.69-116.31,34.69-116.31,56.62-237.35,181.77-307.15,272.56-325.08-1.61-5.36-1.08-11.01-1.93-16.6-.9-5.96-3.62-11.82-2.63-17.81-.52-9.24-.12-18.29,1.53-27.53,.93-5.16,2.12-10.36,3.39-15.46,.47-1.9,1.36-3.76,2.26-5.62,.56-4.06,1.36-8.12,2.85-11.88-88.73,9.14-142.99,64.19-142.99,64.19h0Z"/>
    <path class="cls-8" d="M892.91,1464.57c-98.84,25.71-183.68,109.45-195.57,152.72-15.71,57.17-35.61,107.83-35.61,107.83-55.41,107.37-37.91,205.89-29.24,239.49,3.61,.03,7.24,.23,10.83,.06,5.19-.25,10.14-.22,15.22,.07-40.72-262.65,121.84-374.63,233.75-419.97-.06-5.26-.07-10.54-.07-15.8v-.23c0-11.32-.04-22.62,.37-33.93,.36-10.09,.77-20.17,.33-30.26h0Z"/>
    <path class="cls-8" d="M892.78,1594.18c-21.11,4.19-36.76,6.18-36.76,6.18,12.93,6.96,25.13,11.71,36.51,14.8,.06-7.01-.13-14.02,.25-20.97h0Z"/>
    <path class="cls-8" d="M892.45,1682.15c.12-6.21,.83-12.38,.8-18.61-.03-5.46-.21-10.93-.27-16.39-.21-4.08-.19-8.18,.34-12.27-11.61-1.78-21.11-.59-26.29,7.25-19.1,28.87-78.2,36.23-78.2,36.23l-36.66,41.37c-108.59,40.24-57.68,199.43-40.55,244.91,2.7-.16,5.39-.02,8.12,.07,.57,.02,1.15,.05,1.71,.08,.96-.11,1.9-.18,2.85-.12-4.12-15.07-9.03-47.87-7.56-117.45,2.44-115.23,54.33-81.17,54.33-81.17l49.52,19.07s63.54,1.9,59.87-26.7c-3.67-28.6-47.65-15.25-73.8-13.35-26.15,1.9-11.73-19.97-11.73-19.97,0,0,52.54-29.62,90.42-16.27,2.65,.93,5.46,1.65,8.37,2.2,.04-4.23,.11-8.47,.16-12.7-.68-5.39-1.53-10.81-1.42-16.23h0Z"/>
    <path class="cls-8" d="M894.31,1841.91c-.02-.06,.06-.22,.35-.5,.02-.12,.02-.27,0-.45-.09-.56,.03-1.21,.02-1.78-.03-1.47-.18-2.94-.28-4.41-.28-4.04-.13-8.12-.18-12.17-.09-7.64-.25-15.28-.33-22.92-30.2,32.01-37.87,33.12-37.87,33.12-115.03-30.46-105.75,92.06-99.86,131.88,.56,0,1.13,.02,1.69,.05,.69,0,1.38,.02,2.06,.03,6.84-.71,14.04-.42,20.91-.31,1.79-29.09,8.91-98.8,36.08-89.71,34.22,11.44,59.87,0,59.87,0,5.81-7.4,11.55-14.07,17.2-20.13,.11-2.46,.41-4.94,.74-7.43-1.23-1.41-1.63-3.61-.42-5.28h0Z"/>
    <path class="cls-8" d="M819.05,1965.14c1.99-.37,4.01-.49,6.41-.5,4.55,0,9.1-.27,13.65-.18,5.99-18.49,26.68-24.31,26.68-24.31,7.34,2.7,14.39,4.76,21.16,6.25,1.15-2.41,2.77-4.66,3.93-7.05,1.28-2.63,2.26-5.4,3.13-8.2,.18-1.31,.3-2.64,.36-3.97,.13-2.74,.18-5.88,.78-8.82-54.37-6.2-71.07,27.99-76.12,46.77h.02Z"/>
  </g>
  <path class="cls-4" d="M107.96,1505.39h156.97c.44,0,.79,.34,.79,.75v13.6c0,.41-.36,.75-.79,.75H107.96c-.44,0-.79-.34-.79-.75v-13.6c0-.41,.36-.75,.79-.75Z"/>
  <path class="cls-4" d="M109.02,1667.97h155.67c.44,0,.8,.34,.8,.76v13.57c0,.42-.36,.76-.8,.76H107.74c-.44,0-.8-.34-.8-.76v-12.37c0-1.09,.93-1.97,2.09-1.97h0Z"/>
  <path class="cls-6" d="M265.73,1518.68s-146.06,32.47-158.56,150.94c0,0,10.75-103.23,158.56-150.94Z"/>
  <path class="cls-6" d="M107.17,1669.62s12.63-92.55,158.56-150.94c0,0-125.24,53.84-158.56,150.94Z"/>
  <path class="cls-6" d="M107.17,1669.62s35.34-82.74,158.56-150.94c0,0-98.74,62.76-158.56,150.94Z"/>
  <path class="cls-6" d="M265.73,1519.52s-34.11,137.49-158.56,149.26c0,0,108.45-10.11,158.56-149.26Z"/>
  <path class="cls-6" d="M107.17,1668.78s68.82-81.6,158.56-149.26l-158.56,149.26Z"/>
  <path class="cls-6" d="M107.17,1668.78s59.66-39.71,158.56-149.26c0,0-52.46,79.75-158.56,149.26Z"/>
  <path class="cls-6" d="M107.17,1668.78s100.96-49.79,158.56-149.26c0,0-33.08,90.31-158.56,149.26Z"/>
  <path class="cls-6" d="M107.17,1668.78s106.97-25.12,158.56-149.26"/>
  <path class="cls-4" d="M295.73,1504.51h119.47c.7,0,1.26,.53,1.26,1.19v12.72c0,.66-.56,1.19-1.26,1.19h-119.47c-.7,0-1.26-.53-1.26-1.19v-12.72c0-.66,.56-1.19,1.26-1.19Z"/>
  <rect class="cls-4" x="294.48" y="1518.75" width="5.69" height="165.19"/>
  <path class="cls-4" d="M299.18,1668.85h115.99c.72,0,1.3,.55,1.3,1.22v12.65c0,.68-.58,1.22-1.3,1.22h-115.99c-.72,0-1.3-.55-1.3-1.22v-12.65c0-.68,.58-1.22,1.3-1.22Z"/>
  <path class="cls-6" d="M416.33,1586.68s-58.28-31.89-118.58,0c0,0,51.87-25.2,118.58,0Z"/>
  <path class="cls-6" d="M297.89,1585.79s60.93-20.03,118.58,1.76c0,0-49.81-14.44-118.58-1.76Z"/>
  <path class="cls-6" d="M297.89,1586.68s58.28,31.89,118.58,0c0,0-51.87,25.2-118.58,0Z"/>
  <path class="cls-6" d="M297.89,1585.79s63.04-5.36,118.58,1.76l-118.58-1.76Z"/>
  <path class="cls-6" d="M297.89,1585.79s51.02,21.1,118.58,1.76c0,0-52.65,12.6-118.58-1.76Z"/>
  <path class="cls-6" d="M297.89,1585.79s71.23,8.27,118.58,1.76"/>
  <path class="cls-4" d="M698.33,1683.97c19.43-59.77,48.72-120.93,72.46-179.82,.2-.51,.46-.59,1.12-.42,.65,.17,2.58,.83,3.19,1.09,.62,.26,.75,.47,.55,.96-23.68,58.86-51.48,118.88-72.05,178.42-.18,.52-.42,.57-1.13,.57s-2.79,.03-3.51,0c-.71-.05-.8-.3-.63-.81Z"/>
  <path class="cls-4" d="M772.22,1505.51c23.94,59.48,52.28,117.74,72.05,178.52,.27,.83,.62,.83,1.6,.79,5.23-.22,10.74-.04,16.02-.35,.97-.06,1.15-.65,.86-1.48-21.96-62-49.2-122.06-73.87-183.17-.34-.84-.83-.95-1.71-.67-4.71,1.5-9.53,3.17-14.16,4.87-.85,.32-1.12,.7-.8,1.49h0Z"/>
  <path class="cls-4" d="M771.42,1502.51c.26-.81,.91-2.36,1.24-3.29,.17-.46,.66-.69,1.16-.69,3.09,.02,9.6,0,11.76,0s-.18,0,1.14-.02c.48,.05,1.26,.2,1.63,.59,.31,.33,.12,.66,.28,1.01-4.36,1.9-8.89,3.59-13.42,5.06-.48,.16-.63,.13-1.14-.13-.51-.27-1.51-.76-2.05-1.14-.55-.37-.86-.57-.61-1.38h0Z"/>
  <path class="cls-6" d="M733.89,1607.27h80.88s-36.1-5.56-80.88,0Z"/>
  <path class="cls-6" d="M733.89,1607.27s34.82-10.6,80.88,0c0,0-42.88-14.86-80.88,0Z"/>
  <path class="cls-6" d="M733.89,1607.27s33.47-19.96,80.88,0c0,0-40.47-24.98-80.88,0Z"/>
  <path class="cls-6" d="M814.63,1606.59s-33.01,20.52-80.86,1.36c0,0,41.03,24.29,80.86-1.36h0Z"/>
  <path class="cls-6" d="M733.89,1607.27s34.16,4.86,80.88,0c0,0-42.19,9.29-80.88,0Z"/>
  <path class="cls-6" d="M733.89,1607.27s36.72,14.12,80.88,0"/>
  <path class="cls-4" d="M586.34,1499.54v184.25c0,.38-.32,.68-.72,.68h-17.16c-.4,0-.72-.31-.72-.68v-184.25c0-.38,.32-.68,.72-.68h17.16c.4,0,.72,.31,.72,.68Z"/>
  <ellipse class="cls-4" cx="689.15" cy="1684.02" rx=".55" ry=".47"/>
  <path class="cls-6" d="M585.76,1573.21s99.06,14.26,103.4,110.34c0,0-2.38-82.91-103.4-110.34h0Z"/>
  <path class="cls-6" d="M586.2,1572.97s-7.04,84.51,102.65,110.83c0,0-94.98-21.61-102.65-110.83h0Z"/>
  <path class="cls-6" d="M586.2,1572.97s88.56,26.4,102.65,110.83c0,0-14.53-69.63-102.65-110.83h0Z"/>
  <path class="cls-6" d="M586.2,1572.97s74.75,41.3,102.65,110.83c0,0-25.02-53.34-102.65-110.83h0Z"/>
  <path class="cls-6" d="M586.2,1572.97s76.56,68.99,102.65,110.83l-102.65-110.83h0Z"/>
  <path class="cls-6" d="M586.2,1572.97s26.13,40.45,102.65,110.83c0,0-80.09-59.44-102.65-110.83h0Z"/>
  <path class="cls-6" d="M586.2,1572.97s12.69,54.76,102.65,110.83c0,0-84.18-36.73-102.65-110.83h0Z"/>
  <path class="cls-6" d="M586.2,1572.97s2.57,71.05,102.65,110.83"/>
  <path class="cls-5" d="M641.21,1536.76c1.28,23.05-30.66,34.87-49.95,35.38-19.29,.51-21.27-27.44-17.75-45.47s-7.32-25.76,16.73-25.49c24.05,.27,49.7,12.52,50.97,35.58Z"/>
  <path class="cls-4" d="M464.34,1502.24v178.85c0,1-.86,1.8-1.91,1.8h-14.78c-1.06,0-1.91-.81-1.91-1.8v-178.85c0-1,.86-1.8,1.91-1.8h14.78c1.06,0,1.91,.81,1.91,1.8Z"/>
  <path class="cls-5" d="M545.33,1629.51c1.23,32.68-39.37,51.08-72.6,51.51-33.22,.44-21.04-18.5-16.03-37.81,5.02-19.32-19.12-65.4,14.35-65.51,33.48-.11,73.04,19.12,74.27,51.8h0Z"/>
  <path class="cls-6" d="M464.33,1501.22s66.02,27.42,0,74.77c0,0,75.41-42.56,0-74.77Z"/>
  <path class="cls-6" d="M464.33,1501.22s84.23,23.29,0,74.77c0,0,93.9-46.62,0-74.77Z"/>
  <path class="cls-6" d="M464.33,1501.22s101.89,19.73,0,74.77c0,0,57.68-41.74,0-74.77Z"/>
  <path class="cls-6" d="M464.33,1501.42s108.98,17.22,0,74.57"/>
  <g>
    <path class="cls-1" d="M713.95,129.75s-18.88-87.31-154.21-102.72c0,0-3.15,87.31,77.11,138.67,0,0-39.76-61.87-42.48-97.58,0,0,15.74-20.54,119.6,61.63h0Z"/>
    <path class="cls-2" d="M575.47,324.89h61.36s-14.16,61.63-61.36,0Z"/>
    <path class="cls-2" d="M416.72,698.4s-83.76-167.26,66.13-77.34c0,0,94.78-28.78,103.6,50.36,8.82,79.14-96.53,84.53-96.53,84.53l30.41-57.55s15.43-26.56-6.61-23.17c-22.04,3.38-23.53,50.15-23.53,50.15,0,0-.72,17.99-18.36,30.57-17.63,12.59-55.11-57.55-55.11-57.55Z"/>
    <path class="cls-2" d="M744.04,139.44l-41.81-57.99s167.22-131.33,453.6,37.52c0,0,179.77,105.74,221.58,172.26,41.81,66.52,144.23,105.74,144.23,105.74,0,0-144.23-3.41-388.8-173.96,0,0-181.86-177.37-388.8-83.57h0Z"/>
    <path class="cls-2" d="M744.04,139.44s-55,143.74,103.77,418.65c0,0-94.82-283.72-42.81-439.03,0,0-34.79,6.05-44.63,107.53,0,0-9.66-29.76-16.34-87.16h0Z"/>
    <path class="cls-2" d="M884.93,119.07s20.41,13.34-48.61,139.44c0,0-33.7,107.02,25.72,249.7,0,0-25.22-174.61-4.76-217.78,20.46-43.18,31.55-36.28,57.28-103.26,0,0,6.9-47.97,9.2-68.1s-38.83,0-38.83,0h0Z"/>
    <path class="cls-2" d="M988,134.43s21.47-29.86-103.08,167.26c0,0-22.72,118.14,0,292.81l27.32,28.23s-20.52-153.95,11.6-232.8c0,0,20.61-140.81,34.42-146.44,13.81-5.63,63.93-94.51,63.93-94.51l-34.19-14.55h0Z"/>
    <path class="cls-1" d="M1054.05,165.7s-63.57,61.45-68.18,172.88c-4.6,111.43,11.51,124.83,0,219.51-11.51,94.68-25.31,117.89-25.31,117.89v23.73s64.43-58.34,73.63-105.2c9.2-46.86-9.2-147.94-2.3-177.19,0,0-20.71-85.58,9.2-143.78,29.91-58.2,44.07-88.24,44.07-88.24l-31.12-19.6h0Z"/>
    <path class="cls-1" d="M1132.84,223.01s-94.05,119.99-11.21,285.21c0,0,6.9,69.47-20.71,95.75-27.61,26.28-41.42,40.79-59.83,72.02-18.41,31.24-41.42,45.37-27.61,81.49l20.71,26.73s1.71-71.34,98.65-144.57c0,0,71.62-56.32,48.61-159.59,0,0,45.19-125.6,49.06-194.22l-46.76-23.57s6.9,49.03-23.01,97.74c0,0-27.61,11.04-29.91-27.39-2.3-38.43,28.28-91.66,28.28-91.66l-26.28-17.94h0Z"/>
    <path class="cls-2" d="M1287.98,317.63s-40.65,93.49-38.64,152.67c2.02,59.18-18.82,136.44-18.82,136.44,0,0-41.62,23.41-31.54,69.24,0,0-14.11,39.87-64.47,81.49-50.37,41.62-38.28,109.52-38.28,109.52l23.68,25.8s-9.57-72.33,89.15-149.6c0,0,71.23-44.39,78.94-156.17,7.7-111.78,25.22-227.27,42.65-248.44,17.43-21.17-42.65-20.94-42.65-20.94h0Z"/>
    <path class="cls-2" d="M1380.61,360s-48.67,72.49-28.52,291.13c0,0,18.76,106.85-121.58,179.19,0,0-23.49-13.15-33.55,80.55,0,0-16.12,21.37-28.2,24.66l18.13,26.31s36.9-23.01,43.63-39.45c6.74-16.44-7.05-31.24,44.17-65.76,51.22-34.52,192.25-37.92,141.89-478.84l-35.95-17.77h0Z"/>
    <path class="cls-2" d="M1472.09,389.06s66.62,379.61-44.82,427.28c0,0-14.73,5.95-10.69,50.65,0,0-184.73,57.09-186.06,169.26h32.93s-18.1-76.89,97.74-108.11c0,0-73.55,51.85-71.54,108.11h34.25s-10.64-44.63,167.95-169.26c178.59-124.62,0-477.93,0-477.93h-19.75Z"/>
    <path class="cls-2" d="M1541.49,407.01h29.73l19.23,25.69v84.45s-29.12-100.11-48.96-110.14h0Z"/>
    <path class="cls-2" d="M1590.45,809.76s-18.13,13.15-24.48,39.45c-6.35,26.31-24.48,69.04-109.1,112.61,0,0-68.5,16.5-90.67,74.42h44.33s37.48-37.43,179.92-134.42v-92.06h0Z"/>
    <path class="cls-2" d="M1444.78,1036.25h60.44s19.34,.38,85.23-32.5v-32.88s-77.17,45.27-145.67,65.38Z"/>
    <path class="cls-2" d="M630.99,187.96l10.13-9.15s66.97,9.79,65.97,72.58c-1,62.79-47.46,76.25,119.71,316.43l-8.75,11.83s-118.95-119.6-127.94-219.65c-8.99-100.04-83.95-137-83.95-137l8.98-15.24s49.98,13.05,56.97,35.89c7,22.84,7-20.64,7-20.64,0,0-11.27-34.46-48.11-35.05h0Z"/>
    <path class="cls-1" d="M567.97,285.57l7.5-14.12s103.25-23.87,98.63,67.13c-4.61,91,15,134.3,15,134.3,0,0,98.33,114.83,102.23,117.65s-8.79,14.68-8.79,14.68c0,0-83.06-64.56-117.67-138.92-34.61-74.36-28.62-61.44-58.72-69.31-30.11-7.87-60.1-50.66-60.1-50.66l8.08-13.7s28.31,51.84,73.83,46.62c45.53-5.21,13.84-75.78,13.84-75.78,0,0-29.99-32-73.83-17.88h0Z"/>
    <path class="cls-1" d="M531.63,396.97l7.87-13.46s9.56,20.77,66.65,33.79c0,0,42.47,18.52,48.09,73.59,5.62,55.07,107.99,123.91,107.99,123.91l-19.12,7.93s-118.06-85.58-106.27-138.25c11.79-52.69-61.36-58.74-61.36-58.74l-43.84-28.77h0Z"/>
    <path class="cls-1" d="M490.18,443.18l12.2-10.47s89.99-13.72,111.37,70.42c21.37,84.15,102.73,130.95,102.73,130.95l-14.23,9.18s-95.91-76.18-115.26-123.91c-19.35-47.73-122.84-24.78-122.84-24.78v-15.6s61.87-16.52,87.74-5.51c25.88,11.01-13.5-23.86-13.5-23.86l-48.2-6.43h0Z"/>
    <path class="cls-1" d="M429.26,529.45l17.99-17.44s129.91-17.08,158.88,67.64c0,0,34.59,54.43,69.46,71.87l-20.25,9.4s-79.5-62.52-85.49-96.59c-5.99-34.07-140.61-34.88-140.61-34.88h0Z"/>
    <path class="cls-1" d="M400.02,579.65l12.38-14.4s43.87-1.48,68.62,14.4c0,0,10.12,11.14,75.37,0,0,0,32.62-7.69,66.37,96.34h-16.59s-26.15-69.36-41.9-70.77c-15.75-1.41-38.39-13.82-84.36-10.7-45.97,3.11-79.87-14.85-79.87-14.85h0Z"/>
  </g>
  <rect class="cls-3" x="1590.45" y="15.46" height="1020.79"/>
  <line class="cls-7" x1="1590.45" y1="1036.25" x2="953.49" y2="1036.25"/>
</svg>