<?xml version="1.0" encoding="UTF-8"?>
<svg id="Lag_1" data-name="Lag 1" xmlns="http://www.w3.org/2000/svg" viewBox="0 0 131.01 835.48">
  <defs>
    <style>
      .cls-1 {
        stroke-width: .75px;
      }

      .cls-1, .cls-2, .cls-3, .cls-4, .cls-5 {
        stroke: #f0ecda;
        stroke-miterlimit: 10;
      }

      .cls-1, .cls-3, .cls-4, .cls-5 {
        fill: none;
      }

      .cls-2 {
        fill: #f0ecda;
      }

      .cls-3 {
        stroke-width: 4px;
      }

      .cls-5 {
        stroke-width: .5px;
      }
    </style>
  </defs>
  <g>
    <rect class="cls-2" x="10.38" y="11.21" width="92.27" height="11.54" rx=".9" ry=".9"/>
    <path class="cls-2" d="M12.61,135.49H101.6c.5,0,.91,.41,.91,.91v9.71c0,.5-.41,.91-.91,.91H11.15c-.5,0-.91-.41-.91-.91v-8.26c0-1.31,1.06-2.37,2.37-2.37Z"/>
    <path class="cls-4" d="M102.65,21.37S17.65,46.19,10.38,136.75c0,0,6.25-78.91,92.27-115.38Z"/>
    <path class="cls-4" d="M10.38,136.75S17.73,66,102.65,21.37c0,0-72.88,41.16-92.27,115.38Z"/>
    <path class="cls-4" d="M10.38,136.75S30.95,73.5,102.65,21.37c0,0-57.46,47.97-92.27,115.38Z"/>
    <path class="cls-4" d="M102.65,22.01S82.8,127.11,10.38,136.11c0,0,63.11-7.73,92.27-114.1Z"/>
    <path class="cls-4" d="M10.38,136.11S50.42,73.73,102.65,22.01L10.38,136.11Z"/>
    <path class="cls-4" d="M10.38,136.11S45.1,105.75,102.65,22.01c0,0-30.53,60.96-92.27,114.1Z"/>
    <path class="cls-4" d="M10.38,136.11S69.13,98.04,102.65,22.01c0,0-19.25,69.04-92.27,114.1Z"/>
    <path class="cls-4" d="M10.38,136.11s62.24-19.21,92.27-114.1"/>
  </g>
  <g>
    <rect class="cls-2" x="15.1" y="191.74" width="80.44" height="11.54" rx="1.43" ry="1.43"/>
    <rect class="cls-2" x="-46.16" y="263.9" width="126.28" height="3.75" transform="translate(282.75 248.8) rotate(90)"/>
    <rect class="cls-2" x="17.35" y="317.37" width="78.19" height="11.54" rx="1.47" ry="1.47"/>
    <path class="cls-1" d="M95.45,254.55s-38.43-24.38-78.19,0c0,0,34.2-19.26,78.19,0Z"/>
    <path class="cls-1" d="M17.35,253.88s40.18-15.32,78.19,1.35c0,0-32.84-11.04-78.19-1.35Z"/>
    <path class="cls-1" d="M17.35,254.55s38.43,24.38,78.19,0c0,0-34.2,19.26-78.19,0Z"/>
    <path class="cls-1" d="M17.35,253.88s41.57-4.1,78.19,1.35l-78.19-1.35Z"/>
    <path class="cls-1" d="M17.35,253.88s33.64,16.13,78.19,1.35c0,0-34.72,9.63-78.19-1.35Z"/>
    <path class="cls-1" d="M17.35,253.88s46.97,6.32,78.19,1.35"/>
  </g>
  <g>
    <path class="cls-2" d="M14.6,831.01c12.81-45.69,32.12-92.44,47.78-137.46,.14-.39,.3-.45,.74-.32,.43,.13,1.7,.64,2.11,.83,.41,.2,.49,.35,.36,.74-15.62,44.99-33.94,90.88-47.51,136.4-.12,.39-.28,.43-.74,.44s-1.84,.03-2.31,0c-.47-.04-.53-.23-.42-.61Z"/>
    <path class="cls-2" d="M63.32,694.59c15.79,45.47,34.47,90,47.51,136.47,.18,.64,.41,.64,1.05,.61,3.45-.17,7.08-.03,10.56-.27,.64-.04,.76-.5,.57-1.13-14.48-47.4-32.45-93.31-48.71-140.02-.22-.64-.54-.73-1.13-.51-3.1,1.14-6.29,2.42-9.33,3.72-.56,.24-.74,.53-.53,1.14Z"/>
    <path class="cls-2" d="M62.79,692.3c.17-.62,.6-1.81,.82-2.52,.11-.35,.44-.53,.77-.53,2.04,.01,6.33,0,7.76,0,1.43,0-.12,0,.75-.02,.31,.04,.83,.15,1.07,.45,.21,.25,.08,.5,.18,.77-2.88,1.45-5.86,2.75-8.85,3.86-.32,.12-.41,.1-.75-.1-.34-.2-1-.58-1.36-.87-.36-.29-.57-.43-.4-1.05Z"/>
    <path class="cls-5" d="M38.04,772.38h53.33s-23.81-4.25-53.33,0Z"/>
    <path class="cls-5" d="M38.04,772.38s22.96-8.1,53.33,0c0,0-28.28-11.36-53.33,0Z"/>
    <path class="cls-5" d="M38.04,772.38s22.07-15.26,53.33,0c0,0-26.69-19.1-53.33,0Z"/>
    <path class="cls-5" d="M91.28,771.86s-21.76,15.68-53.32,1.04c0,0,27.06,18.57,53.32-1.04Z"/>
    <path class="cls-5" d="M38.04,772.38s22.52,3.71,53.33,0c0,0-27.82,7.1-53.33,0Z"/>
    <path class="cls-5" d="M38.04,772.38s24.22,10.8,53.33,0"/>
  </g>
  <g>
    <rect class="cls-2" x="-34.51" y="580.03" width="141.9" height="12.27" rx=".82" ry=".82" transform="translate(622.6 549.72) rotate(90)"/>
    <ellipse class="cls-1" cx="110.37" cy="656.75" rx=".36" ry=".35"/>
    <path class="cls-4" d="M42.19,572.05s65.32,10.91,68.18,84.35c0,0-1.57-63.38-68.18-84.35Z"/>
    <path class="cls-4" d="M42.48,571.86s-4.64,64.61,67.68,84.73c0,0-62.63-16.52-67.68-84.73Z"/>
    <path class="cls-4" d="M42.48,571.86s58.39,20.18,67.68,84.73c0,0-9.58-53.23-67.68-84.73Z"/>
    <path class="cls-1" d="M42.48,571.86s49.29,31.57,67.68,84.73c0,0-16.5-40.78-67.68-84.73Z"/>
    <path class="cls-1" d="M42.48,571.86s50.48,52.74,67.68,84.73l-67.68-84.73Z"/>
    <path class="cls-1" d="M42.48,571.86s17.23,30.92,67.68,84.73c0,0-52.81-45.44-67.68-84.73Z"/>
    <path class="cls-1" d="M42.48,571.86s8.36,41.86,67.68,84.73c0,0-55.5-28.08-67.68-84.73Z"/>
    <path class="cls-1" d="M42.48,571.86s1.69,54.31,67.68,84.73"/>
    <path class="cls-3" d="M78.76,544.19c.84,17.62-20.22,26.66-32.94,27.05-12.72,.39-14.03-20.98-11.7-34.75,2.32-13.78-4.83-19.69,11.04-19.49,15.86,.2,32.77,9.58,33.61,27.2Z"/>
  </g>
  <g>
    <rect class="cls-2" x="-37.29" y="414.72" width="139.48" height="12.27" rx="2.17" ry="2.17" transform="translate(453.3 388.41) rotate(90)"/>
    <path class="cls-3" d="M91.99,449.78c.81,24.98-25.96,39.05-47.87,39.38-21.91,.33-13.88-14.14-10.57-28.9,3.31-14.77-12.61-50,9.47-50.08,22.08-.08,48.17,14.62,48.97,39.6Z"/>
    <path class="cls-1" d="M38.58,351.72s43.54,20.96,0,57.16c0,0,49.73-32.53,0-57.16Z"/>
    <path class="cls-4" d="M38.58,351.72s55.54,17.81,0,57.16c0,0,61.92-35.64,0-57.16Z"/>
    <path class="cls-4" d="M38.58,351.72s67.18,15.08,0,57.16c0,0,38.03-31.91,0-57.16Z"/>
    <path class="cls-4" d="M38.58,351.87s71.86,13.16,0,57.01"/>
  </g>
</svg>