<?xml version="1.0" encoding="utf-8"?>
<!-- Generator: Adobe Illustrator 27.0.0, SVG Export Plug-In . SVG Version: 6.00 Build 0)  -->
<svg version="1.1" id="Lag_1" xmlns="http://www.w3.org/2000/svg" xmlns:xlink="http://www.w3.org/1999/xlink" x="0px" y="0px"
	 viewBox="0 0 1957.8 2414.4" style="enable-background:new 0 0 1957.8 2414.4;" xml:space="preserve">
<style type="text/css">
	.st0{fill:#F0ECDA;stroke:#F0ECDA;stroke-miterlimit:10;}
	.st1{opacity:0.3;fill:#834733;stroke:#834733;stroke-miterlimit:10;enable-background:new    ;}
	.st2{fill:#834733;stroke:#834733;stroke-miterlimit:10;}
	.st3{fill:none;stroke:#834733;stroke-miterlimit:10;}
	.st4{fill:none;stroke:#834733;stroke-width:4;stroke-miterlimit:10;}
	.st5{fill:#F1ECDA;}
	.st6{fill:#F1ECDA;stroke:#F1ECDA;stroke-miterlimit:10;}
	.st7{fill:#F0ECDA;stroke:#F0ECDA;stroke-width:5;stroke-miterlimit:10;}
	.st8{fill:none;stroke:#F0ECDA;stroke-width:5;stroke-miterlimit:10;}
</style>
<path class="st0" d="M1010.4,2261.3c0-0.6,0-1.2,0-1.8c0-4,0-8.1,0-12.1c-0.5-1.2-0.5-2.6,0-3.8c-0.2-43.7-0.4-87.3-0.5-131
	c-0.1-16.1-0.1-32.3-0.2-48.4c-0.5-4.5-1-9.1-0.9-13.6c0.1-5.4,0.5-10.8,0.8-16.2c0-6.5,0-13-0.1-19.4c0-2.2-0.1-4.4-0.1-6.6
	c-0.2-3.6-0.2-7.1,0-10.7l-0.1-13.5c-0.1-2.4-0.2-4.7-0.2-7.1c-0.2-0.6-0.3-1.2-0.3-1.9c0.3-10.2-0.2-20.5,0.4-30.7
	c-0.1-13.7-0.1-27.4-0.2-41.1c-0.5-12.3-0.5-24.5-0.5-36.8v-0.3c0-10.8,0-21.7,0.2-32.5c-0.1-20.6-0.2-41.2-0.2-61.9
	c-0.1-28.7-0.2-57.5-3.2-86.1c-0.2-1.4-0.4-2.9-0.5-4.4c0-0.2,0-0.3,0-0.5c-0.7-6.2-1.6-12.3-2.3-18.5c-1.1-4.6-2.1-9.1-1.5-13.8
	c-0.9-10.6-1.1-21.2,0.7-31.7c1.8-11,5.4-22.5,8.7-34c0.5-2.2,1.1-4.5,1.8-6.6c6.4-23.9,9.4-47.1-10.4-63.7
	c-1.5-1.3-3.2-2.5-4.8-3.6c-6.4-3-12.7-5.9-19.2-8.3c-1-0.3-2.1-0.6-3.2-0.8c-6.8-1.6-13.6-2.8-20.6-3.6c-0.7-0.1-1.4-0.2-2.1-0.2
	c-0.2,0-0.3,0-0.5-0.1c-9.2-1-18.8-1.2-28-2.5c-4-0.1-7.9-0.2-11.7-0.9c-179.8-14.3-361.1-12.9-541.8-11.4
	c-67.3,0.5-134.6,1.1-201.9,1.6c-4.4,0-8.7,0.3-13,0.7c-5.4,1.7-11.1,2.6-16.7,3.6c-2.6,0.4-5.4,0.6-8.2,0.8
	c-7.5,1.9-14.8,4.4-21.8,7.3c-3.5,2.1-7.6,3.6-11.1,5.3c-4.1,2-8.6,5-13.1,6.7c-0.7,0.4-1.4,0.8-2.1,1.2c-7.3,4.3-14.1,10-20.1,16.4
	c-3.6,4.1-6.9,8.5-9.8,13.2c-0.2,0.3-0.4,0.6-0.5,0.9c-0.1,1-0.6,1.9-1.6,2.8c0,0,0,0.1-0.1,0.1c-2.3,4-4.4,8.2-6.3,12.4
	c-0.3,1.1-0.6,2.2-1,3.3c-1.8,5.9-2.9,12.2-4,18.3c-0.2,0.9-0.3,2-0.6,3.2c0.1,0.4,0.1,0.8,0.1,1.3c-0.2,8.8-2.3,17.4-2.7,26.2
	c0.3,4.7,0.5,9.3,0.5,14.1c0,0.3,0,0.7-0.1,1c1.5,36.1,3.4,72.2,4.9,108.4c0.1,1.2,0.2,2.4,0.3,3.6c0.1,0.7,0,1.3-0.1,1.9
	c0.3,7.4,0.5,14.7,0.8,22.1c0.3,11.5,0.7,22.9,1,34.4c0.4,5.3,0.5,10.4,0.4,15.7c1.9,84.8,2.2,169.7,0.7,254.5
	c0.1,5.8,0.5,12-0.2,17.9c0,0.2,0,0.5,0,0.8c0,2.3-0.3,4.6-0.6,6.9c-3.4,81.2-15.7,162.1-15.7,242.9c0,24,17.6,44.9,42.9,54.6
	c6.4,1.4,12.7,3.5,19.2,4.4c2.4,0.3,4.7,0.8,7.1,1.2c1.8,0.1,3.5,0.2,5.3,0.2h117.7c2-0.2,4-0.1,5.9,0h95.7c0.7-0.2,1.5-0.2,2.2,0
	h37.5c3.9-0.6,7.9-0.4,12-0.3c3.7,0.1,8.1-0.3,12.1,0.3H424c2-0.1,3.9-0.1,5.9,0h19.4c0.2,0,0.4,0,0.6,0h10.9c1,0,2.1,0,3.1,0h5.8
	c2.3-0.1,4.7-0.1,7,0h53.9c2.9-0.1,5.7-0.2,8.6-0.1c2.5,0.1,5.8-0.4,8.7,0.1h18.6c0.2,0,0.5-0.1,0.8,0c0.4-0.1,0.9-0.2,1.5-0.2
	c2.8,0,5.7,0.1,8.5,0.3h4.6c2.9-0.2,5.7-0.1,8.6,0h47.2c3.2-0.3,6.4-0.2,9.7-0.2c1,0,2,0.1,3,0.2h59.7c2.1-0.1,4.3-0.1,6.4,0H727
	c4.8-0.2,9.5-0.2,14.2,0h62.2c2.5-0.2,5-0.1,7.4,0h49.1c7.8-0.7,16-0.3,23.8-0.2c0.5,0,0.9,0.1,1.4,0.2h47.7
	c5.8,0,11.7-0.4,17.5-0.2c0.3,0,0.7,0.1,1,0.1c27.5-0.6,42.9-9.3,51.4-22.2c1.2-2.5,2.7-4.9,4-7.4c2.1-4.8,3.5-10,4.3-15.5
	c0.2-3.7,0.2-8.1,1.2-12c0.9-17.9-1.6-37.3-1.6-53.8C1010.4,2273.3,1010.4,2267.3,1010.4,2261.3L1010.4,2261.3L1010.4,2261.3z"/>
<path class="st0" d="M898.3,1521c0,21.9-4.1,77.9-43.9,43.4c-12.2-10.5-16.2-26.6-19.6-41.6c-12.8-55.8-25.6-111.6-38.4-167.4
	c-7.1-31.1-14.3-62.2-23.9-92.7c-24.2-76.4-63.9-148.1-110.7-215.1c-15.1-21.6-31.2-43-52.6-59.4s-49-27.5-76.9-25.3
	c-33.5,2.8-61.5,23.8-85.2,45.7c-144.2,133.5-205.3,326-221.5,513.4c-1.3,14.5-3.2,30.8-15.5,40c-32.4,24.4-38.3-25.4-38.3-41
	c0-329.7,162.6-597,363.2-597S898.3,1191.3,898.3,1521L898.3,1521L898.3,1521z"/>
<g>
	<path class="st1" d="M39.4,1569.2c-0.4,2.1-0.8,4.1-1.1,6.1c-0.2,0.9-0.3,2-0.6,3.2c0.1,0.4,0.1,0.8,0.1,1.3
		c-0.2,8.8-2.3,17.4-2.7,26.1c0.3,4.7,0.5,9.4,0.5,14.1c0,1.3-0.4,2.3-1,3.1v0.2c0.2,6.9,0,13.8,0.9,20.7c0.5,4.1,1,7.9,0.9,11.9
		c0.1,0.3,0.2,0.7,0.2,1.1c1,12.3-0.1,24.6,1.2,36.8c0.7,6.5,1.2,13.1,1.8,19.6c0.2,2.3,0.3,4.6,0.4,7c0,1,0.1,1.9,0.1,2.9
		c0.1,3.2,0.2,6.5,0.6,9.7c0.2,1.5-0.2,2.7-1,3.5c0,0.7,0.1,1.4,0.1,2.1c0.5,9.4,2,18.7,1.5,28.1c0,0.2,0,0.3,0,0.5
		c0.1,2.3,0,4.5,0,6.8c0,5.7,0.6,11.4,1,17c0.4,5.6,0.5,11,0.4,16.6c-0.1,2.3,0,4.7-0.4,7c0,0.3,0,0.6,0,0.9
		c4.3-18.2,8.7-36.5,12.2-63.7C59.7,1711.1,49.5,1631.7,39.4,1569.2L39.4,1569.2L39.4,1569.2z"/>
	<path class="st1" d="M105.4,1712.8c-0.6-101.8-17.1-167.4-29.4-202.2c-1.4,1.3-2.8,2.7-4.2,3.9c-2.5,2.2-5,4.2-7.3,6.6
		c-4.9,5-9.1,10.5-12.8,16.4c-0.2,0.3-0.4,0.6-0.6,0.9c-0.1,1-0.6,1.9-1.6,2.8c0,0,0,0.1-0.1,0.1c-0.5,0.8-0.9,1.6-1.4,2.4
		c29.8,139.1,18.9,162.6,7.7,287.8c-7.8,86.9-11.5,163.9-13.3,210.6c0.2,0.4,0.3,0.9,0.4,1.5c0.2,0.6,0.4,1.3,0.4,2
		c0,3.5-0.3,7-0.5,10.5c0.3,0.6,0.5,1.4,0.5,2.2c0,6.6,0.6,14.1-0.2,21c0,0.2,0,0.5,0,0.7c-0.1,4-0.7,7.9-1.2,11.9
		c0.1,2.5,0.1,5,0,7.5c-0.1,1.6-0.2,3.1-0.5,4.6c1.7,112.4-3.3,201.3-7.3,252.4c0.5,0.7,0.9,1.4,1.3,2.1c2.3,3.7,4.9,7.3,8.1,10.2
		c0.5,0.4,0.9,0.7,1.4,1.1c1,0.7,1.9,1.5,2.7,2.3c0.3,0.2,0.6,0.5,0.9,0.7c0.4-2.2,0.8-4.6,1.2-7.1c5.7-35.9,5.7-109.4,6.2-181.2
		c0.5-71.9,13.7-214,13.7-214C113,1751.9,105.5,1712.8,105.4,1712.8L105.4,1712.8L105.4,1712.8z"/>
	<path class="st1" d="M138,1486.8c-5.4,1-11.9,0.6-17.7,1.7l5.9,41.3l21.4-44.7C144.4,1485.6,141.2,1486.2,138,1486.8L138,1486.8
		L138,1486.8z"/>
	<path class="st1" d="M177.9,1486.1l-8.6-6c0,0-21.5,72.9-36.6,117c-12.2,35.7-22.2-62.8-25.5-101.8c-3.3,1.9-7.1,3.3-10.3,4.9
		c-1.8,0.9-3.7,2-5.7,3.1c5.9,35.7,17.8,101.5,27.9,113.8c14,17.1,8,55.5,8,55.5S141.7,1631.2,177.9,1486.1z"/>
	<path class="st1" d="M227.6,2162.9c1.6,5.3,0-5.9,0-5.9s-112.7-406.7-8.9-676.9h-26.8C191.8,1480.1,89.8,1701.1,227.6,2162.9
		L227.6,2162.9L227.6,2162.9z"/>
	<path class="st1" d="M134.6,1705.4c0,0-21.9,105.3-15.4,210.5c0,0-32.7,108-42.5,162c-9.8,54-7.8,86.4-8.8,161.9
		c0,0,19.4-176,66.8-313.1C134.6,1926.7,150,1793.8,134.6,1705.4L134.6,1705.4L134.6,1705.4z"/>
	<path class="st1" d="M104.6,2090.8c0,0,37.2-84.4,43.8-148.3s11.1,113.5,32.6,148.3c21.6,34.8-31.5-19.2-35.9-30.2
		C145.1,2060.6,147.6,2045,104.6,2090.8C104.6,2090.8,104.6,2090.8,104.6,2090.8z"/>
	<path class="st1" d="M62.5,2326.1c0,0,7.5-89.6,43.4-196.2c0,0,14.6-17.1,24.9-34.1c0,0,25.3,41.2,61,51.2s64.1,119.4,64.1,119.4
		s-55.6-110.3-114.5-118.4C141.4,2148,98.6,2189.6,62.5,2326.1L62.5,2326.1L62.5,2326.1z"/>
	<path class="st1" d="M81.5,2297c0,0,52.5-225.9,161.9,3.6C243.4,2300.6,141,2137.2,81.5,2297z"/>
	<path class="st1" d="M55.9,2376.1c0,0,72.9-248.6,225.4,10C281.3,2386.1,124.6,2207.4,55.9,2376.1z"/>
	<path class="st1" d="M82.2,2387.6c2.2,0.5,4.5,1,6.8,1.3c3.2,0.4,6.3,1.2,9.6,1.4c1.4,0.1,2.9,0.1,4.3,0.2
		c39.6-72.3,96.4-26.6,121.5-0.4c1.9,0.1,3.7,0.2,5.5,0.2c3.7,0.1,7.5-0.1,11.3,0.2C150.5,2250.1,98.8,2345.4,82.2,2387.6
		L82.2,2387.6L82.2,2387.6z"/>
	<path class="st1" d="M323.1,2390.3c0.1,0,0.2,0.1,0.4,0.1h0c-183-717.6-56.4-910.4-56.4-910.4h-23.8
		c-138.5,284.6,43.7,815.1,78.4,910.1C322.2,2390.2,322.7,2390.2,323.1,2390.3z"/>
	<path class="st1" d="M372.5,2390c3.5,0.1,7.7-0.3,11.6,0.2c-17.2-53.2-75.4-245.3-102.5-486.8c-32.1-285.2,32.1-423.3,32.1-423.3
		h-23c-58.3,97.3-52.6,292.2-52.6,292.2c7,275.5,100.1,551.8,123.7,617.8C365.2,2389.7,368.8,2389.9,372.5,2390L372.5,2390
		L372.5,2390z"/>
	<path class="st1" d="M409.6,2390.4c1.5,0,3,0,4.4,0.1c2.4,0,4.9,0,7.4-0.1c3.5-0.1,6.9-0.3,10.2,0c-22.6-31-71.2-110.6-75.2-226.1
		c-5.3-151.1-29.1-290.9-29.1-290.9c3-245.2,43.1-393.4,43.1-393.4h-35c0,0-62.5,243-46.1,312.4s24.1,208.2,24.1,208.2
		C311.3,2164.6,386.1,2339.6,409.6,2390.4L409.6,2390.4L409.6,2390.4z"/>
	<path class="st1" d="M451.8,2390.4c1.5,0.1,3.1,0.2,4.6,0.2c3.9-0.7,7.9-0.3,12-0.4c3.2-0.1,6.6-0.2,10,0.1
		c-18.8-45.9-74.6-189.4-70.4-265.4c5-91.2-6.3-205.3-6.3-205.3c-31.3-163.8-18.8-199-18.8-199c25.1-68.4,42-124.9,60.1-175.8
		s76.9-64.9,76.9-64.9h-54.3c-33.8,14.6-60.2,83.1-60.2,83.1c-6.3-33.2,5-83.1,5-83.1H383c-3.8,91-7.5,96.2-7.5,96.2
		c-22.6,133.3-6.3,266.8-6.3,266.8l3.8,209.4C376,2222.7,431.2,2349.1,451.8,2390.4L451.8,2390.4L451.8,2390.4z"/>
	<path class="st1" d="M572.2,1480.1c0,0-137.9,166.1-117.8,172.3c0,0-9.5,10.2-18,74.8c-8.5,64.6-11.9,83.4-17.8,95.1
		c-5.9,11.7-16.1-15-16.1-15s-0.9-79.8,14.4-134.7c15.3-54.9,27.2-71.8,62-125.2s77.3-67.3,77.3-67.3L572.2,1480.1L572.2,1480.1z"/>
	<path class="st1" d="M739.7,1480.1c-184.5,161.7-162.2,201.4-186.1,225.3c-23.9,23.9-92.2,355-66.2,116.8s191.9-342.1,191.9-342.1
		h-82.7c-124.1,109.1-153.4,325.1-153.4,325.1c-50.8,392,42.6,542.4,80,585.5c5.4-0.2,10.7-0.6,16.2-0.4c2.3,0.1,5.3-0.3,8,0
		c-83.5-198.1-66.9-294.4-66.9-294.4c54.1-401.4,307-615.7,307-615.7L739.7,1480.1L739.7,1480.1L739.7,1480.1z"/>
	<path class="st1" d="M1108.6,1494.1c-0.1-0.7-0.2-1.3-0.3-2l0,0v3.4C1108.3,1495,1108.4,1494.5,1108.6,1494.1L1108.6,1494.1
		L1108.6,1494.1z"/>
	<path class="st1" d="M977.4,1500.6c-1-0.3-2.1-0.6-3.1-0.8c-6.8-1.6-13.6-2.8-20.6-3.6c-10-1.3-20.4-1.4-30.5-2.8
		c-4.6-0.1-9.2-0.3-13.5-1.3c-2.7-0.2-5.1-0.4-6.6-0.6c-2-0.2-4.5-1.3-4.8-3.7c-0.4-2.6-0.6-5.1-0.7-7.6h-5.2
		c-163.8,56.5-195.6,159.3-195.6,159.3s-33.4,113.2-63.6,152.6s-50.9,86.8-50.9,86.8c-15.9,60.5-39.8,155.2-39.8,155.2
		c-49.2,204.4,2.6,317.7,26.2,356c0.1,0,0.2,0,0.2,0c3.6-0.1,7.1,0.2,10.7,0.4h0.7c5.6-0.5,11.2,0,16.8,0.1
		c-30.7-53.8-45.4-199-35-226.2c11.6-30.3,45.9-135.5,45.9-135.5c3.4-107.9,114.3-302.6,114.3-302.6c71.2-161,185-208.1,273.5-217.8
		C989.6,1505.6,983.6,1502.9,977.4,1500.6L977.4,1500.6L977.4,1500.6z"/>
	<path class="st1" d="M1103.2,1583.8v-1.4c-0.1,1.1-0.2,2.2-0.3,3.4c0,0.8,0,1.6,0,2.4C1103,1586.7,1103.1,1585.2,1103.2,1583.8z"/>
	<path class="st1" d="M850,1652.6c-53.4,19.3-73.1,52.8-73.1,52.8c-36.5,85.8-106.8,294.8-106.8,294.8
		c-81.8,240-50,352.9-32.7,390.1c3.3-0.4,6.6-0.3,10-0.2c3,0.1,6.3,0.7,9.4,0.7c1.3-0.1,2.5-0.2,3.8-0.3
		c-12.2-33.2-24.7-114.5-3.1-170.2c26.7-68.8,39.3-139.9,39.3-139.9C761,1795,903,1711.1,1006,1689.5c-1.8-6.4-1.2-13.2-2.2-20
		c-1-7.2-4.1-14.2-3-21.4c-0.6-11.1-0.1-22,1.7-33.1c1-6.2,2.4-12.5,3.8-18.6c0.5-2.3,1.5-4.5,2.6-6.8c0.6-4.9,1.5-9.8,3.2-14.3
		C911.5,1586.4,850,1652.6,850,1652.6L850,1652.6L850,1652.6z"/>
	<path class="st1" d="M1009.2,1789c-112.1,30.9-208.3,131.6-221.8,183.6c-17.8,68.7-40.4,129.7-40.4,129.7
		c-62.8,129.1-43,247.6-33.2,288c4.1,0,8.2,0.3,12.3,0.1c5.9-0.3,11.5-0.3,17.3,0.1c-46.2-315.8,138.2-450.5,265.1-505
		c-0.1-6.3-0.1-12.7-0.1-19v-0.3c0-13.6,0-27.2,0.4-40.8C1009.2,1813.2,1009.7,1801.1,1009.2,1789L1009.2,1789L1009.2,1789z"/>
	<path class="st1" d="M1009,1944.8c-24,5-41.7,7.4-41.7,7.4c14.7,8.4,28.5,14.1,41.4,17.8C1008.8,1961.6,1008.6,1953.2,1009,1944.8
		L1009,1944.8L1009,1944.8z"/>
	<path class="st1" d="M1008.7,2050.6c0.1-7.5,0.9-14.9,0.9-22.4c0-6.6-0.2-13.1-0.3-19.7c-0.2-4.9-0.2-9.8,0.4-14.8
		c-13.2-2.1-23.9-0.7-29.8,8.7c-21.7,34.7-88.7,43.6-88.7,43.6l-41.6,49.7c-123.2,48.4-65.4,239.8-46,294.5c3.1-0.2,6.1,0,9.2,0.1
		c0.7,0,1.3,0.1,1.9,0.1c1.1-0.1,2.2-0.2,3.2-0.1c-4.7-18.1-10.2-57.6-8.6-141.2c2.8-138.6,61.6-97.6,61.6-97.6l56.2,22.9
		c0,0,72.1,2.3,67.9-32.1c-4.2-34.4-54-18.3-83.7-16.1c-29.7,2.3-13.3-24-13.3-24s59.6-35.6,102.6-19.6c3,1.1,6.2,2,9.5,2.6
		c0-5.1,0.1-10.2,0.2-15.3C1009.5,2063.6,1008.6,2057.1,1008.7,2050.6L1008.7,2050.6L1008.7,2050.6z"/>
	<path class="st1" d="M1010.8,2242.7c0-0.1,0.1-0.3,0.4-0.6c0-0.1,0-0.3,0-0.5c-0.1-0.7,0-1.5,0-2.1c0-1.8-0.2-3.5-0.3-5.3
		c-0.3-4.9-0.2-9.8-0.2-14.6c-0.1-9.2-0.3-18.4-0.4-27.6c-34.3,38.5-43,39.8-43,39.8c-130.5-36.6-120,110.7-113.3,158.6
		c0.6,0,1.3,0,1.9,0.1c0.8,0,1.6,0,2.3,0c7.8-0.9,15.9-0.5,23.7-0.4c2-35,10.1-118.8,40.9-107.9c38.8,13.8,67.9,0,67.9,0
		c6.6-8.9,13.1-16.9,19.5-24.2c0.1-3,0.5-5.9,0.8-8.9C1009.9,2247.4,1009.4,2244.7,1010.8,2242.7L1010.8,2242.7L1010.8,2242.7z"/>
	<path class="st1" d="M925.4,2390.9c2.3-0.4,4.5-0.6,7.3-0.6c5.2,0,10.3-0.3,15.5-0.2c6.8-22.2,30.3-29.2,30.3-29.2
		c8.3,3.2,16.3,5.7,24,7.5c1.3-2.9,3.1-5.6,4.5-8.5c1.5-3.2,2.6-6.5,3.5-9.9c0.2-1.6,0.3-3.2,0.4-4.8c0.2-3.3,0.2-7.1,0.9-10.6
		C950.1,2327.2,931.1,2368.3,925.4,2390.9L925.4,2390.9L925.4,2390.9z"/>
</g>
<path class="st2" d="M118.8,1838.1h178.1c0.5,0,0.9,0.4,0.9,0.9v16.3c0,0.5-0.4,0.9-0.9,0.9H118.8c-0.5,0-0.9-0.4-0.9-0.9V1839
	C117.9,1838.5,118.3,1838.1,118.8,1838.1z"/>
<path class="st2" d="M120,2033.6h176.6c0.5,0,0.9,0.4,0.9,0.9v16.3c0,0.5-0.4,0.9-0.9,0.9h-178c-0.5,0-0.9-0.4-0.9-0.9v-14.9
	C117.7,2034.6,118.7,2033.5,120,2033.6L120,2033.6L120,2033.6z"/>
<path class="st3" d="M297.8,1854c0,0-165.7,39-179.9,181.5C117.9,2035.5,130.1,1911.4,297.8,1854z"/>
<path class="st3" d="M117.9,2035.5c0,0,14.3-111.3,179.9-181.5C297.8,1854,155.7,1918.8,117.9,2035.5z"/>
<path class="st3" d="M117.9,2035.5c0,0,40.1-99.5,179.9-181.5C297.8,1854,185.8,1929.5,117.9,2035.5z"/>
<path class="st3" d="M297.8,1855.1c0,0-38.7,165.3-179.9,179.5C117.9,2034.5,241,2022.4,297.8,1855.1z"/>
<path class="st3" d="M117.9,2034.5c0,0,78.1-98.1,179.9-179.5L117.9,2034.5z"/>
<path class="st3" d="M117.9,2034.5c0,0,67.7-47.8,179.9-179.5C297.8,1855.1,238.3,1950.9,117.9,2034.5z"/>
<path class="st3" d="M117.9,2034.5c0,0,114.5-59.9,179.9-179.5C297.8,1855.1,260.3,1963.6,117.9,2034.5z"/>
<path class="st3" d="M117.9,2034.5c0,0,121.3-30.2,179.9-179.5"/>
<path class="st2" d="M331.8,1837h135.5c0.8,0,1.4,0.6,1.4,1.4v15.3c0,0.8-0.6,1.4-1.4,1.4H331.8c-0.8,0-1.4-0.6-1.4-1.4v-15.3
	C330.4,1837.6,331,1837,331.8,1837z"/>
<rect x="330.4" y="1854.1" class="st2" width="6.5" height="198.6"/>
<path class="st2" d="M335.7,2034.6h131.6c0.8,0,1.5,0.7,1.5,1.5v15.2c0,0.8-0.7,1.5-1.5,1.5H335.7c-0.8,0-1.5-0.7-1.5-1.5v-15.2
	C334.3,2035.3,334.9,2034.6,335.7,2034.6z"/>
<path class="st3" d="M468.6,1935.8c0,0-66.1-38.3-134.5,0C334.1,1935.8,393,1905.5,468.6,1935.8z"/>
<path class="st3" d="M334.3,1934.7c0,0,69.1-24.1,134.5,2.1C468.8,1936.9,412.3,1919.5,334.3,1934.7z"/>
<path class="st3" d="M334.3,1935.8c0,0,66.1,38.3,134.5,0C468.8,1935.8,409.9,1966.1,334.3,1935.8z"/>
<path class="st3" d="M334.3,1934.7c0,0,71.5-6.4,134.5,2.1L334.3,1934.7z"/>
<path class="st3" d="M334.3,1934.7c0,0,57.9,25.4,134.5,2.1C468.8,1936.9,409,1952,334.3,1934.7z"/>
<path class="st3" d="M334.3,1934.7c0,0,80.8,9.9,134.5,2.1"/>
<path class="st2" d="M788.5,2052.8c22-71.9,55.3-145.4,82.2-216.2c0.2-0.6,0.5-0.7,1.3-0.5c0.7,0.2,2.9,1,3.6,1.3
	c0.7,0.3,0.8,0.6,0.6,1.2c-26.9,70.8-58.4,142.9-81.7,214.5c-0.2,0.6-0.5,0.7-1.3,0.7s-3.2,0-4,0
	C788.4,2053.7,788.3,2053.4,788.5,2052.8z"/>
<path class="st2" d="M872.3,1838.2c27.2,71.5,59.3,141.6,81.7,214.7c0.3,1,0.7,1,1.8,0.9c5.9-0.3,12.2-0.1,18.2-0.4
	c1.1-0.1,1.3-0.8,1-1.8c-24.9-74.6-55.8-146.8-83.8-220.2c-0.4-1-0.9-1.1-1.9-0.8c-5.3,1.8-10.8,3.8-16.1,5.8
	C872.2,1836.8,871.9,1837.2,872.3,1838.2L872.3,1838.2L872.3,1838.2z"/>
<path class="st2" d="M871.4,1834.6c0.3-1,1-2.8,1.4-4c0.2-0.6,0.8-0.8,1.3-0.8c3.5,0,10.9,0,13.3,0s-0.2,0,1.3,0
	c0.5,0.1,1.4,0.2,1.8,0.7c0.3,0.4,0.1,0.8,0.3,1.2c-5,2.3-10.1,4.3-15.2,6.1c-0.5,0.2-0.7,0.2-1.3-0.2c-0.6-0.3-1.7-0.9-2.3-1.4
	C871.5,1835.8,871.1,1835.6,871.4,1834.6L871.4,1834.6L871.4,1834.6z"/>
<path class="st3" d="M828.8,1960.6h91.7C920.6,1960.6,879.6,1953.9,828.8,1960.6z"/>
<path class="st3" d="M828.8,1960.6c0,0,39.5-12.7,91.7,0C920.6,1960.6,871.9,1942.7,828.8,1960.6z"/>
<path class="st3" d="M828.8,1960.6c0,0,38-24,91.7,0C920.6,1960.6,874.7,1930.5,828.8,1960.6z"/>
<path class="st3" d="M920.4,1959.7c0,0-37.4,24.7-91.7,1.6C828.7,1961.4,875.2,1990.6,920.4,1959.7L920.4,1959.7L920.4,1959.7z"/>
<path class="st3" d="M828.8,1960.6c0,0,38.8,5.8,91.7,0C920.6,1960.6,872.7,1971.7,828.8,1960.6z"/>
<path class="st3" d="M828.8,1960.6c0,0,41.7,17,91.7,0"/>
<path class="st2" d="M641.2,1830.2h19.5c0.5,0,0.8,0.4,0.8,0.8v221.5c0,0.5-0.4,0.8-0.8,0.8h-19.5c-0.5,0-0.8-0.4-0.8-0.8V1831
	C640.4,1830.6,640.7,1830.2,641.2,1830.2z"/>
<ellipse class="st2" cx="778.1" cy="2052.9" rx="0.6" ry="0.6"/>
<path class="st3" d="M660.8,1919.6c0,0,112.4,17.2,117.3,132.7C778.1,2052.3,775.4,1952.6,660.8,1919.6L660.8,1919.6L660.8,1919.6z"
	/>
<path class="st3" d="M661.3,1919.3c0,0-8,101.6,116.4,133.3C777.7,2052.6,670,2026.6,661.3,1919.3L661.3,1919.3L661.3,1919.3z"/>
<path class="st3" d="M661.3,1919.3c0,0,100.5,31.8,116.4,133.3C777.7,2052.6,761.2,1968.9,661.3,1919.3L661.3,1919.3L661.3,1919.3z"
	/>
<path class="st3" d="M661.3,1919.3c0,0,84.8,49.7,116.4,133.3C777.7,2052.6,749.3,1988.4,661.3,1919.3L661.3,1919.3L661.3,1919.3z"
	/>
<path class="st3" d="M661.3,1919.3c0,0,86.8,83,116.4,133.3L661.3,1919.3L661.3,1919.3L661.3,1919.3z"/>
<path class="st3" d="M661.3,1919.3c0,0,29.6,48.6,116.4,133.3C777.7,2052.6,686.9,1981.1,661.3,1919.3L661.3,1919.3L661.3,1919.3z"
	/>
<path class="st3" d="M661.3,1919.3c0,0,14.4,65.8,116.4,133.3C777.7,2052.6,682.2,2008.4,661.3,1919.3L661.3,1919.3L661.3,1919.3z"
	/>
<path class="st3" d="M661.3,1919.3c0,0,2.9,85.4,116.4,133.3"/>
<path class="st4" d="M723.7,1875.8c1.5,27.7-34.8,41.9-56.7,42.5s-24.1-33-20.1-54.7s-8.3-31,19-30.7
	C693.2,1833.3,722.3,1848.1,723.7,1875.8z"/>
<path class="st2" d="M504.2,1832.1h16.8c1.2,0,2.2,1,2.2,2.2v215.1c0,1.2-1,2.2-2.2,2.2h-16.8c-1.2,0-2.2-1-2.2-2.2v-215.1
	C502,1833.1,503,1832.1,504.2,1832.1z"/>
<path class="st4" d="M614.9,1987.3c1.4,39.3-44.7,61.4-82.3,61.9c-37.7,0.5-23.9-22.2-18.2-45.5c5.7-23.2-21.7-78.6,16.3-78.8
	C568.7,1924.9,613.5,1948,614.9,1987.3L614.9,1987.3L614.9,1987.3z"/>
<path class="st3" d="M523.1,1833.1c0,0,74.9,33,0,89.9C523.1,1923,608.6,1871.8,523.1,1833.1z"/>
<path class="st3" d="M523.1,1833.1c0,0,95.5,28,0,89.9C523.1,1923,629.6,1866.9,523.1,1833.1z"/>
<path class="st3" d="M523.1,1833.1c0,0,115.6,23.7,0,89.9C523.1,1923,588.5,1872.8,523.1,1833.1z"/>
<path class="st3" d="M523.1,1833.3c0,0,123.6,20.7,0,89.7"/>
<g>
	<path class="st5" d="M806.2,183.9c0,0-21.4-105-174.9-123.5c0,0-3.6,105,87.5,166.7c0,0-45.1-74.4-48.2-117.3
		C670.6,109.8,688.4,85.1,806.2,183.9L806.2,183.9L806.2,183.9z"/>
	<path class="st6" d="M649.1,418.6h69.6C718.7,418.6,702.7,492.7,649.1,418.6z"/>
	<path class="st6" d="M469.1,867.7c0,0-95-201.1,75-93c0,0,107.5-34.6,117.5,60.5c10,95.2-109.5,101.6-109.5,101.6l34.5-69.2
		c0,0,17.5-31.9-7.5-27.9c-25,4.1-26.7,60.3-26.7,60.3s-0.8,21.6-20.8,36.8C511.6,952.1,469.1,867.7,469.1,867.7z"/>
	<path class="st0" d="M840.3,195.6l-47.4-69.7c0,0,189.7-157.9,514.5,45.1c0,0,203.9,127.2,251.3,207.1
		c47.4,80,163.6,127.1,163.6,127.1s-163.6-4.1-441-209.2C1281.3,296.1,1075.1,82.8,840.3,195.6L840.3,195.6L840.3,195.6z"/>
	<path class="st6" d="M840.3,195.6c0,0-62.4,172.8,117.7,503.4c0,0-107.5-341.1-48.6-527.9c0,0-39.5,7.3-50.6,129.3
		C858.9,300.4,847.9,264.6,840.3,195.6L840.3,195.6L840.3,195.6z"/>
	<path class="st6" d="M1000.1,171.1c0,0,23.2,16-55.1,167.7c0,0-38.2,128.7,29.2,300.2c0,0-28.6-210-5.4-261.9
		c23.2-51.9,35.8-43.6,65-124.2c0,0,7.8-57.7,10.4-81.9S1000.1,171.1,1000.1,171.1L1000.1,171.1L1000.1,171.1z"/>
	<path class="st6" d="M1117.1,189.6c0,0,24.3-35.9-116.9,201.1c0,0-25.8,142,0,352.1l31,34c0,0-23.3-185.1,13.2-279.9
		c0,0,23.4-169.3,39-176.1c15.7-6.8,72.5-113.6,72.5-113.6L1117.1,189.6L1117.1,189.6L1117.1,189.6z"/>
	<path class="st5" d="M1192,227.2c0,0-72.1,73.9-77.3,207.9s13.1,150.1,0,264s-28.7,141.8-28.7,141.8v28.5c0,0,73.1-70.2,83.5-126.5
		c10.4-56.3-10.4-177.9-2.6-213.1c0,0-23.5-102.9,10.4-172.9c33.9-70,50-106.1,50-106.1L1192,227.2L1192,227.2L1192,227.2z"/>
	<path class="st5" d="M1281.3,296.1c0,0-106.7,144.3-12.7,342.9c0,0,7.8,83.5-23.5,115.1s-47,49-67.9,86.6
		c-20.9,37.6-47,54.5-31.3,98l23.5,32.1c0,0,1.9-85.8,111.9-173.8c0,0,81.2-67.7,55.1-191.9c0,0,51.3-151,55.7-233.5l-53-28.3
		c0,0,7.8,59-26.1,117.5c0,0-31.3,13.3-33.9-32.9c-2.6-46.2,32.1-110.2,32.1-110.2L1281.3,296.1L1281.3,296.1L1281.3,296.1z"/>
	<path class="st6" d="M1457.3,409.9c0,0-46.1,112.4-43.8,183.6c2.3,71.2-21.3,164.1-21.3,164.1s-47.2,28.2-35.8,83.3
		c0,0-16,47.9-73.1,98s-43.4,131.7-43.4,131.7l26.9,31c0,0-10.9-87,101.1-179.9c0,0,80.8-53.4,89.5-187.8
		c8.7-134.4,28.6-273.3,48.4-298.7S1457.3,409.9,1457.3,409.9L1457.3,409.9L1457.3,409.9z"/>
	<path class="st6" d="M1562.4,460.8c0,0-55.2,87.2-32.3,350.1c0,0,21.3,128.5-137.9,215.5c0,0-26.6-15.8-38.1,96.9
		c0,0-18.3,25.7-32,29.7l20.6,31.6c0,0,41.8-27.7,49.5-47.4c7.6-19.8-8-37.6,50.1-79.1c58.1-41.5,218.1-45.6,160.9-575.8
		L1562.4,460.8L1562.4,460.8L1562.4,460.8z"/>
	<path class="st6" d="M1666.2,495.8c0,0,75.6,456.5-50.8,513.8c0,0-16.7,7.2-12.1,60.9c0,0-209.5,68.7-211,203.5h37.3
		c0,0-20.5-92.4,110.9-130c0,0-83.4,62.3-81.2,130h38.8c0,0-12.1-53.7,190.5-203.5s0-574.7,0-574.7L1666.2,495.8L1666.2,495.8z"/>
	<path class="st6" d="M1744.9,517.3h33.7l21.8,30.9v101.5C1800.4,649.8,1767.4,529.4,1744.9,517.3L1744.9,517.3L1744.9,517.3z"/>
	<path class="st6" d="M1800.4,1001.6c0,0-20.6,15.8-27.8,47.4c-7.2,31.6-27.8,83-123.8,135.4c0,0-77.7,19.8-102.8,89.5h50.3
		c0,0,42.5-45,204.1-161.6V1001.6L1800.4,1001.6L1800.4,1001.6z"/>
	<path class="st6" d="M1635.2,1273.9h68.6c0,0,21.9,0.5,96.7-39.1v-39.5C1800.4,1195.3,1712.9,1249.8,1635.2,1273.9z"/>
	<path class="st6" d="M712.1,253.9l11.5-11c0,0,76,11.8,74.8,87.3c-1.1,75.5-53.8,91.7,135.8,380.5l-9.9,14.2
		c0,0-134.9-143.8-145.1-264.1c-10.2-120.3-95.2-164.7-95.2-164.7l10.2-18.3c0,0,56.7,15.7,64.6,43.1c7.9,27.5,7.9-24.8,7.9-24.8
		S753.9,254.6,712.1,253.9L712.1,253.9L712.1,253.9z"/>
	<path class="st5" d="M640.6,371.3l8.5-17c0,0,117.1-28.7,111.9,80.7c-5.2,109.4,17,161.5,17,161.5S889.5,734.6,894,738
		c4.4,3.4-10,17.7-10,17.7s-94.2-77.6-133.5-167s-32.5-73.9-66.6-83.3c-34.2-9.5-68.2-60.9-68.2-60.9l9.2-16.5
		c0,0,32.1,62.3,83.7,56.1c51.6-6.3,15.7-91.1,15.7-91.1S690.3,354.3,640.6,371.3L640.6,371.3L640.6,371.3z"/>
	<path class="st5" d="M599.4,505.3l8.9-16.2c0,0,10.8,25,75.6,40.6c0,0,48.2,22.3,54.5,88.5s122.5,149,122.5,149l-21.7,9.5
		c0,0-133.9-102.9-120.5-166.2c13.4-63.3-69.6-70.6-69.6-70.6L599.4,505.3L599.4,505.3z"/>
	<path class="st5" d="M552.4,560.8l13.8-12.6c0,0,102.1-16.5,126.3,84.7c24.2,101.2,116.5,157.5,116.5,157.5l-16.1,11
		c0,0-108.8-91.6-130.7-149s-139.3-29.8-139.3-29.8v-18.8c0,0,70.2-19.9,99.5-6.6c29.3,13.2-15.3-28.7-15.3-28.7L552.4,560.8
		L552.4,560.8L552.4,560.8z"/>
	<path class="st5" d="M483.3,664.6l20.4-21c0,0,147.4-20.5,180.2,81.3c0,0,39.2,65.5,78.8,86.4l-23,11.3c0,0-90.2-75.2-97-116.1
		C636,665.5,483.3,664.6,483.3,664.6L483.3,664.6L483.3,664.6z"/>
	<path class="st5" d="M450.1,724.9l14-17.3c0,0,49.8-1.8,77.8,17.3c0,0,11.5,13.4,85.5,0c0,0,37-9.2,75.3,115.8h-18.8
		c0,0-29.7-83.4-47.5-85.1c-17.9-1.7-43.5-16.6-95.7-12.9C488.6,746.5,450.1,724.9,450.1,724.9L450.1,724.9L450.1,724.9z"/>
</g>
<rect x="1800.4" y="23.8" class="st7" width="0" height="1250.1"/>
<line class="st8" x1="1800.4" y1="1273.9" x2="1077.9" y2="1273.9"/>
</svg>
