<?xml version="1.0" encoding="UTF-8"?>
<svg id="Lag_1" data-name="Lag 1" xmlns="http://www.w3.org/2000/svg" viewBox="0 0 506.8 143.09">
  <defs>
    <style>
      .cls-1 {
        stroke-width: .75px;
      }

      .cls-1, .cls-2, .cls-3, .cls-4, .cls-5 {
        stroke: #f0ecda;
        stroke-miterlimit: 10;
      }

      .cls-1, .cls-3, .cls-4, .cls-5 {
        fill: none;
      }

      .cls-2 {
        fill: #f0ecda;
      }

      .cls-3 {
        stroke-width: 4px;
      }

      .cls-5 {
        stroke-width: .5px;
      }
    </style>
  </defs>
  <g>
    <rect class="cls-2" x="4.55" y="3.06" width="104.56" height="11.54" rx=".9" ry=".9"/>
    <path class="cls-2" d="M6.76,127.34H108.03c.5,0,.91,.41,.91,.91v9.71c0,.5-.41,.91-.91,.91H5.31c-.5,0-.91-.41-.91-.91v-8.26c0-1.31,1.06-2.37,2.37-2.37Z"/>
    <path class="cls-4" d="M109.11,13.22S12.8,38.04,4.55,128.6c0,0,7.08-78.91,104.56-115.38Z"/>
    <path class="cls-4" d="M4.55,128.6S12.88,57.86,109.11,13.22c0,0-82.58,41.16-104.56,115.38Z"/>
    <path class="cls-4" d="M4.55,128.6S27.86,65.35,109.11,13.22c0,0-65.11,47.97-104.56,115.38Z"/>
    <path class="cls-4" d="M109.11,13.86S86.62,118.96,4.55,127.96c0,0,71.51-7.73,104.56-114.1Z"/>
    <path class="cls-4" d="M4.55,127.96S49.93,65.58,109.11,13.86L4.55,127.96Z"/>
    <path class="cls-4" d="M4.55,127.96S43.89,97.6,109.11,13.86c0,0-34.59,60.96-104.56,114.1Z"/>
    <path class="cls-4" d="M4.55,127.96S71.13,89.9,109.11,13.86c0,0-21.81,69.04-104.56,114.1Z"/>
    <path class="cls-4" d="M4.55,127.96S75.08,108.76,109.11,13.86"/>
  </g>
  <g>
    <rect class="cls-2" x="128.06" y="2.38" width="80.44" height="11.54" rx="1.43" ry="1.43"/>
    <rect class="cls-2" x="66.8" y="74.54" width="126.28" height="3.75" transform="translate(206.35 -53.52) rotate(90)"/>
    <rect class="cls-2" x="130.31" y="128.02" width="78.19" height="11.54" rx="1.47" ry="1.47"/>
    <path class="cls-1" d="M208.41,65.2s-38.43-24.38-78.19,0c0,0,34.2-19.26,78.19,0Z"/>
    <path class="cls-1" d="M130.31,64.52s40.18-15.32,78.19,1.35c0,0-32.84-11.04-78.19-1.35Z"/>
    <path class="cls-1" d="M130.31,65.2s38.43,24.38,78.19,0c0,0-34.2,19.26-78.19,0Z"/>
    <path class="cls-1" d="M130.31,64.52s41.57-4.1,78.19,1.35l-78.19-1.35Z"/>
    <path class="cls-1" d="M130.31,64.52s33.64,16.13,78.19,1.35c0,0-34.72,9.63-78.19-1.35Z"/>
    <path class="cls-1" d="M130.31,64.52s46.97,6.32,78.19,1.35"/>
  </g>
  <g>
    <path class="cls-2" d="M393.98,139.43c12.81-44.54,32.12-90.1,47.78-133.99,.14-.38,.3-.44,.74-.31,.43,.13,1.7,.62,2.11,.81,.41,.19,.49,.34,.36,.72-15.62,43.85-33.94,88.58-47.51,132.95-.12,.38-.28,.42-.74,.43s-1.84,.03-2.31,0c-.47-.03-.53-.22-.42-.6Z"/>
    <path class="cls-2" d="M442.7,6.45c15.79,44.32,34.47,87.73,47.51,133.02,.18,.62,.41,.62,1.05,.59,3.45-.17,7.08-.03,10.56-.26,.64-.04,.76-.49,.57-1.1-14.48-46.2-32.45-90.95-48.71-136.48-.22-.62-.54-.71-1.13-.5-3.1,1.12-6.29,2.36-9.33,3.63-.56,.23-.74,.52-.53,1.11Z"/>
    <path class="cls-2" d="M442.17,4.22c.17-.6,.6-1.76,.82-2.46,.11-.34,.44-.52,.77-.51,2.04,.01,6.33,0,7.76,0,1.43,0-.12,0,.75-.02,.31,.04,.83,.15,1.07,.44,.21,.25,.08,.49,.18,.75-2.88,1.41-5.86,2.68-8.85,3.77-.32,.12-.41,.1-.75-.1-.34-.2-1-.57-1.36-.85-.36-.28-.57-.42-.4-1.03Z"/>
    <path class="cls-5" d="M417.42,82.27h53.33s-23.81-4.14-53.33,0Z"/>
    <path class="cls-5" d="M417.42,82.27s22.96-7.89,53.33,0c0,0-28.28-11.07-53.33,0Z"/>
    <path class="cls-5" d="M417.42,82.27s22.07-14.87,53.33,0c0,0-26.69-18.61-53.33,0Z"/>
    <path class="cls-5" d="M470.67,81.77s-21.76,15.29-53.32,1.02c0,0,27.06,18.1,53.32-1.02Z"/>
    <path class="cls-5" d="M417.42,82.27s22.52,3.62,53.33,0c0,0-27.82,6.92-53.33,0Z"/>
    <path class="cls-5" d="M417.42,82.27s24.22,10.52,53.33,0"/>
  </g>
  <g>
    <rect class="cls-2" x="245.36" y="65.27" width="138.04" height="12.27" rx=".82" ry=".82" transform="translate(385.78 -242.98) rotate(90)"/>
    <ellipse class="cls-1" cx="388.31" cy="140.07" rx=".36" ry=".35"/>
    <path class="cls-4" d="M320.14,57.67s65.32,10.61,68.18,82.05c0,0-1.57-61.66-68.18-82.05Z"/>
    <path class="cls-4" d="M320.43,57.49s-4.64,62.85,67.68,82.42c0,0-62.63-16.07-67.68-82.42Z"/>
    <path class="cls-4" d="M320.43,57.49s58.39,19.63,67.68,82.42c0,0-9.58-51.79-67.68-82.42Z"/>
    <path class="cls-1" d="M320.43,57.49s49.29,30.71,67.68,82.42c0,0-16.5-39.67-67.68-82.42Z"/>
    <path class="cls-1" d="M320.43,57.49s50.48,51.31,67.68,82.42l-67.68-82.42Z"/>
    <path class="cls-1" d="M320.43,57.49s17.23,30.08,67.68,82.42c0,0-52.81-44.2-67.68-82.42Z"/>
    <path class="cls-1" d="M320.43,57.49s8.36,40.72,67.68,82.42c0,0-55.5-27.31-67.68-82.42Z"/>
    <path class="cls-1" d="M320.43,57.49s1.69,52.83,67.68,82.42"/>
    <path class="cls-3" d="M356.7,30.57c.84,17.14-20.22,25.93-32.94,26.31-12.72,.38-14.03-20.41-11.7-33.81,2.32-13.4-4.83-19.16,11.04-18.96,15.86,.2,32.77,9.32,33.61,26.46Z"/>
  </g>
  <g>
    <rect class="cls-2" x="167.06" y="64.35" width="136.78" height="12.27" rx="2.17" ry="2.17" transform="translate(305.94 -164.97) rotate(90)"/>
    <path class="cls-3" d="M294.99,98.85c.81,24.5-25.96,38.29-47.87,38.62-21.91,.33-13.88-13.86-10.57-28.34,3.31-14.48-12.61-49.03,9.47-49.11,22.08-.08,48.17,14.33,48.97,38.83Z"/>
    <path class="cls-1" d="M241.59,2.68s43.54,20.55,0,56.05c0,0,49.73-31.9,0-56.05Z"/>
    <path class="cls-4" d="M241.59,2.68s55.54,17.46,0,56.05c0,0,61.92-34.95,0-56.05Z"/>
    <path class="cls-4" d="M241.59,2.68s67.18,14.79,0,56.05c0,0,38.03-31.29,0-56.05Z"/>
    <path class="cls-4" d="M241.59,2.84s71.86,12.91,0,55.9"/>
  </g>
</svg>