<?xml version="1.0" encoding="UTF-8"?>
<svg id="Lag_1" data-name="Lag 1" xmlns="http://www.w3.org/2000/svg" viewBox="0 0 1621.8 1988.6">
  <defs>
    <style>
      .cls-1, .cls-2 {
        fill: #f0ecdc;
      }

      .cls-2, .cls-3, .cls-4, .cls-5, .cls-6, .cls-7 {
        stroke-miterlimit: 10;
      }

      .cls-2, .cls-6 {
        stroke: #f0ecdc;
      }

      .cls-3, .cls-4, .cls-5, .cls-7 {
        stroke: #7b4a38;
      }

      .cls-3, .cls-7 {
        fill: #7b4a38;
      }

      .cls-4 {
        stroke-width: 4px;
      }

      .cls-4, .cls-5, .cls-6 {
        fill: none;
      }

      .cls-6 {
        stroke-width: 7px;
      }

      .cls-7 {
        isolation: isolate;
        opacity: .3;
      }
    </style>
  </defs>
  <path class="cls-2" d="M894,1857.4v-11.6c-.4-1-.5-2.2,0-3.2-.2-36.3-.3-72.6-.5-109-.1-13.4-.1-26.8-.2-40.2-.5-3.8-.9-7.5-.8-11.3,.1-4.5,.5-9,.7-13.5,0-5.4,0-10.8-.1-16.2,0-1.8-.1-3.7-.1-5.5-.1-3-.2-5.9,0-8.9l-.1-11.3c-.1-2-.1-3.9-.2-5.9-.2-.5-.3-1-.3-1.6,.2-8.5-.1-17.1,.3-25.5-.1-11.4-.1-22.8-.1-34.2-.4-10.2-.4-20.4-.4-30.6v-.2c0-9,0-18,.2-27-.1-17.2-.1-34.3-.2-51.5-.1-23.9-.2-47.8-2.9-71.6-.2-1.2-.3-2.4-.4-3.7v-.4c-.6-5.1-1.4-10.3-2.1-15.4-1-3.8-1.9-7.6-1.3-11.5-.8-8.8-.9-17.6,.6-26.3,1.6-9.1,4.8-18.7,7.6-28.3,.4-1.9,.9-3.7,1.6-5.5,5.6-19.9,8.3-39.1-9.1-53-1.3-1.1-2.8-2.1-4.3-3-5.6-2.5-11.2-4.9-17-6.9-.9-.2-1.9-.5-2.8-.7-6-1.3-12-2.3-18.2-3-.6-.1-1.2-.1-1.8-.2h-.4c-8.2-.8-16.5-1-24.7-2.1-3.5,0-7-.2-10.3-.8-158.5-11.9-318.3-10.7-477.7-9.5-59.3,.4-118.7,.9-178,1.3-3.9,0-7.7,.2-11.4,.5-4.8,1.4-9.8,2.2-14.7,3-2.3,.4-4.7,.5-7.3,.6-6.6,1.6-13,3.6-19.2,6.1-3.1,1.7-6.7,3-9.8,4.4-3.6,1.7-7.5,4.1-11.5,5.6-.6,.3-1.2,.7-1.8,1-6.4,3.6-12.5,8.3-17.7,13.6-3.2,3.4-6.1,7.1-8.6,11-.2,.2-.3,.5-.5,.8-.1,.8-.5,1.6-1.4,2.3l-.1,.1c-2.1,3.3-3.9,6.8-5.6,10.3-.3,.9-.6,1.9-.8,2.7-1.6,4.9-2.6,10.1-3.5,15.2-.1,.8-.3,1.7-.5,2.7,.1,.3,.1,.7,.1,1.1-.1,7.3-2,14.5-2.4,21.8,.3,3.9,.4,7.8,.4,11.7,0,.3,0,.6-.1,.8,1.4,30,3,60.1,4.3,90.1,.1,1,.2,2,.3,3,.1,.6,0,1.1-.1,1.6,.2,6.1,.5,12.2,.7,18.4,.3,9.5,.6,19.1,.8,28.6,.3,4.4,.4,8.7,.3,13,1.7,70.5,1.9,141.1,.6,211.7,.1,4.8,.4,10-.2,14.8v.7c0,1.9-.3,3.8-.5,5.7-3,67.5-13.8,134.8-13.8,202,0,20,15.5,37.3,37.8,45.4,5.7,1.2,11.2,2.9,16.9,3.7,2.1,.3,4.2,.7,6.3,1,1.5,.1,3.1,.1,4.7,.1h103.8c1.7-.1,3.5-.1,5.2,0h84.3c.6-.1,1.3-.1,2,0h33c3.4-.5,7-.3,10.6-.2,3.3,.1,7.1-.2,10.7,.2h34.7c1.7-.1,3.5-.1,5.2,0h35.1c2,0,4.1-.1,6.2,0h47.5c2.5-.1,5.1-.2,7.6-.1,2.2,.1,5.1-.3,7.6,.1h17.1c.4-.1,.8-.2,1.3-.2,2.5,0,5,.1,7.5,.2h4c2.5-.1,5-.1,7.6,0h41.7c2.8-.3,5.7-.2,8.6-.2,.9,0,1.8,.1,2.7,.2h52.6c1.9-.1,3.8,0,5.6,0h9.3c4.2-.2,8.3-.2,12.5,0h54.8c2.2-.1,4.4-.1,6.6,0h43.3c6.9-.6,14.1-.2,21-.2,.4,0,.8,.1,1.2,.2h42.1c5.1,0,10.3-.4,15.4-.1,.3,0,.6,0,.8,.1,24.2-.5,37.9-7.7,45.3-18.5,1-2.1,2.4-4.1,3.5-6.2,1.8-4,3-8.3,3.8-12.9,.1-3.1,.2-6.7,1.1-10,.8-14.9-1.4-31-1.4-44.8-.2-4.9-.2-9.9-.2-14.9h0Z"/>
  <path class="cls-2" d="M795.2,1241.7c0,18.2-3.6,64.8-38.7,36.1-10.7-8.8-14.3-22.1-17.3-34.6-11.3-46.4-22.5-92.8-33.8-139.2-6.3-25.8-12.6-51.7-21.1-77.1-21.3-63.5-56.3-123.1-97.6-178.8-13.3-17.9-27.5-35.8-46.4-49.4-18.9-13.7-43.2-22.9-67.8-21-29.5,2.3-54.2,19.8-75.1,38-127.2,111-181,271.2-195.3,426.9-1.1,12.1-2.8,25.6-13.6,33.3-28.5,20.3-33.8-21.1-33.8-34.1,0-274.2,143.4-496.5,320.2-496.5s320.3,222.2,320.3,496.4h0Z"/>
  <g>
    <path class="cls-7" d="M37.9,1281.8c-.3,1.7-.7,3.4-1,5.1-.1,.8-.3,1.7-.5,2.7,.1,.3,.1,.7,.1,1.1-.1,7.3-2,14.5-2.4,21.7,.3,3.9,.4,7.8,.4,11.8,0,1.1-.4,1.9-.9,2.6v.1c.2,5.7,0,11.5,.8,17.2,.5,3.4,.9,6.6,.8,9.9,.1,.3,.1,.6,.2,.9,.9,10.2-.1,20.4,1.1,30.6,.6,5.4,1,10.9,1.5,16.3,.2,1.9,.3,3.9,.3,5.8,0,.8,.1,1.6,.1,2.4,.1,2.7,.2,5.4,.5,8.1,.2,1.3-.2,2.2-.9,2.9,0,.6,.1,1.2,.1,1.7,.4,7.8,1.7,15.5,1.3,23.4v.4c.1,1.9,0,3.8,0,5.7,0,4.7,.5,9.5,.9,14.2,.4,4.6,.5,9.2,.3,13.8-.1,1.9,0,3.9-.4,5.8v.8c3.8-15.2,7.7-30.4,10.7-53,4.9-34-4.1-100-13-152h0Z"/>
    <path class="cls-7" d="M96.1,1401.3c-.5-84.7-15.1-139.2-25.9-168.2-1.3,1.1-2.5,2.2-3.7,3.2-2.2,1.8-4.4,3.5-6.4,5.5-4.3,4.1-8,8.8-11.3,13.7-.2,.3-.3,.5-.5,.8-.1,.8-.5,1.6-1.4,2.3l-.1,.1c-.4,.7-.8,1.4-1.2,2,26.2,115.7,16.7,135.2,6.8,239.3-6.9,72.3-10.2,136.3-11.7,175.2,.2,.4,.3,.8,.3,1.2,.2,.5,.3,1,.3,1.7,0,2.9-.2,5.8-.4,8.8,.3,.5,.4,1.1,.4,1.9,0,5.5,.6,11.7-.2,17.5v.6c-.1,3.3-.6,6.6-1.1,9.9,.1,2.1,.1,4.1,0,6.2-.1,1.3-.2,2.6-.4,3.8,1.5,93.5-2.9,167.4-6.4,209.9,.4,.6,.8,1.1,1.1,1.7,2.1,3.1,4.3,6,7.1,8.5,.4,.3,.8,.6,1.3,.9,.9,.6,1.6,1.2,2.3,1.9,.3,.2,.6,.4,.8,.6,.3-1.8,.7-3.8,1-5.9,5-29.9,5-90.9,5.4-150.7,.4-59.8,12.1-178,12.1-178,38.5-182,31.9-214.4,31.8-214.4h0Z"/>
    <path class="cls-7" d="M124.9,1213.2c-4.8,.8-10.5,.5-15.6,1.4l5.2,34.3,18.9-37.2c-2.9,.6-5.7,1.1-8.5,1.5h0Z"/>
    <path class="cls-7" d="M160,1212.7l-7.6-5s-19,60.6-32.2,97.3c-10.7,29.6-19.5-52.2-22.5-84.7-2.9,1.6-6.2,2.7-9.1,4.1-1.6,.7-3.3,1.6-5,2.5,5.2,29.7,15.7,84.4,24.6,94.7,12.4,14.2,7,46.1,7,46.1,0,0,12.9-34.3,44.8-155Z"/>
    <path class="cls-7" d="M203.8,1775.5c1.4,4.4,0-4.9,0-4.9,0,0-99.4-338.2-7.9-562.9h-23.7c.1,0-89.9,183.8,31.6,567.8h0Z"/>
    <path class="cls-7" d="M121.8,1395.1s-19.3,87.5-13.6,175.1c0,0-28.8,89.8-37.5,134.7s-6.9,71.8-7.8,134.7c0,0,17.1-146.3,58.9-260.4,0-.1,13.6-110.6,0-184.1h0Z"/>
    <path class="cls-7" d="M95.4,1715.5s32.8-70.2,38.6-123.3c5.8-53.1,9.8,94.4,28.7,123.3,19,28.9-27.8-16-31.7-25.1,.1,0,2.3-12.9-35.6,25.1h0Z"/>
    <path class="cls-7" d="M58.3,1911.3s6.6-74.5,38.3-163.2c0,0,12.9-14.2,22-28.4,0,0,22.3,34.3,53.8,42.6s56.5,99.3,56.5,99.3c0,0-49-91.7-100.9-98.4-.1,0-37.9,34.6-69.7,148.1h0Z"/>
    <path class="cls-7" d="M75,1887.1s46.3-187.8,142.8,3c0-.1-90.3-135.9-142.8-3Z"/>
    <path class="cls-7" d="M52.4,1952.8s64.2-206.8,198.7,8.3c.1,0-138-148.5-198.7-8.3Z"/>
    <path class="cls-7" d="M75.7,1962.5c2,.4,4,.8,6,1.1,2.8,.4,5.6,1,8.4,1.2,1.3,.1,2.5,.1,3.8,.2,34.9-60.1,85-22.1,107.2-.3,1.6,.1,3.3,.2,4.8,.2,3.2,0,6.6-.1,9.9,.2-80-117-125.5-37.8-140.1-2.6h0Z"/>
    <path class="cls-7" d="M288.1,1964.7c.1,0,.2,0,.3,.1h0c-161.3-596.8-49.7-757.1-49.7-757.1h-21c-122.1,236.7,38.6,677.8,69.1,756.9,.5-.1,.9,0,1.3,.1Z"/>
    <path class="cls-7" d="M331.5,1964.4c3.1,.1,6.8-.2,10.2,.2-15.2-44.3-66.4-204-90.4-404.9-28.3-237.2,28.3-352.1,28.3-352.1h-20.3c-51.4,80.9-46.3,243-46.3,243,6.2,229.1,88.2,458.9,109.1,513.8,3.1-.2,6.2,0,9.4,0h0Z"/>
    <path class="cls-7" d="M364.3,1964.7c1.3,0,2.6,0,3.9,.1,2.2,0,4.3,0,6.5-.1,3-.1,6-.2,9,0-20-25.8-62.8-92-66.3-188-4.7-125.6-25.7-241.9-25.7-241.9,2.7-203.9,38-327.2,38-327.2h-30.8s-55.1,202.1-40.7,259.8c14.5,57.7,21.3,173.2,21.3,173.2-1.8,136.3,64.1,281.9,84.8,324.1h0Z"/>
    <path class="cls-7" d="M401.5,1964.8c1.3,.1,2.7,.2,4.1,.2,3.4-.5,7-.2,10.6-.3,2.8-.1,5.9-.2,8.8,.1-16.6-38.2-65.7-157.5-62.1-220.7,4.4-75.9-5.5-170.7-5.5-170.7-27.6-136.2-16.6-165.5-16.6-165.5,22.1-56.9,37-103.9,53-146.2,16-42.3,67.8-54,67.8-54h-47.9c-29.8,12.2-53,69.1-53,69.1-5.5-27.6,4.4-69.1,4.4-69.1h-24.3c-3.3,75.7-6.6,80-6.6,80-19.9,110.9-5.5,221.9-5.5,221.9l3.3,174.1c2.7,141.6,51.4,246.7,69.5,281.1h0Z"/>
    <path class="cls-7" d="M507.7,1207.7s-121.5,138.1-103.9,143.3c0,0-8.4,8.5-15.9,62.2s-10.5,69.4-15.7,79.1-14.2-12.5-14.2-12.5c0,0-.7-66.3,12.7-112,13.5-45.7,24-59.7,54.6-104.1,30.7-44.4,68.1-56,68.1-56h14.3Z"/>
    <path class="cls-7" d="M655.3,1207.7c-162.7,134.5-143,167.5-164.1,187.4-21,19.9-81.3,295.2-58.4,97.1,22.9-198.1,169.2-284.5,169.2-284.5h-72.9c-109.4,90.7-135.3,270.3-135.3,270.3-44.8,326,37.6,451.1,70.6,486.9,4.7-.1,9.5-.5,14.2-.4,2,.1,4.6-.2,7,0-73.6-164.7-58.9-244.8-58.9-244.8,47.7-333.8,270.6-512.1,270.6-512.1l-42,.1h0Z"/>
    <path class="cls-7" d="M980.5,1219.3c-.1-.6-.2-1.1-.3-1.7h0v2.8c.1-.3,.2-.7,.3-1.1h0Z"/>
    <path class="cls-7" d="M864.9,1224.7c-.9-.2-1.8-.5-2.8-.7-6-1.3-12-2.3-18.2-3-8.8-1.1-18-1.2-26.9-2.4-4.1-.1-8.1-.2-11.9-1.1-2.4-.1-4.5-.4-5.8-.5-1.8-.2-3.9-1.1-4.2-3.1-.3-2.1-.5-4.2-.6-6.3h-4.6c-144.4,47-172.5,132.5-172.5,132.5,0,0-29.4,94.1-56.1,126.9s-44.9,72.2-44.9,72.2c-14,50.3-35.1,129.1-35.1,129.1-43.3,170,2.3,264.2,23.1,296h.2c3.1,0,6.3,.1,9.4,.3h.6c4.9-.4,9.8,0,14.8,.1-27-44.7-40-165.5-30.8-188.2,10.2-25.2,40.4-112.7,40.4-112.7,3-89.7,100.8-251.7,100.8-251.7,62.8-133.9,163.1-173.1,241.1-181.1-5.2-2.1-10.5-4.4-16-6.3h0Z"/>
    <path class="cls-7" d="M975.8,1293.9v-1.2c-.1,.9-.2,1.9-.3,2.8v2c.1-1.2,.2-2.4,.3-3.6Z"/>
    <path class="cls-7" d="M752.5,1351.2c-47.1,16-64.4,43.9-64.4,43.9-32.2,71.4-94.2,245.2-94.2,245.2-72.1,199.6-44.1,293.5-28.8,324.5,2.9-.3,5.8-.2,8.8-.2,2.6,0,5.5,.6,8.3,.6,1.1-.1,2.2-.2,3.3-.3-10.8-27.6-21.8-95.2-2.7-141.5,23.5-57.2,34.7-116.3,34.7-116.3,56.6-237.4,181.8-307.2,272.6-325.1-1.6-5.4-1.1-11-1.9-16.6-.9-6-3.6-11.8-2.6-17.8-.5-9.2-.1-18.3,1.5-27.5,.9-5.2,2.1-10.4,3.4-15.5,.5-1.9,1.4-3.8,2.3-5.6,.6-4.1,1.4-8.1,2.8-11.9-88.8,9-143.1,64.1-143.1,64.1h0Z"/>
    <path class="cls-7" d="M892.9,1464.6c-98.8,25.7-183.7,109.4-195.6,152.7-15.7,57.2-35.6,107.8-35.6,107.8-55.4,107.4-37.9,205.9-29.2,239.5,3.6,0,7.2,.2,10.8,.1,5.2-.2,10.1-.2,15.2,.1-40.7-262.7,121.8-374.6,233.8-420-.1-5.3-.1-10.5-.1-15.8v-.2c0-11.3,0-22.6,.4-33.9,.3-10.2,.8-20.2,.3-30.3h0Z"/>
    <path class="cls-7" d="M892.8,1594.2c-21.1,4.2-36.8,6.2-36.8,6.2,12.9,7,25.1,11.7,36.5,14.8,.1-7.1-.1-14.1,.3-21h0Z"/>
    <path class="cls-7" d="M892.4,1682.1c.1-6.2,.8-12.4,.8-18.6,0-5.5-.2-10.9-.3-16.4-.2-4.1-.2-8.2,.3-12.3-11.6-1.8-21.1-.6-26.3,7.3-19.1,28.9-78.2,36.2-78.2,36.2l-36.7,41.4c-108.6,40.2-57.7,199.4-40.6,244.9,2.7-.2,5.4,0,8.1,.1,.6,0,1.1,0,1.7,.1,1-.1,1.9-.2,2.8-.1-4.1-15.1-9-47.9-7.6-117.4,2.4-115.2,54.3-81.2,54.3-81.2l49.5,19.1s63.5,1.9,59.9-26.7c-3.7-28.6-47.7-15.3-73.8-13.3-26.1,1.9-11.7-20-11.7-20,0,0,52.5-29.6,90.4-16.3,2.7,.9,5.5,1.7,8.4,2.2,0-4.2,.1-8.5,.2-12.7-.4-5.4-1.3-10.8-1.2-16.3h0Z"/>
    <path class="cls-7" d="M894.3,1841.9c0-.1,.1-.2,.4-.5v-.4c-.1-.6,0-1.2,0-1.8,0-1.5-.2-2.9-.3-4.4-.3-4-.1-8.1-.2-12.2-.1-7.6-.2-15.3-.3-22.9-30.2,32-37.9,33.1-37.9,33.1-115-30.5-105.7,92.1-99.9,131.9h3.8c6.8-.7,14-.4,20.9-.3,1.8-29.1,8.9-98.8,36.1-89.7,34.2,11.4,59.9,0,59.9,0,5.8-7.4,11.5-14.1,17.2-20.1,.1-2.5,.4-4.9,.7-7.4-1.2-1.4-1.6-3.6-.4-5.3h0Z"/>
    <path class="cls-7" d="M819.1,1965.1c2-.4,4-.5,6.4-.5,4.5,0,9.1-.3,13.6-.2,6-18.5,26.7-24.3,26.7-24.3,7.3,2.7,14.4,4.8,21.2,6.3,1.1-2.4,2.8-4.7,3.9-7.1,1.3-2.6,2.3-5.4,3.1-8.2,.2-1.3,.3-2.6,.4-4,.1-2.7,.2-5.9,.8-8.8-54.4-6.1-71.1,28.1-76.1,46.8h0Z"/>
  </g>
  <path class="cls-3" d="M108,1505.4h157c.4,0,.8,.3,.8,.7v13.6c0,.4-.4,.7-.8,.7H108c-.4,0-.8-.3-.8-.7v-13.6c0-.4,.3-.7,.8-.7Z"/>
  <path class="cls-3" d="M109,1668h155.7c.4,0,.8,.3,.8,.8v13.6c0,.4-.4,.8-.8,.8H107.7c-.4,0-.8-.3-.8-.8v-12.4c0-1.2,1-2,2.1-2h0Z"/>
  <path class="cls-5" d="M265.7,1518.7s-146.1,32.5-158.6,150.9c.1,0,10.8-103.2,158.6-150.9Z"/>
  <path class="cls-5" d="M107.2,1669.6s12.6-92.5,158.6-150.9c-.1,0-125.3,53.8-158.6,150.9Z"/>
  <path class="cls-5" d="M107.2,1669.6s35.3-82.7,158.6-150.9c-.1,0-98.8,62.7-158.6,150.9Z"/>
  <path class="cls-5" d="M265.7,1519.5s-34.1,137.5-158.6,149.3c.1,0,108.5-10.1,158.6-149.3Z"/>
  <path class="cls-5" d="M107.2,1668.8s68.8-81.6,158.6-149.3l-158.6,149.3Z"/>
  <path class="cls-5" d="M107.2,1668.8s59.7-39.7,158.6-149.3c-.1,0-52.5,79.8-158.6,149.3Z"/>
  <path class="cls-5" d="M107.2,1668.8s101-49.8,158.6-149.3c-.1,0-33.2,90.3-158.6,149.3Z"/>
  <path class="cls-5" d="M107.2,1668.8s107-25.1,158.6-149.3"/>
  <path class="cls-3" d="M295.7,1504.5h119.5c.7,0,1.3,.5,1.3,1.2v12.7c0,.7-.6,1.2-1.3,1.2h-119.5c-.7,0-1.3-.5-1.3-1.2v-12.7c.1-.7,.6-1.2,1.3-1.2Z"/>
  <rect class="cls-3" x="294.5" y="1518.8" width="5.7" height="165.2"/>
  <path class="cls-3" d="M299.2,1668.9h116c.7,0,1.3,.5,1.3,1.2v12.6c0,.7-.6,1.2-1.3,1.2h-116c-.7,0-1.3-.5-1.3-1.2v-12.6c0-.7,.6-1.2,1.3-1.2Z"/>
  <path class="cls-5" d="M416.3,1586.7s-58.3-31.9-118.6,0c.1,0,51.9-25.2,118.6,0Z"/>
  <path class="cls-5" d="M297.9,1585.8s60.9-20,118.6,1.8c0,0-49.8-14.5-118.6-1.8Z"/>
  <path class="cls-5" d="M297.9,1586.7s58.3,31.9,118.6,0c0,0-51.9,25.2-118.6,0Z"/>
  <path class="cls-5" d="M297.9,1585.8s63-5.4,118.6,1.8l-118.6-1.8Z"/>
  <path class="cls-5" d="M297.9,1585.8s51,21.1,118.6,1.8c0,0-52.7,12.6-118.6-1.8Z"/>
  <path class="cls-5" d="M297.9,1585.8s71.2,8.3,118.6,1.8"/>
  <path class="cls-3" d="M698.3,1684c19.4-59.8,48.7-120.9,72.5-179.8,.2-.5,.5-.6,1.1-.4,.7,.2,2.6,.8,3.2,1.1,.6,.3,.7,.5,.5,1-23.7,58.9-51.5,118.9-72,178.4-.2,.5-.4,.6-1.1,.6h-3.5c-.7-.2-.8-.4-.7-.9Z"/>
  <path class="cls-3" d="M772.2,1505.5c23.9,59.5,52.3,117.7,72.1,178.5,.3,.8,.6,.8,1.6,.8,5.2-.2,10.7,0,16-.3,1-.1,1.2-.6,.9-1.5-22-62-49.2-122.1-73.9-183.2-.3-.8-.8-.9-1.7-.7-4.7,1.5-9.5,3.2-14.2,4.9-.8,.3-1.1,.7-.8,1.5h0Z"/>
  <path class="cls-3" d="M771.4,1502.5c.3-.8,.9-2.4,1.2-3.3,.2-.5,.7-.7,1.2-.7h11.8c2.2,0-.2,0,1.1,0,.5,0,1.3,.2,1.6,.6,.3,.3,.1,.7,.3,1-4.4,1.9-8.9,3.6-13.4,5.1-.5,.2-.6,.1-1.1-.1-.5-.3-1.5-.8-2.1-1.1-.5-.5-.8-.7-.6-1.5h0Z"/>
  <path class="cls-5" d="M733.9,1607.3h80.9s-36.1-5.6-80.9,0Z"/>
  <path class="cls-5" d="M733.9,1607.3s34.8-10.6,80.9,0c0,0-42.9-14.9-80.9,0Z"/>
  <path class="cls-5" d="M733.9,1607.3s33.5-20,80.9,0c0,0-40.5-25-80.9,0Z"/>
  <path class="cls-5" d="M814.6,1606.6s-33,20.5-80.9,1.4c.1-.1,41.1,24.2,80.9-1.4h0Z"/>
  <path class="cls-5" d="M733.9,1607.3s34.2,4.9,80.9,0c0,0-42.2,9.3-80.9,0Z"/>
  <path class="cls-5" d="M733.9,1607.3s36.7,14.1,80.9,0"/>
  <path class="cls-3" d="M586.3,1499.5v184.3c0,.4-.3,.7-.7,.7h-17.2c-.4,0-.7-.3-.7-.7v-184.3c0-.4,.3-.7,.7-.7h17.2c.4,.1,.7,.4,.7,.7Z"/>
  <circle class="cls-3" cx="689.2" cy="1684" r=".5"/>
  <path class="cls-5" d="M585.8,1573.2s99.1,14.3,103.4,110.3c0,0-2.4-82.9-103.4-110.3h0Z"/>
  <path class="cls-5" d="M586.2,1573s-7,84.5,102.6,110.8c0,0-94.9-21.6-102.6-110.8h0Z"/>
  <path class="cls-5" d="M586.2,1573s88.6,26.4,102.6,110.8c0,0-14.5-69.6-102.6-110.8h0Z"/>
  <path class="cls-5" d="M586.2,1573s74.8,41.3,102.6,110.8c0,0-25-53.3-102.6-110.8h0Z"/>
  <path class="cls-5" d="M586.2,1573s76.6,69,102.6,110.8l-102.6-110.8h0Z"/>
  <path class="cls-5" d="M586.2,1573s26.1,40.5,102.6,110.8c0,0-80-59.4-102.6-110.8h0Z"/>
  <path class="cls-5" d="M586.2,1573s12.7,54.8,102.6,110.8c0,0-84.1-36.7-102.6-110.8h0Z"/>
  <path class="cls-5" d="M586.2,1573s2.6,71,102.6,110.8"/>
  <path class="cls-4" d="M641.2,1536.8c1.3,23-30.7,34.9-50,35.4s-21.3-27.4-17.7-45.5c3.5-18-7.3-25.8,16.7-25.5,24.1,.2,49.7,12.5,51,35.6Z"/>
  <path class="cls-3" d="M464.3,1502.2v178.9c0,1-.9,1.8-1.9,1.8h-14.8c-1.1,0-1.9-.8-1.9-1.8v-178.9c0-1,.9-1.8,1.9-1.8h14.8c1.1,0,1.9,.8,1.9,1.8Z"/>
  <path class="cls-4" d="M545.3,1629.5c1.2,32.7-39.4,51.1-72.6,51.5s-21-18.5-16-37.8-19.1-65.4,14.4-65.5c33.4-.1,73,19.1,74.2,51.8h0Z"/>
  <path class="cls-5" d="M464.3,1501.2s66,27.4,0,74.8c0,0,75.4-42.6,0-74.8Z"/>
  <path class="cls-5" d="M464.3,1501.2s84.2,23.3,0,74.8c0,0,93.9-46.6,0-74.8Z"/>
  <path class="cls-5" d="M464.3,1501.2s101.9,19.7,0,74.8c0,0,57.7-41.7,0-74.8Z"/>
  <path class="cls-5" d="M464.3,1501.4s109,17.2,0,74.6"/>
  <g>
    <path class="cls-1" d="M713.9,129.7s-18.9-87.3-154.2-102.7c0,0-3.1,87.3,77.1,138.7,0,0-39.8-61.9-42.5-97.6,.1,0,15.8-20.5,119.6,61.6h0Z"/>
    <path class="cls-2" d="M575.5,324.9h61.4c-.1,0-14.2,61.6-61.4,0Z"/>
    <path class="cls-2" d="M416.7,698.4s-83.8-167.3,66.1-77.3c0,0,94.8-28.8,103.6,50.4,8.8,79.1-96.5,84.5-96.5,84.5l30.4-57.6s15.4-26.6-6.6-23.2c-22,3.4-23.5,50.1-23.5,50.1,0,0-.7,18-18.4,30.6-17.6,12.6-55.1-57.5-55.1-57.5Z"/>
    <path class="cls-2" d="M744,139.4l-41.8-58s167.2-131.3,453.6,37.5c0,0,179.8,105.7,221.6,172.3,41.8,66.6,144.2,105.8,144.2,105.8,0,0-144.2-3.4-388.8-174,0,0-181.8-177.4-388.8-83.6h0Z"/>
    <path class="cls-2" d="M744,139.4s-55,143.7,103.8,418.7c0,0-94.8-283.7-42.8-439,0,0-34.8,6-44.6,107.5,0,0-9.7-29.8-16.4-87.2h0Z"/>
    <path class="cls-2" d="M884.9,119.1s20.4,13.3-48.6,139.4c0,0-33.7,107,25.7,249.7,0,0-25.2-174.6-4.8-217.8,20.5-43.2,31.6-36.3,57.3-103.3,0,0,6.9-48,9.2-68.1,2.4-20.1-38.8,.1-38.8,.1h0Z"/>
    <path class="cls-2" d="M988,134.4s21.5-29.9-103.1,167.3c0,0-22.7,118.1,0,292.8l27.3,28.2s-20.5-153.9,11.6-232.8c0,0,20.6-140.8,34.4-146.4,13.8-5.6,63.9-94.5,63.9-94.5l-34.1-14.6h0Z"/>
    <path class="cls-1" d="M1054.1,165.7s-63.6,61.5-68.2,172.9c-4.6,111.4,11.5,124.8,0,219.5s-25.3,117.9-25.3,117.9v23.7s64.4-58.3,73.6-105.2-9.2-147.9-2.3-177.2c0,0-20.7-85.6,9.2-143.8,29.9-58.2,44.1-88.2,44.1-88.2l-31.1-19.6h0Z"/>
    <path class="cls-1" d="M1132.8,223s-94.1,120-11.2,285.2c0,0,6.9,69.5-20.7,95.7-27.6,26.3-41.4,40.8-59.8,72s-41.4,45.4-27.6,81.5l20.7,26.7s1.7-71.3,98.7-144.6c0,0,71.6-56.3,48.6-159.6,0,0,45.2-125.6,49.1-194.2l-46.8-23.6s6.9,49-23,97.7c0,0-27.6,11-29.9-27.4s28.3-91.7,28.3-91.7l-26.4-17.7h0Z"/>
    <path class="cls-2" d="M1288,317.6s-40.7,93.5-38.6,152.7c2,59.2-18.8,136.4-18.8,136.4,0,0-41.6,23.4-31.5,69.2,0,0-14.1,39.9-64.5,81.5s-38.3,109.5-38.3,109.5l23.7,25.8s-9.6-72.3,89.1-149.6c0,0,71.2-44.4,78.9-156.2,7.7-111.8,25.2-227.3,42.7-248.4,17.4-21.1-42.7-20.9-42.7-20.9h0Z"/>
    <path class="cls-2" d="M1380.6,360s-48.7,72.5-28.5,291.1c0,0,18.8,106.9-121.6,179.2,0,0-23.5-13.1-33.6,80.6,0,0-16.1,21.4-28.2,24.7l18.1,26.3s36.9-23,43.6-39.5c6.7-16.4-7.1-31.2,44.2-65.8,51.2-34.5,192.3-37.9,141.9-478.8l-35.9-17.8h0Z"/>
    <path class="cls-2" d="M1472.1,389.1s66.6,379.6-44.8,427.3c0,0-14.7,5.9-10.7,50.6,0,0-184.7,57.1-186.1,169.3h32.9s-18.1-76.9,97.7-108.1c0,0-73.6,51.8-71.5,108.1h34.3s-10.6-44.6,167.9-169.3,0-477.9,0-477.9h-19.7Z"/>
    <path class="cls-2" d="M1541.5,407h29.7l19.2,25.7v84.4s-29.1-100.1-48.9-110.1h0Z"/>
    <path class="cls-2" d="M1590.4,809.8s-18.1,13.1-24.5,39.5c-6.3,26.3-24.5,69-109.1,112.6,0,0-68.5,16.5-90.7,74.4h44.3s37.5-37.4,179.9-134.4v-92.1h.1Z"/>
    <path class="cls-2" d="M1444.8,1036.2h60.4s19.3,.4,85.2-32.5v-32.9c0,.1-77.1,45.3-145.6,65.4Z"/>
    <path class="cls-2" d="M631,188l10.1-9.1s67,9.8,66,72.6c-1,62.8-47.5,76.3,119.7,316.4l-8.8,11.8s-118.9-119.6-127.9-219.6-83.9-137-83.9-137l9-15.2s50,13,57,35.9c7,22.8,7-20.6,7-20.6,0,0-11.4-34.7-48.2-35.2h0Z"/>
    <path class="cls-1" d="M568,285.6l7.5-14.1s103.2-23.9,98.6,67.1c-4.6,91,15,134.3,15,134.3,0,0,98.3,114.8,102.2,117.7,3.9,2.8-8.8,14.7-8.8,14.7,0,0-83.1-64.6-117.7-138.9-34.6-74.4-28.6-61.4-58.7-69.3-30.1-7.9-60.1-50.7-60.1-50.7l8.1-13.7s28.3,51.8,73.8,46.6c45.5-5.2,13.8-75.8,13.8-75.8,0,0-29.9-32-73.7-17.9h0Z"/>
    <path class="cls-1" d="M531.6,397l7.9-13.5s9.6,20.8,66.7,33.8c0,0,42.5,18.5,48.1,73.6s108,123.9,108,123.9l-19.1,7.9s-118.1-85.6-106.3-138.3-61.4-58.7-61.4-58.7l-43.9-28.7h0Z"/>
    <path class="cls-1" d="M490.2,443.2l12.2-10.5s90-13.7,111.4,70.4,102.7,131,102.7,131l-14.2,9.2s-95.9-76.2-115.3-123.9-122.8-24.8-122.8-24.8v-15.6s61.9-16.5,87.7-5.5c25.9,11-13.5-23.9-13.5-23.9l-48.2-6.4h0Z"/>
    <path class="cls-1" d="M429.3,529.4l18-17.4s129.9-17.1,158.9,67.6c0,0,34.6,54.4,69.5,71.9l-20.3,9.4s-79.5-62.5-85.5-96.6c-6-34-140.6-34.9-140.6-34.9h0Z"/>
    <path class="cls-1" d="M400,579.6l12.4-14.4s43.9-1.5,68.6,14.4c0,0,10.1,11.1,75.4,0,0,0,32.6-7.7,66.4,96.3h-16.6s-26.1-69.4-41.9-70.8c-15.7-1.4-38.4-13.8-84.4-10.7-46,3.2-79.9-14.7-79.9-14.8h0Z"/>
  </g>
  <line class="cls-6" x1="1590.4" y1="1036.2" x2="953.5" y2="1036.2"/>
  <line class="cls-6" x1="1587.11" y1="1031.13" x2="1597.49" y2="26.95"/>
</svg>