<?xml version="1.0" encoding="UTF-8"?>
<svg id="Lag_1" data-name="Lag 1" xmlns="http://www.w3.org/2000/svg" viewBox="0 0 553.89 277.8">
  <defs>
    <style>
      .cls-1 {
        fill: #f0ecda;
        opacity: .3;
        stroke: #f0ecda;
        stroke-miterlimit: 10;
      }

      .cls-2 {
        opacity: .5;
      }
    </style>
  </defs>
  <g class="cls-2">
    <path class="cls-1" d="M0,0H9.79s20.05,59.51,15.39,81.53c-4.66,22.02-12.59,24.59-13.99,60.09-1.4,35.5,.47,57.52-11.19,132.02v-126.04s12.82-57.16,12.94-67.94C13.05,68.88,0,20.15,0,20.15V0Z"/>
    <path class="cls-1" d="M14.92,0h14.45s20.51,21.08,20.98,69.81c0,0,3.73,11.71-17.72,77.31,0,0-6.52,42.64-6.76,64.19-.24,21.55-.24,43.58-3.03,54.35-2.8,10.78-5.13,11.71-5.13,11.71h-4.78s7.57-37.95,5.71-94.65c0,0,.94-34.67,7.23-77.31C32.17,62.79,38.23,59.51,14.92,0Z"/>
    <polygon class="cls-1" points="57.11 0 60.62 14.89 72.35 0 57.11 0"/>
    <path class="cls-1" d="M41.52,0s8.67,35.95,15.59,41.07,3.94,16.64,3.94,16.64c0,0,7.22-12.37,25.05-55.9l-4.25-1.81s-10.61,21.87-18.05,35.1C56.38,48.32,50.6,0,50.6,0h-9.08Z"/>
    <path class="cls-1" d="M110.64,204.79c.78,1.59,0-1.78,0-1.78,0,0-55.65-121.96-4.42-203.01h-13.25s-50.35,66.31,17.67,204.79Z"/>
    <path class="cls-1" d="M64.73,67.58s-10.8,31.57-7.62,63.14c0,0-16.15,32.38-20.98,48.57-4.83,16.19-3.88,25.91-4.35,48.57,0,0,9.59-52.78,32.96-93.91,0,0,7.62-39.87,0-66.38Z"/>
    <path class="cls-1" d="M49.94,183.16s18.36-25.3,21.64-44.47c3.27-19.17,5.46,34.04,16.1,44.47,10.64,10.42-15.56-5.76-17.74-9.05,0,0,1.21-4.66-20,9.05Z"/>
    <path class="cls-1" d="M29.17,253.75s3.72-26.87,21.43-58.85c0,0,7.21-5.12,12.3-10.23,0,0,12.49,12.35,30.11,15.35,17.63,3,31.62,35.82,31.62,35.82,0,0-27.44-33.08-56.53-35.5,0,0-21.12,12.47-38.95,53.41Z"/>
    <path class="cls-1" d="M38.52,245s25.93-67.74,79.94,1.08c0,0-50.58-49-79.94-1.08Z"/>
    <path class="cls-1" d="M25.88,268.72s35.96-74.57,111.28,3c0,0-77.33-53.58-111.28-3Z"/>
    <path class="cls-1" d="M35.93,277.38s27.22-59.54,85.75,0h-6.34s-44.37-35.93-69.72,0h-9.69Z"/>
    <path class="cls-1" d="M130.21,0s-63.37,58.59,29.66,277.38c0,0-116.68-183.41-41.4-277.38h11.74Z"/>
    <path class="cls-1" d="M153.12,0s-31.66,41.42-15.83,126.96c15.83,85.54,53.01,150.42,53.01,150.42h-10.72s-59.81-95.04-63.76-189.74c0,0-2.82-58.47,25.96-87.64h11.34Z"/>
    <path class="cls-1" d="M181.15,0s-19.78,44.44-21.28,117.98c0,0,11.77,41.93,14.38,87.23,2.61,45.31,42.8,72.17,42.8,72.17h-13.12s-52.12-62.96-50.91-121.24c0,0-3.81-41.64-11.91-62.44C133.01,72.89,163.89,0,163.89,0h17.26Z"/>
    <path class="cls-1" d="M255.02,0s-29,4.2-37.97,19.46c-8.97,15.26-17.31,32.21-29.69,52.73,0,0-6.19,10.57,9.28,59.69,0,0,5.57,34.2,3.09,61.56-2.47,27.36,37.74,83.94,37.74,83.94h-12.37s-40.84-42.9-42.69-105.7l-1.86-62.8s-8.04-40.03,3.09-80.02c0,0,1.86-1.56,3.71-28.86h13.61s-5.57,14.98-2.47,24.93c0,0,12.99-20.55,29.7-24.93h26.82Z"/>
    <path class="cls-1" d="M280.79,0s-68.06,49.81-58.16,51.67c0,0-4.69,3.05-8.88,22.43-4.19,19.38-5.87,25.01-8.8,28.51-2.93,3.5-7.96-4.5-7.96-4.5,0,0-.42-23.92,7.13-40.39,7.54-16.47,13.41-21.53,30.6-37.53C251.89,4.17,272.85,0,272.85,0h7.94Z"/>
    <path class="cls-1" d="M387.01,0s-124.86,64.28-151.55,184.66c0,0-8.64,30.33,36.12,92.72h-7.85s-77.65-34.68-46.68-179.89c0,0,14.48-64.77,75.73-97.5h40.83s-81.88,31.17-94.73,102.61c-12.85,71.44,20.92-27.86,32.7-35.03,11.78-7.17,.79-19.07,91.87-67.58h23.56Z"/>
    <path class="cls-1" d="M553.89,11.47s-134.68-26.04-199.07,62.35c0,0-54.76,58.4-56.44,90.76,0,0-16.93,31.56-22.65,40.64-5.72,9.08,3.91,61.93,22.65,72.17h-14.24s-48.69-33.89-18.06-111.23c0,0,11.78-28.41,19.63-46.56,0,0,10.21-14.21,25.13-26.04,14.92-11.84,31.41-45.77,31.41-45.77,0,0,15.71-30.84,96.59-47.78h115.05V11.47Z"/>
    <path class="cls-1" d="M553.89,62.47s-158.87-24.76-211.59,117.59c0,0-6.24,21.32-19.42,41.95-13.18,20.63-.69,52.99,5.55,55.38h-11.36s-39.28-29.94,12.06-121.39c0,0,34.69-62.67,52.72-88.41,0,0,9.71-10.05,36.07-15.83,0,0,54.11-35.35,135.97-19.54v30.26Z"/>
    <path class="cls-1" d="M551.13,111.29s-224.43,20.67-184.74,166.09h-13.68s-23.95-42.96,14.37-90.77c0,0,11.15-18.27,19.94-38.89,8.8-20.62,88.85-66.69,164.12-56.37v19.94Z"/>
    <path class="cls-1" d="M551.13,141.61s-29.42,15.88-75.27,0c0,0,54.74-4.48,75.27-14.65v14.65Z"/>
    <path class="cls-1" d="M551.13,175.24s-37.63,10.31-58.84,5.5c-21.21-4.81-50.63,5.87-50.63,5.87,0,0-8.08,7.89,6.57,7.2s39.28-5.5,41.33,4.81c2.05,10.31-33.53,9.63-33.53,9.63l-27.73-6.88s-29.06-12.28-30.43,29.27c-1.37,41.56,7.07,46.74,7.07,46.74h-7.22s-51.17-75.74,19.99-92.72l20.53-14.92s33.1-2.66,43.79-13.07c10.69-10.41,54.05,11.69,69.11,0v18.57Z"/>
    <path class="cls-1" d="M551.13,212.38s-30.11,.69-63.63,28.19c0,0-14.37,4.13-33.53,0-19.16-4.13-20.53,36.81-20.53,36.81h-12.32s-21.9-65.01,54.74-51.94c0,0,6.16-.57,32.84-20.23,26.69-19.66,42.42-4.53,42.42-4.53v11.69Z"/>
    <path class="cls-1" d="M551.13,258.45s-26.14,16.07-69.79,5.7c0,0-16.58,3-15.82,13.23h-11.55s2.74-29.94,59.53-18.93c0,0,9.58,1.38,37.63-15.82v15.82Z"/>
  </g>
</svg>