<?xml version="1.0" encoding="UTF-8"?>
<svg id="Lag_1" data-name="Lag 1" xmlns="http://www.w3.org/2000/svg" viewBox="0 0 1957.79 2414.35">
  <defs>
    <style>
      .cls-1, .cls-2 {
        stroke-width: 5px;
      }

      .cls-1, .cls-2, .cls-3, .cls-4, .cls-5, .cls-6, .cls-7, .cls-8 {
        stroke-miterlimit: 10;
      }

      .cls-1, .cls-2, .cls-4 {
        stroke: #f0ecda;
      }

      .cls-1, .cls-4 {
        fill: #f0ecda;
      }

      .cls-9, .cls-3 {
        fill: #f1ecda;
      }

      .cls-2, .cls-6, .cls-7 {
        fill: none;
      }

      .cls-3 {
        stroke: #f1ecda;
      }

      .cls-5, .cls-6, .cls-7, .cls-8 {
        stroke: #834733;
      }

      .cls-5, .cls-8 {
        fill: #834733;
      }

      .cls-6 {
        stroke-width: 4px;
      }

      .cls-8 {
        isolation: isolate;
        opacity: .3;
      }
    </style>
  </defs>
  <path class="cls-4" d="M1010.38,2261.3c-.01-.58-.02-1.17,0-1.75-.02-4.04-.03-8.08-.05-12.13-.46-1.21-.52-2.59-.02-3.84-.18-43.67-.36-87.34-.54-131.01-.07-16.13-.13-32.26-.2-48.38-.54-4.53-.98-9.06-.9-13.6,.1-5.43,.55-10.83,.77-16.25-.03-6.48-.05-12.97-.08-19.45-.04-2.21-.08-4.42-.1-6.64-.17-3.56-.2-7.12,.03-10.69l-.06-13.54c-.1-2.37-.17-4.73-.21-7.1-.22-.56-.35-1.2-.35-1.93,.27-10.25-.17-20.52,.39-30.7-.06-13.69-.11-27.38-.17-41.07-.46-12.27-.5-24.54-.5-36.81v-.28c0-10.84-.01-21.67,.21-32.5-.08-20.63-.17-41.25-.25-61.88-.12-28.73-.24-57.51-3.24-86.14-.22-1.45-.37-2.92-.48-4.39-.02-.16-.03-.31-.05-.47-.72-6.17-1.58-12.35-2.35-18.53-1.09-4.58-2.14-9.14-1.49-13.77-.9-10.58-1.06-21.15,.66-31.65,1.79-10.98,5.4-22.54,8.66-34.04,.48-2.25,1.07-4.46,1.82-6.6,6.36-23.91,9.43-47.05-10.37-63.71-1.53-1.29-3.15-2.47-4.84-3.57-6.36-2.96-12.7-5.88-19.25-8.3-1.05-.3-2.1-.59-3.17-.84-6.82-1.61-13.64-2.76-20.59-3.64-.68-.09-1.37-.16-2.06-.24-.15-.02-.3-.04-.46-.05-9.25-1-18.76-1.22-28-2.54-3.96-.06-7.92-.24-11.7-.95-179.84-14.26-361.07-12.86-541.83-11.42-67.3,.53-134.59,1.07-201.89,1.6-4.4,.03-8.72,.26-12.98,.65-5.45,1.65-11.14,2.59-16.71,3.58-2.56,.45-5.38,.61-8.25,.76-7.48,1.93-14.75,4.38-21.83,7.29-3.53,2.1-7.58,3.6-11.1,5.32-4.09,2-8.56,4.97-13.09,6.7-.69,.4-1.38,.79-2.07,1.2-7.28,4.35-14.13,10.02-20.09,16.36-3.63,4.12-6.87,8.54-9.81,13.2-.19,.3-.36,.61-.54,.91-.12,.98-.62,1.95-1.64,2.8-.03,.02-.05,.05-.08,.08-2.33,4.02-4.42,8.16-6.33,12.38-.33,1.13-.64,2.23-.95,3.26-1.81,5.95-2.93,12.17-4.02,18.28-.17,.94-.35,2.03-.57,3.23,.09,.4,.14,.84,.14,1.31-.16,8.8-2.27,17.45-2.73,26.18,.29,4.66,.47,9.33,.48,14.05,0,.35-.03,.67-.09,.98,1.55,36.12,3.44,72.23,4.86,108.36,.09,1.21,.19,2.41,.34,3.61,.09,.72,.04,1.35-.12,1.9,.28,7.36,.54,14.71,.77,22.07,.35,11.47,.67,22.94,.96,34.41,.39,5.27,.51,10.42,.38,15.69,1.94,84.83,2.19,169.68,.73,254.52,.11,5.76,.47,12.03-.24,17.85,.03,.25,.05,.51,.04,.79-.05,2.3-.29,4.58-.58,6.85-3.43,81.21-15.67,162.1-15.67,242.87,0,24.04,17.6,44.9,42.87,54.58,6.42,1.44,12.65,3.51,19.18,4.41,2.38,.33,4.74,.82,7.12,1.16,1.75,.1,3.51,.17,5.28,.17h117.71c1.96-.17,3.96-.1,5.94,0h95.66c.73-.18,1.49-.18,2.22,0h37.48c3.88-.59,7.89-.35,12.04-.27,3.7,.07,8.09-.29,12.11,.27h39.41c1.98-.07,3.94-.1,5.9,0h19.42c.21-.02,.43-.01,.65,0h10.88c1.03-.02,2.06-.02,3.1,0h5.8c2.28-.06,4.68-.14,7.05,0h53.9c2.86-.12,5.73-.2,8.62-.11,2.51,.08,5.82-.35,8.67,.11h18.6c.25-.04,.52-.05,.79-.04,.44-.13,.92-.21,1.45-.22,2.83-.04,5.65,.1,8.48,.26h4.56c2.86-.17,5.71-.12,8.57,0h47.25c3.22-.33,6.42-.24,9.71-.19,.98,.01,2,.09,3.03,.19h59.68c2.13-.08,4.26-.05,6.4,0h10.5c4.82-.22,9.47-.23,14.17,0h62.17c2.48-.17,4.95-.09,7.44,0h49.13c7.83-.7,16.02-.29,23.77-.19,.49,0,.94,.08,1.36,.19h47.7c5.83,0,11.66-.43,17.48-.16,.34,.02,.66,.06,.96,.13,27.5-.6,42.94-9.28,51.43-22.2,1.17-2.53,2.72-4.91,3.95-7.41,2.06-4.82,3.45-10.04,4.34-15.52,.16-3.73,.22-8.08,1.22-11.97,.92-17.92-1.57-37.32-1.63-53.81-.02-6.02-.05-12.03-.07-18.05v.03h0Z"/>
  <path class="cls-4" d="M898.33,1521.04c0,21.86-4.07,77.92-43.88,43.4-12.16-10.54-16.18-26.55-19.63-41.57-12.79-55.79-25.57-111.58-38.36-167.36-7.12-31.08-14.26-62.2-23.9-92.7-24.17-76.4-63.88-148.1-110.67-215.08-15.07-21.57-31.18-43-52.61-59.44s-49.05-27.55-76.88-25.27c-33.47,2.75-61.53,23.8-85.18,45.69-144.25,133.49-205.31,326.04-221.54,513.36-1.26,14.52-3.19,30.75-15.46,40-32.38,24.4-38.29-25.36-38.29-41.03,0-329.73,162.61-597.02,363.21-597.02s363.21,267.3,363.21,597.02h-.02Z"/>
  <g>
    <path class="cls-8" d="M39.37,1569.17c-.39,2.05-.76,4.09-1.13,6.13-.17,.93-.35,2.03-.57,3.23,.09,.4,.14,.84,.14,1.31-.16,8.78-2.26,17.4-2.72,26.11,.29,4.68,.47,9.38,.48,14.13,0,1.29-.4,2.32-1.05,3.1v.17c.23,6.9,0,13.85,.93,20.71,.55,4.09,1.01,7.95,.93,11.92,.09,.34,.17,.69,.2,1.07,1.03,12.26-.08,24.56,1.25,36.81,.71,6.52,1.16,13.07,1.75,19.6,.21,2.32,.31,4.64,.38,6.96,.05,.96,.08,1.93,.09,2.89,.1,3.25,.22,6.49,.62,9.72,.19,1.52-.24,2.68-1.01,3.47,.04,.7,.09,1.39,.12,2.1,.45,9.41,1.97,18.69,1.51,28.14,0,.16-.03,.31-.05,.46,.08,2.26,.03,4.53,.02,6.82,0,5.67,.56,11.38,.99,17.03,.43,5.59,.55,11.03,.39,16.63-.06,2.28,0,4.72-.44,7.01,.02,.31,.04,.62,.05,.92,4.3-18.25,8.69-36.53,12.19-63.69,5.25-40.81-4.96-120.23-15.07-182.74h0Z"/>
    <path class="cls-8" d="M105.44,1712.85c-.59-101.8-17.12-167.38-29.38-202.19-1.45,1.27-2.8,2.69-4.17,3.89-2.49,2.16-4.97,4.25-7.28,6.61-4.87,4.99-9.08,10.54-12.8,16.43-.2,.31-.37,.63-.56,.94-.13,.97-.62,1.93-1.62,2.77-.03,.02-.05,.05-.08,.07-.47,.81-.92,1.63-1.37,2.45,29.76,139.14,18.92,162.62,7.7,287.76-7.79,86.93-11.53,163.93-13.26,210.64,.19,.44,.3,.95,.36,1.5,.25,.58,.39,1.26,.39,2.02,0,3.47-.26,7-.48,10.54,.31,.63,.48,1.37,.48,2.23-.04,6.57,.64,14.11-.21,21,.03,.24,.04,.48,.03,.74-.1,3.99-.73,7.92-1.24,11.86,.07,2.48,.11,4.96-.02,7.46-.08,1.55-.25,3.08-.45,4.61,1.69,112.39-3.29,201.26-7.3,252.43,.46,.67,.88,1.35,1.27,2.05,2.34,3.68,4.9,7.27,8.09,10.24,.46,.35,.94,.69,1.42,1.05,.99,.73,1.87,1.49,2.65,2.29,.31,.24,.63,.48,.94,.72,.39-2.21,.78-4.56,1.18-7.08,5.67-35.93,5.67-109.36,6.15-181.22,.48-71.86,13.69-214.03,13.69-214.03,43.44-218.72,35.89-257.78,35.89-257.78h-.02Z"/>
    <path class="cls-8" d="M138.03,1486.76c-5.4,.96-11.92,.59-17.71,1.66l5.93,41.28,21.4-44.73c-3.2,.67-6.43,1.22-9.62,1.79h0Z"/>
    <path class="cls-8" d="M177.86,1486.11l-8.6-6.04s-21.5,72.91-36.55,117.02c-12.16,35.65-22.15-62.76-25.53-101.82-3.34,1.87-7.05,3.28-10.31,4.87-1.83,.89-3.73,1.97-5.67,3.06,5.88,35.72,17.83,101.5,27.93,113.81,14.01,17.07,7.99,55.49,7.99,55.49,0,0,14.62-41.26,50.74-186.39Z"/>
    <path class="cls-8" d="M227.56,2162.89c1.58,5.31,0-5.92,0-5.92,0,0-112.72-406.65-8.95-676.9h-26.84s-101.98,221.08,35.78,682.82h0Z"/>
    <path class="cls-8" d="M134.56,1705.39s-21.88,105.27-15.44,210.54c0,0-32.71,107.97-42.5,161.95-9.79,53.98-7.85,86.38-8.82,161.95,0,0,19.42-175.97,66.76-313.11,0,0,15.44-132.95,0-221.34h0Z"/>
    <path class="cls-8" d="M104.61,2090.76s37.2-84.36,43.83-148.26,11.06,113.51,32.61,148.26c21.56,34.75-31.51-19.2-35.93-30.18,0,0,2.44-15.55-40.52,30.18h.01Z"/>
    <path class="cls-8" d="M62.53,2326.13s7.53-89.58,43.41-196.22c0,0,14.61-17.06,24.92-34.12,0,0,25.29,41.19,61,51.19s64.06,119.44,64.06,119.44c0,0-55.59-110.29-114.5-118.37,0,0-42.79,41.59-78.89,178.09h0Z"/>
    <path class="cls-8" d="M81.48,2296.98s52.53-225.87,161.93,3.59c0,0-102.45-163.38-161.93-3.59Z"/>
    <path class="cls-8" d="M55.87,2376.06s72.85-248.63,225.4,10c0,0-156.65-178.66-225.4-10Z"/>
    <path class="cls-8" d="M82.21,2387.65c2.24,.53,4.49,.99,6.78,1.31,3.18,.44,6.34,1.17,9.55,1.44,1.44,.12,2.86,.13,4.27,.2,39.55-72.27,96.43-26.57,121.54-.35,1.85,.08,3.7,.22,5.5,.24,3.68,.05,7.52-.09,11.27,.24-90.66-140.59-142.28-45.36-158.91-3.09h0Z"/>
    <path class="cls-8" d="M323.13,2390.34c.12,.04,.25,.06,.37,.1h.04c-183.01-717.59-56.36-910.37-56.36-910.37h-23.78c-138.48,284.57,43.73,815.06,78.36,910.09,.46,0,.92,.05,1.37,.18Z"/>
    <path class="cls-8" d="M372.45,2390.02c3.53,.07,7.7-.26,11.58,.19-17.19-53.22-75.35-245.32-102.49-486.82-32.06-285.21,32.06-423.33,32.06-423.33h-22.98c-58.29,97.28-52.57,292.22-52.57,292.22,6.98,275.48,100.08,551.8,123.72,617.83,3.46-.37,7.02-.17,10.69-.09h0Z"/>
    <path class="cls-8" d="M409.58,2390.36c1.48-.03,2.96,.03,4.44,.13,2.44-.04,4.89-.02,7.36-.11,3.45-.12,6.86-.3,10.25,.04-22.63-31.04-71.18-110.59-75.23-226.11-5.29-151.06-29.13-290.86-29.13-290.86,3.04-245.22,43.11-393.39,43.11-393.39h-34.96s-62.55,243.04-46.15,312.42,24.13,208.21,24.13,208.21c-2.06,163.89,72.71,338.87,96.18,389.66h0Z"/>
    <path class="cls-8" d="M451.79,2390.42c1.53,.12,3.07,.2,4.62,.25,3.9-.66,7.94-.28,12.04-.35,3.17-.06,6.64-.25,9.98,.1-18.79-45.91-74.56-189.4-70.39-265.36,5.01-91.22-6.27-205.26-6.27-205.26-31.33-163.79-18.8-199.04-18.8-199.04,25.07-68.42,41.95-124.92,60.13-175.82s76.91-64.88,76.91-64.88h-54.33c-33.84,14.62-60.16,83.13-60.16,83.13-6.27-33.17,5.01-83.13,5.01-83.13h-27.57c-3.76,91.02-7.52,96.21-7.52,96.21-22.56,133.33-6.27,266.81-6.27,266.81l3.76,209.4c3.06,170.24,58.29,296.61,78.85,337.93h0Z"/>
    <path class="cls-8" d="M572.21,1480.07s-137.86,166.06-117.81,172.28c0,0-9.5,10.17-17.99,74.77-8.49,64.61-11.89,83.39-17.83,95.07-5.94,11.67-16.13-15.01-16.13-15.01,0,0-.85-79.77,14.43-134.69,15.28-54.92,27.17-71.78,61.98-125.15s77.26-67.28,77.26-67.28h16.09Z"/>
    <path class="cls-8" d="M739.66,1480.07c-184.51,161.73-162.24,201.4-186.1,225.32-23.86,23.92-92.25,354.99-66.23,116.8s191.89-342.12,191.89-342.12h-82.71c-124.07,109.1-153.4,325.08-153.4,325.08-50.79,391.97,42.62,542.39,80.04,585.46,5.38-.18,10.74-.59,16.16-.43,2.3,.07,5.27-.28,7.95,0-83.5-198.05-66.86-294.41-66.86-294.41,54.08-401.41,306.98-615.72,306.98-615.72h-47.72v.02h0Z"/>
    <path class="cls-8" d="M1108.6,1494.07c-.1-.67-.21-1.34-.33-2h0v3.42c.04-.51,.16-.99,.33-1.43h0Z"/>
    <path class="cls-8" d="M977.38,1500.6c-1.03-.3-2.08-.58-3.13-.83-6.82-1.61-13.64-2.76-20.59-3.64-10.03-1.27-20.43-1.39-30.51-2.83-4.6-.07-9.22-.3-13.53-1.33-2.7-.15-5.1-.44-6.61-.61-2.01-.23-4.48-1.35-4.82-3.67-.37-2.55-.56-5.07-.66-7.62h-5.18c-163.83,56.47-195.64,159.3-195.64,159.3,0,0-33.4,113.15-63.62,152.62s-50.9,86.83-50.9,86.83c-15.91,60.52-39.76,155.25-39.76,155.25-49.16,204.36,2.57,317.72,26.16,355.97,.08,0,.15-.01,.22-.01,3.57-.05,7.14,.18,10.7,.38h.68c5.6-.53,11.17-.04,16.76,.15-30.68-53.8-45.4-199.03-34.98-226.25,11.59-30.27,45.88-135.51,45.88-135.51,3.39-107.89,114.31-302.61,114.31-302.61,71.25-161,184.99-208.13,273.53-217.75-6.04-2.81-12.08-5.56-18.31-7.85h0Z"/>
    <path class="cls-8" d="M1103.19,1583.76v-1.39c-.11,1.12-.21,2.24-.3,3.36,0,.79,.02,1.58,.03,2.37,.09-1.45,.18-2.89,.27-4.34Z"/>
    <path class="cls-8" d="M849.97,1652.61c-53.4,19.29-73.07,52.78-73.07,52.78-36.54,85.83-106.8,294.79-106.8,294.79-81.83,239.97-50,352.91-32.72,390.14,3.31-.37,6.6-.28,9.97-.22,2.99,.05,6.28,.67,9.39,.69,1.27-.09,2.53-.21,3.79-.33-12.24-33.19-24.69-114.49-3.08-170.16,26.7-68.79,39.35-139.86,39.35-139.86,64.22-285.4,206.18-369.33,309.16-390.89-1.83-6.44-1.23-13.24-2.19-19.96-1.02-7.17-4.11-14.21-2.98-21.41-.59-11.11-.14-21.99,1.74-33.1,1.05-6.2,2.41-12.46,3.84-18.59,.53-2.28,1.54-4.52,2.56-6.76,.63-4.88,1.54-9.76,3.23-14.29-100.64,10.99-162.19,77.18-162.19,77.18h0Z"/>
    <path class="cls-8" d="M1009.2,1788.98c-112.11,30.92-208.34,131.6-221.83,183.64-17.82,68.74-40.39,129.66-40.39,129.66-62.85,129.1-43,247.57-33.17,287.97,4.09,.04,8.21,.28,12.28,.07,5.89-.3,11.5-.27,17.26,.09-46.19-315.82,138.2-450.47,265.14-504.98-.07-6.33-.08-12.67-.08-19v-.28c0-13.61-.04-27.2,.42-40.8,.41-12.13,.87-24.25,.37-36.38h0Z"/>
    <path class="cls-8" d="M1009.05,1944.82c-23.95,5.04-41.7,7.43-41.7,7.43,14.67,8.37,28.51,14.08,41.41,17.79,.07-8.43-.15-16.86,.28-25.22h.01Z"/>
    <path class="cls-8" d="M1008.67,2050.6c.14-7.47,.94-14.89,.91-22.38-.03-6.57-.24-13.14-.31-19.71-.24-4.91-.21-9.83,.38-14.75-13.17-2.14-23.94-.71-29.82,8.72-21.66,34.71-88.7,43.56-88.7,43.56l-41.58,49.75c-123.17,48.39-65.42,239.8-46,294.49,3.06-.19,6.11-.02,9.21,.09,.65,.02,1.3,.06,1.94,.1,1.09-.13,2.15-.22,3.23-.14-4.67-18.12-10.24-57.56-8.57-141.22,2.77-138.56,61.63-97.6,61.63-97.6l56.17,22.93s72.07,2.29,67.91-32.1c-4.16-34.39-54.05-18.34-83.71-16.05-29.66,2.29-13.3-24.01-13.3-24.01,0,0,59.6-35.61,102.56-19.56,3.01,1.12,6.19,1.99,9.49,2.65,.05-5.09,.13-10.18,.18-15.27-.77-6.48-1.73-13-1.61-19.51h0Z"/>
    <path class="cls-8" d="M1010.78,2242.7c-.02-.07,.07-.27,.4-.6,.02-.15,.02-.33,0-.54-.1-.67,.03-1.46,.02-2.14-.03-1.77-.2-3.54-.32-5.3-.32-4.86-.15-9.76-.2-14.63-.1-9.19-.28-18.37-.37-27.56-34.26,38.49-42.95,39.83-42.95,39.83-130.48-36.62-119.95,110.69-113.27,158.58,.64,.01,1.28,.03,1.92,.06,.78,0,1.56,.02,2.34,.04,7.76-.85,15.93-.5,23.72-.37,2.03-34.98,10.11-118.8,40.93-107.87,38.81,13.76,67.91,0,67.91,0,6.59-8.9,13.1-16.92,19.51-24.21,.13-2.96,.47-5.94,.84-8.93-1.39-1.7-1.85-4.34-.48-6.35h0Z"/>
    <path class="cls-8" d="M925.42,2390.88c2.26-.45,4.55-.59,7.27-.6,5.16,0,10.32-.33,15.48-.22,6.79-22.23,30.26-29.23,30.26-29.23,8.32,3.25,16.32,5.72,24,7.52,1.3-2.9,3.14-5.6,4.46-8.48,1.45-3.16,2.56-6.49,3.55-9.86,.2-1.58,.34-3.17,.41-4.77,.15-3.29,.2-7.07,.89-10.6-61.67-7.45-80.61,33.66-86.34,56.24h.02Z"/>
  </g>
  <rect class="cls-5" x="117.94" y="1838.06" width="179.85" height="18.15" rx=".9" ry=".9"/>
  <path class="cls-5" d="M120.04,2033.55h176.57c.5,0,.91,.41,.91,.91v16.32c0,.5-.41,.91-.91,.91H118.59c-.5,0-.91-.41-.91-.91v-14.87c0-1.31,1.06-2.37,2.37-2.37h0Z"/>
  <path class="cls-7" d="M297.8,1854.04s-165.67,39.04-179.85,181.49c0,0,12.19-124.13,179.85-181.49Z"/>
  <path class="cls-7" d="M117.94,2035.53s14.33-111.28,179.85-181.49c0,0-142.06,64.74-179.85,181.49Z"/>
  <path class="cls-7" d="M117.94,2035.53s40.09-99.49,179.85-181.49c0,0-112,75.46-179.85,181.49Z"/>
  <path class="cls-7" d="M297.8,1855.05s-38.69,165.32-179.85,179.48c0,0,123.01-12.16,179.85-179.48Z"/>
  <path class="cls-7" d="M117.94,2034.53s78.06-98.12,179.85-179.48l-179.85,179.48Z"/>
  <path class="cls-7" d="M117.94,2034.53s67.67-47.75,179.85-179.48c0,0-59.5,95.89-179.85,179.48Z"/>
  <path class="cls-7" d="M117.94,2034.53s114.52-59.87,179.85-179.48c0,0-37.52,108.59-179.85,179.48Z"/>
  <path class="cls-7" d="M117.94,2034.53s121.33-30.21,179.85-179.48"/>
  <rect class="cls-5" x="330.4" y="1837" width="138.37" height="18.15" rx="1.43" ry="1.43"/>
  <rect class="cls-5" x="330.41" y="1854.13" width="6.45" height="198.63"/>
  <rect class="cls-5" x="334.27" y="2034.61" width="134.5" height="18.15" rx="1.47" ry="1.47"/>
  <path class="cls-7" d="M468.62,1935.8s-66.11-38.35-134.5,0c0,0,58.84-30.3,134.5,0Z"/>
  <path class="cls-7" d="M334.27,1934.74s69.11-24.09,134.5,2.12c0,0-56.5-17.36-134.5-2.12Z"/>
  <path class="cls-7" d="M334.27,1935.8s66.11,38.35,134.5,0c0,0-58.84,30.3-134.5,0Z"/>
  <path class="cls-7" d="M334.27,1934.74s71.5-6.45,134.5,2.12l-134.5-2.12Z"/>
  <path class="cls-7" d="M334.27,1934.74s57.87,25.37,134.5,2.12c0,0-59.72,15.15-134.5-2.12Z"/>
  <path class="cls-7" d="M334.27,1934.74s80.79,9.94,134.5,2.12"/>
  <path class="cls-5" d="M788.49,2052.79c22.04-71.87,55.26-145.41,82.19-216.22,.23-.61,.52-.71,1.27-.5,.74,.21,2.93,1,3.62,1.31,.7,.31,.85,.56,.62,1.16-26.86,70.77-58.39,142.95-81.72,214.54-.2,.62-.48,.68-1.28,.69s-3.17,.04-3.98-.01c-.81-.06-.91-.36-.72-.97Z"/>
  <path class="cls-5" d="M872.3,1838.2c27.16,71.52,59.3,141.57,81.73,214.66,.31,1,.7,1,1.81,.95,5.93-.27,12.18-.05,18.17-.42,1.1-.07,1.31-.78,.98-1.78-24.91-74.55-55.81-146.77-83.79-220.25-.38-1.01-.94-1.14-1.94-.8-5.34,1.8-10.81,3.81-16.06,5.85-.96,.38-1.27,.84-.91,1.79h.01Z"/>
  <path class="cls-5" d="M871.39,1834.6c.29-.97,1.03-2.84,1.41-3.96,.19-.55,.75-.83,1.32-.83,3.5,.02,10.89,0,13.34,0s-.2,0,1.29-.03c.54,.06,1.43,.24,1.85,.71,.35,.4,.14,.79,.32,1.21-4.95,2.28-10.08,4.32-15.22,6.08-.55,.19-.71,.16-1.29-.16-.58-.32-1.71-.91-2.33-1.37-.62-.45-.98-.68-.69-1.66h0Z"/>
  <path class="cls-7" d="M828.82,1960.56h91.74s-40.95-6.68-91.74,0Z"/>
  <path class="cls-7" d="M828.82,1960.56s39.5-12.74,91.74,0c0,0-48.64-17.87-91.74,0Z"/>
  <path class="cls-7" d="M828.82,1960.56s37.96-24,91.74,0c0,0-45.9-30.04-91.74,0Z"/>
  <path class="cls-7" d="M920.41,1959.74s-37.44,24.67-91.72,1.64c0,0,46.54,29.21,91.72-1.64h0Z"/>
  <path class="cls-7" d="M828.82,1960.56s38.75,5.84,91.74,0c0,0-47.86,11.17-91.74,0Z"/>
  <path class="cls-7" d="M828.82,1960.56s41.65,16.98,91.74,0"/>
  <rect class="cls-5" x="640.36" y="1830.21" width="21.1" height="223.19" rx=".82" ry=".82"/>
  <ellipse class="cls-5" cx="778.08" cy="2052.85" rx=".62" ry=".56"/>
  <path class="cls-7" d="M660.8,1919.61s112.36,17.15,117.28,132.67c0,0-2.7-99.69-117.28-132.67h0Z"/>
  <path class="cls-7" d="M661.3,1919.32s-7.99,101.62,116.43,133.27c0,0-107.73-25.98-116.43-133.27h0Z"/>
  <path class="cls-7" d="M661.3,1919.32s100.45,31.75,116.43,133.27c0,0-16.48-83.73-116.43-133.27h0Z"/>
  <path class="cls-7" d="M661.3,1919.32s84.79,49.66,116.43,133.27c0,0-28.38-64.14-116.43-133.27h0Z"/>
  <path class="cls-7" d="M661.3,1919.32s86.84,82.96,116.43,133.27l-116.43-133.27h0Z"/>
  <path class="cls-7" d="M661.3,1919.32s29.64,48.64,116.43,133.27c0,0-90.84-71.47-116.43-133.27h0Z"/>
  <path class="cls-7" d="M661.3,1919.32s14.39,65.84,116.43,133.27c0,0-95.48-44.16-116.43-133.27h0Z"/>
  <path class="cls-7" d="M661.3,1919.32s2.91,85.43,116.43,133.27"/>
  <path class="cls-6" d="M723.7,1875.78c1.45,27.71-34.78,41.93-56.66,42.54s-24.13-33-20.13-54.67-8.3-30.98,18.98-30.65c27.28,.32,56.37,15.06,57.81,42.78Z"/>
  <rect class="cls-5" x="501.98" y="1832.1" width="21.1" height="219.4" rx="2.17" ry="2.17"/>
  <path class="cls-6" d="M614.94,1987.3c1.39,39.3-44.66,61.42-82.35,61.94-37.68,.53-23.87-22.24-18.18-45.46,5.69-23.23-21.69-78.64,16.28-78.77,37.98-.13,82.85,22.99,84.24,62.29h0Z"/>
  <path class="cls-7" d="M523.07,1833.05s74.89,32.97,0,89.91c0,0,85.54-51.17,0-89.91Z"/>
  <path class="cls-7" d="M523.07,1833.05s95.54,28.01,0,89.91c0,0,106.51-56.06,0-89.91Z"/>
  <path class="cls-7" d="M523.07,1833.05s115.57,23.72,0,89.91c0,0,65.42-50.19,0-89.91Z"/>
  <path class="cls-7" d="M523.07,1833.29s123.61,20.7,0,89.67"/>
  <g>
    <path class="cls-9" d="M806.2,183.95s-21.42-104.98-174.92-123.51c0,0-3.57,104.98,87.46,166.74,0,0-45.1-74.39-48.19-117.33,0,0,17.85-24.7,135.66,74.11h-.01Z"/>
    <path class="cls-3" d="M649.13,418.59h69.6s-16.06,74.11-69.6,0Z"/>
    <path class="cls-3" d="M469.06,867.71s-95.01-201.12,75.01-92.99c0,0,107.51-34.6,117.51,60.55,10,95.16-109.49,101.64-109.49,101.64l34.49-69.2s17.5-31.94-7.5-27.86c-25,4.07-26.69,60.3-26.69,60.3,0,0-.82,21.63-20.82,36.76-20,15.14-62.51-69.2-62.51-69.2Z"/>
    <path class="cls-4" d="M840.34,195.6l-47.42-69.73s189.68-157.91,514.51,45.12c0,0,203.91,127.15,251.33,207.13,47.42,79.98,163.6,127.15,163.6,127.15,0,0-163.6-4.1-441.01-209.18,0,0-206.28-213.28-441.01-100.49h0Z"/>
    <path class="cls-3" d="M840.34,195.6s-62.38,172.84,117.71,503.4c0,0-107.55-341.15-48.56-527.9,0,0-39.46,7.27-50.62,129.3,0,0-10.96-35.78-18.53-104.8h0Z"/>
    <path class="cls-3" d="M1000.14,171.11s23.15,16.04-55.14,167.67c0,0-38.23,128.68,29.17,300.24,0,0-28.61-209.95-5.4-261.87,23.21-51.92,35.79-43.62,64.97-124.16,0,0,7.83-57.68,10.44-81.89s-44.04,0-44.04,0h0Z"/>
    <path class="cls-3" d="M1117.06,189.58s24.35-35.91-116.92,201.12c0,0-25.77,142.05,0,352.08l30.99,33.95s-23.28-185.11,13.16-279.93c0,0,23.38-169.31,39.04-176.08,15.66-6.77,72.52-113.64,72.52-113.64l-38.78-17.5h-.01Z"/>
    <path class="cls-9" d="M1191.98,227.18s-72.11,73.89-77.33,207.88,13.05,150.1,0,263.95-28.71,141.76-28.71,141.76v28.53s73.08-70.15,83.52-126.5c10.44-56.35-10.44-177.89-2.61-213.06,0,0-23.49-102.9,10.44-172.88,33.93-69.98,49.99-106.1,49.99-106.1l-35.3-23.57h0Z"/>
    <path class="cls-9" d="M1281.35,296.09s-106.68,144.28-12.72,342.94c0,0,7.83,83.53-23.49,115.13s-46.98,49.05-67.86,86.6c-20.88,37.56-46.98,54.55-31.32,97.98l23.49,32.14s1.94-85.78,111.9-173.83c0,0,81.24-67.72,55.14-191.89,0,0,51.26-151.02,55.65-233.53l-53.04-28.34s7.83,58.96-26.1,117.52c0,0-31.32,13.27-33.93-32.94-2.61-46.21,32.08-110.22,32.08-110.22l-29.81-21.57h.01Z"/>
    <path class="cls-3" d="M1457.32,409.87s-46.11,112.41-43.83,183.57c2.29,71.16-21.35,164.06-21.35,164.06,0,0-47.21,28.15-35.78,83.26,0,0-16,47.94-73.13,97.98s-43.42,131.69-43.42,131.69l26.86,31.02s-10.86-86.97,101.12-179.88c0,0,80.8-53.37,89.54-187.78,8.73-134.41,28.61-273.28,48.38-298.73s-48.38-25.18-48.38-25.18h-.01Z"/>
    <path class="cls-3" d="M1562.39,460.81s-55.2,87.16-32.35,350.06c0,0,21.28,128.48-137.91,215.46,0,0-26.64-15.81-38.06,96.86,0,0-18.28,25.7-31.99,29.65l20.57,31.63s41.85-27.67,49.49-47.44c7.64-19.77-8-37.56,50.1-79.07,58.1-41.51,218.07-45.6,160.94-575.77l-40.78-21.37h0Z"/>
    <path class="cls-3" d="M1666.15,495.76s75.57,456.45-50.84,513.77c0,0-16.71,7.15-12.13,60.9,0,0-209.54,68.65-211.04,203.52h37.35s-20.53-92.45,110.86-130c0,0-83.43,62.34-81.15,130h38.85s-12.07-53.67,190.5-203.52,0-574.67,0-574.67h-22.4Z"/>
    <path class="cls-3" d="M1744.87,517.34h33.72l21.81,30.89v101.54s-33.03-120.37-55.53-132.44h0Z"/>
    <path class="cls-3" d="M1800.4,1001.62s-20.57,15.81-27.77,47.44c-7.2,31.63-27.77,83.02-123.75,135.4,0,0-77.7,19.84-102.84,89.48h50.28s42.51-45.01,204.08-161.63v-110.69h0Z"/>
    <path class="cls-3" d="M1635.17,1273.95h68.56s21.94,.46,96.67-39.08v-39.53s-87.53,54.43-165.23,78.61Z"/>
    <path class="cls-3" d="M712.11,253.95l11.49-11s75.96,11.77,74.83,87.27c-1.13,75.51-53.83,91.69,135.78,380.48l-9.93,14.22s-134.92-143.81-145.12-264.11c-10.2-120.29-95.22-164.73-95.22-164.73l10.19-18.33s56.69,15.69,64.62,43.15c7.94,27.46,7.94-24.82,7.94-24.82,0,0-12.78-41.44-54.57-42.14h0Z"/>
    <path class="cls-9" d="M640.62,371.31l8.51-16.98s117.11-28.7,111.87,80.72c-5.23,109.42,17.01,161.48,17.01,161.48,0,0,111.53,138.08,115.96,141.47,4.43,3.4-9.97,17.65-9.97,17.65,0,0-94.21-77.63-133.47-167.04-39.26-89.41-32.46-73.88-66.6-83.34-34.15-9.46-68.17-60.92-68.17-60.92l9.16-16.47s32.11,62.33,83.74,56.06c51.64-6.27,15.7-91.12,15.7-91.12,0,0-34.02-38.48-83.74-21.5h0Z"/>
    <path class="cls-9" d="M599.4,505.27l8.93-16.18s10.84,24.98,75.6,40.63c0,0,48.17,22.27,54.55,88.49s122.49,148.99,122.49,148.99l-21.69,9.53s-133.91-102.9-120.54-166.24c13.37-63.35-69.6-70.63-69.6-70.63l-49.73-34.59h-.01Z"/>
    <path class="cls-9" d="M552.39,560.83l13.84-12.59s102.07-16.5,126.32,84.68c24.24,101.18,116.52,157.46,116.52,157.46l-16.14,11.04s-108.79-91.6-130.74-148.99-139.33-29.8-139.33-29.8v-18.76s70.18-19.86,99.52-6.62c29.35,13.24-15.31-28.69-15.31-28.69l-54.67-7.73h-.01Z"/>
    <path class="cls-9" d="M483.29,664.56l20.41-20.97s147.36-20.54,180.22,81.33c0,0,39.24,65.45,78.79,86.42l-22.97,11.3s-90.18-75.17-96.97-116.14c-6.79-40.97-159.49-41.94-159.49-41.94h0Z"/>
    <path class="cls-9" d="M450.12,724.92l14.04-17.32s49.76-1.78,77.83,17.32c0,0,11.48,13.39,85.49,0,0,0,37-9.25,75.28,115.84h-18.82s-29.66-83.4-47.53-85.1c-17.86-1.7-43.55-16.62-95.69-12.87-52.14,3.74-90.59-17.86-90.59-17.86h-.01Z"/>
  </g>
  <rect class="cls-1" x="1800.4" y="23.81" height="1250.14"/>
  <line class="cls-2" x1="1800.4" y1="1273.95" x2="1077.91" y2="1273.95"/>
</svg>