<?xml version="1.0" encoding="UTF-8"?>
<svg id="Lag_1" data-name="Lag 1" xmlns="http://www.w3.org/2000/svg" viewBox="0 0 294.67 566.45">
  <defs>
    <style>
      .cls-1 {
        fill: #f0ecda;
        opacity: .3;
        stroke: #f0ecda;
        stroke-miterlimit: 10;
      }

      .cls-2 {
        opacity: .5;
      }
    </style>
  </defs>
  <g class="cls-2">
    <path class="cls-1" d="M9.55,558.92v-9.79s59.51-20.05,81.53-15.39c22.02,4.66,24.59,12.59,60.09,13.99,35.5,1.4,57.52-.47,132.02,11.19h-126.04s-57.16-12.82-67.94-12.94c-10.78-.11-59.51,12.94-59.51,12.94H9.55Z"/>
    <path class="cls-1" d="M9.55,544v-14.45s21.08-20.51,69.81-20.98c0,0,11.71-3.73,77.31,17.72,0,0,42.64,6.52,64.19,6.76,21.55,.24,43.58,.24,54.35,3.03,10.78,2.8,11.71,5.13,11.71,5.13v4.78s-37.95-7.57-94.65-5.71c0,0-34.67-.94-77.31-7.23-42.64-6.29-45.92-12.35-105.42,10.96Z"/>
    <polygon class="cls-1" points="9.55 501.81 24.43 498.29 9.55 486.57 9.55 501.81"/>
    <path class="cls-1" d="M9.55,517.39s35.95-8.67,41.07-15.59,16.64-3.94,16.64-3.94c0,0-12.37-7.22-55.9-25.05l-1.81,4.25s21.87,10.61,35.1,18.05c13.23,7.43-35.1,13.21-35.1,13.21v9.08Z"/>
    <path class="cls-1" d="M214.34,448.27c1.59-.78-1.78,0-1.78,0,0,0-121.96,55.65-203.01,4.42v13.25s66.31,50.35,204.79-17.67Z"/>
    <path class="cls-1" d="M77.12,494.19s31.57,10.8,63.14,7.62c0,0,32.38,16.15,48.57,20.98,16.19,4.83,25.91,3.88,48.57,4.35,0,0-52.78-9.59-93.91-32.96,0,0-39.87-7.62-66.38,0Z"/>
    <path class="cls-1" d="M192.7,508.97s-25.3-18.36-44.47-21.64c-19.17-3.27,34.04-5.46,44.47-16.1,10.42-10.64-5.76,15.56-9.05,17.74,0,0-4.66-1.21,9.05,20Z"/>
    <path class="cls-1" d="M263.29,529.75s-26.87-3.72-58.85-21.43c0,0-5.12-7.21-10.23-12.3,0,0,12.35-12.49,15.35-30.11,3-17.63,35.82-31.62,35.82-31.62,0,0-33.08,27.44-35.5,56.53,0,0,12.47,21.12,53.41,38.95Z"/>
    <path class="cls-1" d="M254.55,520.39s-67.74-25.93,1.08-79.94c0,0-49,50.58-1.08,79.94Z"/>
    <path class="cls-1" d="M278.27,533.04s-74.57-35.96,3-111.28c0,0-53.58,77.33-3,111.28Z"/>
    <path class="cls-1" d="M286.93,522.98s-59.54-27.22,0-85.75v6.34s-35.93,44.37,0,69.72v9.69Z"/>
    <path class="cls-1" d="M9.55,428.71s58.59,63.37,277.38-29.66c0,0-183.41,116.68-277.38,41.4v-11.74Z"/>
    <path class="cls-1" d="M9.55,405.8s41.42,31.66,126.96,15.83c85.54-15.83,150.42-53.01,150.42-53.01v10.72s-95.04,59.81-189.74,63.76c0,0-58.47,2.82-87.64-25.96v-11.34Z"/>
    <path class="cls-1" d="M9.55,377.77s44.44,19.78,117.98,21.28c0,0,41.93-11.77,87.23-14.38,45.31-2.61,72.17-42.8,72.17-42.8v13.12s-62.96,52.12-121.24,50.91c0,0-41.64,3.81-62.44,11.91-20.81,8.1-93.7-22.78-93.7-22.78v-17.26Z"/>
    <path class="cls-1" d="M9.55,303.89s4.2,29,19.46,37.97c15.26,8.97,32.21,17.31,52.73,29.69,0,0,10.57,6.19,59.69-9.28,0,0,34.2-5.57,61.56-3.09,27.36,2.47,83.94-37.74,83.94-37.74v12.37s-42.9,40.84-105.7,42.69l-62.8,1.86s-40.03,8.04-80.02-3.09c0,0-1.56-1.86-28.86-3.71v-13.61s14.98,5.57,24.93,2.47c0,0-20.55-12.99-24.93-29.7v-26.82Z"/>
    <path class="cls-1" d="M9.55,278.13s49.81,68.06,51.67,58.16c0,0,3.05,4.69,22.43,8.88,19.38,4.19,25.01,5.87,28.51,8.8,3.5,2.93-4.5,7.96-4.5,7.96,0,0-23.92,.42-40.39-7.13-16.47-7.54-21.53-13.41-37.53-30.6-16.01-17.18-20.18-38.14-20.18-38.14v-7.94Z"/>
    <path class="cls-1" d="M9.55,171.9s64.28,124.86,184.66,151.55c0,0,30.33,8.64,92.72-36.12v7.85s-34.68,77.65-179.89,46.68c0,0-64.77-14.48-97.5-75.73v-40.83s31.17,81.88,102.61,94.73c71.44,12.85-27.86-20.92-35.03-32.7-7.17-11.78-19.07-.79-67.58-91.87v-23.56Z"/>
    <path class="cls-1" d="M21.02,5.02S-5.02,139.71,83.37,204.1c0,0,58.4,54.76,90.76,56.44,0,0,31.56,16.93,40.64,22.65,9.08,5.72,61.93-3.91,72.17-22.65v14.24s-33.89,48.69-111.23,18.06c0,0-28.41-11.78-46.56-19.63,0,0-14.21-10.21-26.04-25.13-11.84-14.92-45.77-31.41-45.77-31.41,0,0-30.84-15.71-47.78-96.59V5.02s11.47,0,11.47,0Z"/>
    <path class="cls-1" d="M72.01,5.02s-24.76,158.87,117.59,211.59c0,0,21.32,6.24,41.95,19.42,20.63,13.18,52.99,.69,55.38-5.55v11.36s-29.94,39.28-121.39-12.06c0,0-62.67-34.69-88.41-52.72,0,0-10.05-9.71-15.83-36.07,0,0-35.35-54.11-19.54-135.97h30.26Z"/>
    <path class="cls-1" d="M120.84,7.78s20.67,224.43,166.09,184.74v13.68s-42.96,23.95-90.77-14.37c0,0-18.27-11.15-38.89-19.94-20.62-8.8-66.69-88.85-56.37-164.12h19.94Z"/>
    <path class="cls-1" d="M151.16,7.78s15.88,29.42,0,75.27c0,0-4.48-54.74-14.65-75.27h14.65Z"/>
    <path class="cls-1" d="M184.79,7.78s10.31,37.63,5.5,58.84c-4.81,21.21,5.87,50.63,5.87,50.63,0,0,7.89,8.08,7.2-6.57s-5.5-39.28,4.81-41.33c10.31-2.05,9.63,33.53,9.63,33.53l-6.88,27.73s-12.28,29.06,29.27,30.43c41.56,1.37,46.74-7.07,46.74-7.07v7.22s-75.74,51.17-92.72-19.99l-14.92-20.53s-2.66-33.1-13.07-43.79c-10.41-10.69,11.69-54.05,0-69.11h18.57Z"/>
    <path class="cls-1" d="M221.92,7.78s.69,30.11,28.19,63.63c0,0,4.13,14.37,0,33.53-4.13,19.16,36.81,20.53,36.81,20.53v12.32s-65.01,21.9-51.94-54.74c0,0-.57-6.16-20.23-32.84-19.66-26.69-4.53-42.42-4.53-42.42h11.69Z"/>
    <path class="cls-1" d="M268,7.78s16.07,26.14,5.7,69.79c0,0,3,16.58,13.23,15.82v11.55s-29.94-2.74-18.93-59.53c0,0,1.38-9.58-15.82-37.63h15.82Z"/>
  </g>
</svg>