<?xml version="1.0" encoding="utf-8"?>
<!-- Generator: Adobe Illustrator 27.0.0, SVG Export Plug-In . SVG Version: 6.00 Build 0)  -->
<svg version="1.1" id="Lag_1" xmlns="http://www.w3.org/2000/svg" xmlns:xlink="http://www.w3.org/1999/xlink" x="0px" y="0px"
	 viewBox="0 0 483.9 400.1" style="enable-background:new 0 0 483.9 400.1;" xml:space="preserve">
<style type="text/css">
	.st0{fill:#F1ECDA;}
	.st1{fill:#F1ECDA;stroke:#F1ECDA;stroke-miterlimit:10;}
	.st2{fill:#F0ECDA;stroke:#F0ECDA;stroke-miterlimit:10;}
	.st3{fill:none;stroke:#F0ECDA;stroke-miterlimit:10;}
	.st4{fill:none;stroke:#F0ECDA;stroke-width:0.75;stroke-miterlimit:10;}
	.st5{fill:none;stroke:#F0ECDA;stroke-width:0.5;stroke-miterlimit:10;}
	.st6{fill:none;stroke:#F0ECDA;stroke-width:4;stroke-miterlimit:10;}
	.st7{stroke:#000000;stroke-miterlimit:10;}
	.st8{fill:none;stroke:#000000;stroke-miterlimit:10;}
</style>
<g>
	<g>
		<path class="st0" d="M144.4,217c0,0,3-16.8,24.2-19.7c0,0,0.5,16.8-12.1,26.6c0,0,6.2-11.9,6.7-18.8
			C163.2,205.1,160.7,201.2,144.4,217z"/>
		<path class="st1" d="M166.1,254.5h-9.6C156.5,254.5,158.7,266.3,166.1,254.5z"/>
		<path class="st1" d="M191,326.3c0,0,13.1-32.1-10.4-14.9c0,0-14.9-5.5-16.2,9.7c-1.4,15.2,15.1,16.2,15.1,16.2l-4.8-11.1
			c0,0-2.4-5.1,1-4.5c3.5,0.7,3.7,9.6,3.7,9.6s0.1,3.5,2.9,5.9C185.1,339.7,191,326.3,191,326.3z"/>
		<path class="st2" d="M139.7,218.8l6.6-11.1c0,0-26.2-25.2-71.1,7.2c0,0-28.2,20.3-34.7,33.1c-6.6,12.8-22.6,20.3-22.6,20.3
			s22.6-0.7,61-33.4C78.7,234.9,107.2,200.8,139.7,218.8z"/>
		<path class="st1" d="M139.7,218.8c0,0,8.6,27.6-16.3,80.5c0,0,14.9-54.5,6.7-84.4c0,0,5.5,1.2,7,20.7
			C137.1,235.6,138.6,229.9,139.7,218.8z"/>
		<path class="st1" d="M117.6,214.9c0,0-3.2,2.6,7.6,26.8c0,0,5.3,20.6-4,48c0,0,4-33.6,0.7-41.9c-3.2-8.3-4.9-7-9-19.8
			c0,0-1.1-9.2-1.4-13.1S117.6,214.9,117.6,214.9z"/>
		<path class="st1" d="M101.4,217.9c0,0-3.4-5.7,16.2,32.1c0,0,3.6,22.7,0,56.3l-4.3,5.4c0,0,3.2-29.6-1.8-44.7
			c0,0-3.2-27.1-5.4-28.1c-2.2-1.1-10-18.2-10-18.2L101.4,217.9z"/>
		<path class="st0" d="M91.1,223.9c0,0,10,11.8,10.7,33.2c0.7,21.4-1.8,24,0,42.2c1.8,18.2,4,22.7,4,22.7v4.6
			c0,0-10.1-11.2-11.5-20.2s1.4-28.4,0.4-34.1c0,0,3.2-16.4-1.4-27.6c-4.7-11.2-6.9-17-6.9-17L91.1,223.9z"/>
		<path class="st0" d="M78.7,234.9c0,0,14.7,23.1,1.8,54.8c0,0-1.1,13.3,3.2,18.4s6.5,7.8,9.4,13.8c2.9,6,6.5,8.7,4.3,15.7l-3.2,5.1
			c0,0-0.3-13.7-15.5-27.8c0,0-11.2-10.8-7.6-30.7c0,0-7.1-24.1-7.7-37.3l7.3-4.5c0,0-1.1,9.4,3.6,18.8c0,0,4.3,2.1,4.7-5.3
			s-4.4-17.6-4.4-17.6L78.7,234.9z"/>
		<path class="st1" d="M54.4,253.1c0,0,6.4,18,6.1,29.3c-0.3,11.4,3,26.2,3,26.2s6.5,4.5,4.9,13.3c0,0,2.2,7.7,10.1,15.7s6,21,6,21
			l-3.7,5c0,0,1.5-13.9-14-28.7c0,0-11.2-8.5-12.4-30c-1.2-21.5-4-43.7-6.7-47.7C45,253,54.4,253.1,54.4,253.1z"/>
		<path class="st1" d="M39.9,261.2c0,0,7.6,13.9,4.5,55.9c0,0-2.9,20.5,19.1,34.4c0,0,3.7-2.5,5.3,15.5c0,0,2.5,4.1,4.4,4.7
			l-2.8,5.1c0,0-5.8-4.4-6.8-7.6c-1.1-3.2,1.1-6-6.9-12.6c-8-6.6-30.1-7.3-22.2-92L39.9,261.2z"/>
		<path class="st1" d="M25.5,266.8c0,0-10.4,72.9,7,82.1c0,0,2.3,1.1,1.7,9.7c0,0,29,11,29.2,32.5h-5.2c0,0,2.8-14.8-15.3-20.8
			c0,0,11.5,10,11.2,20.8h-5.4c0,0,1.7-8.6-26.3-32.5s0-91.8,0-91.8H25.5z"/>
		<path class="st1" d="M14.7,270.3H10l-3,4.9v16.2C7,291.4,11.5,272.2,14.7,270.3z"/>
		<path class="st1" d="M7,347.7c0,0,2.8,2.5,3.8,7.6s3.8,13.3,17.1,21.6c0,0,10.7,3.2,14.2,14.3h-6.9c0,0-5.9-7.2-28.2-25.8V347.7z"
			/>
		<path class="st1" d="M29.8,391.2h-9.5c0,0-3,0.1-13.4-6.2v-6.3C7,378.6,19.1,387.3,29.8,391.2z"/>
		<path class="st1" d="M157.4,228.2l-1.6-1.8c0,0-10.5,1.9-10.3,13.9c0.2,12.1,7.4,14.7-18.8,60.8l1.4,2.3c0,0,18.6-23,20.1-42.2
			c1.4-19.2,13.2-26.3,13.2-26.3l-1.4-2.9c0,0-7.8,2.5-8.9,6.9c-1.1,4.4-1.1-4-1.1-4S151.6,228.3,157.4,228.2z"/>
		<path class="st0" d="M167.3,246.9l-1.2-2.7c0,0-16.2-4.6-15.5,12.9c0.7,17.5-2.4,25.8-2.4,25.8s-15.4,22.1-16,22.6
			c-0.6,0.5,1.4,2.8,1.4,2.8s13-12.4,18.4-26.7s4.5-11.8,9.2-13.3c4.7-1.5,9.4-9.7,9.4-9.7l-1.3-2.6c0,0-4.4,10-11.6,9
			s-2.2-14.6-2.2-14.6S160.4,244.2,167.3,246.9z"/>
		<path class="st0" d="M173,268.3l-1.2-2.6c0,0-1.5,4-10.4,6.5c0,0-6.7,3.6-7.5,14.1c-0.9,10.6-16.9,23.8-16.9,23.8l3,1.5
			c0,0,18.5-16.4,16.7-26.6c-1.8-10.1,9.6-11.3,9.6-11.3L173,268.3z"/>
		<path class="st0" d="M179.5,277.2l-1.9-2c0,0-14.1-2.6-17.5,13.5S144,313.9,144,313.9l2.2,1.8c0,0,15-14.6,18.1-23.8
			c3-9.2,19.3-4.8,19.3-4.8v-3c0,0-9.7-3.2-13.8-1.1c-4.1,2.1,2.1-4.6,2.1-4.6L179.5,277.2z"/>
		<path class="st0" d="M189,293.8l-2.8-3.4c0,0-20.4-3.3-24.9,13c0,0-5.4,10.5-10.9,13.8l3.2,1.8c0,0,12.5-12,13.4-18.6
			S189,293.8,189,293.8z"/>
		<path class="st0" d="M193.6,303.4l-1.9-2.8c0,0-6.9-0.3-10.8,2.8c0,0-1.6,2.1-11.8,0c0,0-5.1-1.5-10.4,18.5h2.6
			c0,0,4.1-13.3,6.6-13.6c2.5-0.3,6-2.7,13.2-2.1C188.3,306.9,193.6,303.4,193.6,303.4z"/>
	</g>
	
		<rect x="7" y="187.6" transform="matrix(-1 -1.224647e-16 1.224647e-16 -1 13.9517 578.757)" class="st2" width="0" height="203.6"/>
	<line class="st2" x1="7" y1="391.2" x2="106.8" y2="391.2"/>
</g>
<g>
	<path class="st2" d="M108.4,14H5.6c-0.5,0-0.9-0.4-0.9-0.9V3.3c0-0.5,0.4-0.9,0.9-0.9h102.7c0.5,0,0.9,0.4,0.9,0.9v9.7
		C109.3,13.6,108.9,14,108.4,14z"/>
	<path class="st2" d="M108.2,138.2H5.5c-0.5,0-0.9-0.4-0.9-0.9v-8.3c0-1.3,1.1-2.4,2.4-2.4h101.3c0.5,0,0.9,0.4,0.9,0.9v9.7
		C109.1,137.8,108.7,138.2,108.2,138.2z"/>
	<path class="st3" d="M109.3,12.6c0,0-96.3,24.8-104.6,115.4C4.7,128,11.8,49,109.3,12.6z"/>
	<path class="st3" d="M4.7,128c0,0,8.3-70.7,104.6-115.4C109.3,12.6,26.7,53.7,4.7,128z"/>
	<path class="st3" d="M4.7,128c0,0,23.3-63.3,104.6-115.4C109.3,12.6,44.2,60.5,4.7,128z"/>
	<path class="st3" d="M109.3,13.2c0,0-22.5,105.1-104.6,114.1C4.7,127.3,76.2,119.6,109.3,13.2z"/>
	<path class="st3" d="M4.7,127.3c0,0,45.4-62.4,104.6-114.1L4.7,127.3z"/>
	<path class="st3" d="M4.7,127.3c0,0,39.3-30.4,104.6-114.1C109.3,13.2,74.7,74.2,4.7,127.3z"/>
	<path class="st3" d="M4.7,127.3c0,0,66.6-38.1,104.6-114.1C109.3,13.2,87.5,82.3,4.7,127.3z"/>
	<path class="st3" d="M4.7,127.3c0,0,70.5-19.2,104.6-114.1"/>
</g>
<g>
	<path class="st2" d="M233.4,41.3h-77.6c-0.8,0-1.4-0.6-1.4-1.4v-8.7c0-0.8,0.6-1.4,1.4-1.4h77.6c0.8,0,1.4,0.6,1.4,1.4v8.7
		C234.9,40.7,234.2,41.3,233.4,41.3z"/>
	
		<rect x="93.2" y="102" transform="matrix(-1.836970e-16 1 -1 -1.836970e-16 260.1648 -52.476)" class="st2" width="126.3" height="3.8"/>
	<path class="st2" d="M233.4,167h-75.2c-0.8,0-1.5-0.7-1.5-1.5v-8.6c0-0.8,0.7-1.5,1.5-1.5h75.2c0.8,0,1.5,0.7,1.5,1.5v8.6
		C234.9,166.3,234.2,167,233.4,167z"/>
	<path class="st4" d="M234.8,92.6c0,0-38.4-24.4-78.2,0C156.6,92.6,190.8,73.4,234.8,92.6z"/>
	<path class="st4" d="M156.7,92c0,0,40.2-15.3,78.2,1.3C234.9,93.3,202,82.3,156.7,92z"/>
	<path class="st4" d="M156.7,92.6c0,0,38.4,24.4,78.2,0C234.9,92.6,200.7,111.9,156.7,92.6z"/>
	<path class="st4" d="M156.7,92c0,0,41.6-4.1,78.2,1.3L156.7,92z"/>
	<path class="st4" d="M156.7,92c0,0,33.6,16.1,78.2,1.3C234.9,93.3,200.2,102.9,156.7,92z"/>
	<path class="st4" d="M156.7,92c0,0,47,6.3,78.2,1.3"/>
</g>
<g>
	<g>
		<path class="st2" d="M371.6,392.5c12.8-45.7,32.1-92.4,47.8-137.5c0.1-0.4,0.3-0.5,0.7-0.3c0.4,0.1,1.7,0.6,2.1,0.8
			c0.4,0.2,0.5,0.4,0.4,0.7c-15.6,45-33.9,90.9-47.5,136.4c-0.1,0.4-0.3,0.4-0.7,0.4s-1.8,0-2.3,0
			C371.6,393.1,371.5,392.9,371.6,392.5z"/>
	</g>
	<g>
		<path class="st2" d="M420.3,256.1c15.8,45.5,34.5,90,47.5,136.5c0.2,0.6,0.4,0.6,1.1,0.6c3.4-0.2,7.1,0,10.6-0.3
			c0.6,0,0.8-0.5,0.6-1.1c-14.5-47.4-32.4-93.3-48.7-140c-0.2-0.6-0.5-0.7-1.1-0.5c-3.1,1.1-6.3,2.4-9.3,3.7
			C420.3,255.2,420.1,255.5,420.3,256.1z"/>
	</g>
	<g>
		<path class="st2" d="M419.8,253.8c0.2-0.6,0.6-1.8,0.8-2.5c0.1-0.4,0.4-0.5,0.8-0.5c2,0,6.3,0,7.8,0c1.4,0-0.1,0,0.8,0
			c0.3,0,0.8,0.2,1.1,0.5c0.2,0.3,0.1,0.5,0.2,0.8c-2.9,1.4-5.9,2.7-8.8,3.9c-0.3,0.1-0.4,0.1-0.7-0.1c-0.3-0.2-1-0.6-1.4-0.9
			C419.9,254.6,419.6,254.4,419.8,253.8z"/>
	</g>
	<path class="st5" d="M395.1,333.9h53.3C448.4,333.9,424.6,329.6,395.1,333.9z"/>
	<path class="st5" d="M395.1,333.9c0,0,23-8.1,53.3,0C448.4,333.9,420.1,322.5,395.1,333.9z"/>
	<path class="st5" d="M395.1,333.9c0,0,22.1-15.3,53.3,0C448.4,333.9,421.7,314.8,395.1,333.9z"/>
	<path class="st5" d="M448.3,333.3c0,0-21.8,15.7-53.3,1C395,334.4,422,353,448.3,333.3z"/>
	<path class="st5" d="M395.1,333.9c0,0,22.5,3.7,53.3,0C448.4,333.9,420.6,341,395.1,333.9z"/>
	<path class="st5" d="M395.1,333.9c0,0,24.2,10.8,53.3,0"/>
</g>
<g>
	<path class="st2" d="M270.6,392.1V251.8c0-0.5,0.4-0.8,0.8-0.8H282c0.5,0,0.8,0.4,0.8,0.8v140.3c0,0.5-0.4,0.8-0.8,0.8h-10.6
		C270.9,392.9,270.6,392.5,270.6,392.1z"/>
	<ellipse class="st4" cx="350.6" cy="392.5" rx="0.4" ry="0.4"/>
	<path class="st3" d="M282.4,307.8c0,0,65.3,10.9,68.2,84.3C350.6,392.2,349.1,328.8,282.4,307.8z"/>
	<path class="st3" d="M282.7,307.6c0,0-4.6,64.6,67.7,84.7C350.4,392.4,287.8,375.9,282.7,307.6z"/>
	<path class="st3" d="M282.7,307.6c0,0,58.4,20.2,67.7,84.7C350.4,392.4,340.8,339.1,282.7,307.6z"/>
	<path class="st4" d="M282.7,307.6c0,0,49.3,31.6,67.7,84.7C350.4,392.4,333.9,351.6,282.7,307.6z"/>
	<path class="st4" d="M282.7,307.6c0,0,50.5,52.7,67.7,84.7L282.7,307.6z"/>
	<path class="st4" d="M282.7,307.6c0,0,17.2,30.9,67.7,84.7C350.4,392.4,297.6,346.9,282.7,307.6z"/>
	<path class="st4" d="M282.7,307.6c0,0,8.4,41.9,67.7,84.7C350.4,392.4,294.9,364.3,282.7,307.6z"/>
	<path class="st4" d="M282.7,307.6c0,0,1.7,54.3,67.7,84.7"/>
	<g>
		<path class="st6" d="M319,280c0.8,17.6-20.2,26.7-32.9,27c-12.7,0.4-14-21-11.7-34.8c2.3-13.8-4.8-19.7,11-19.5
			C301.3,253,318.2,262.4,319,280z"/>
	</g>
</g>
<g>
	<path class="st2" d="M268.6,221.9V86.7c0-1.2,1-2.2,2.2-2.2h7.9c1.2,0,2.2,1,2.2,2.2v135.1c0,1.2-1,2.2-2.2,2.2h-7.9
		C269.6,224,268.6,223.1,268.6,221.9z"/>
	<path class="st7" d="M280.9,144"/>
	<g>
		<path class="st6" d="M334.3,183.2c0.8,25-26,39-47.9,39.4c-21.9,0.3-13.9-14.1-10.6-28.9c3.3-14.8-12.6-50,9.5-50.1
			C307.4,143.6,333.5,158.2,334.3,183.2z"/>
	</g>
	<path class="st4" d="M280.9,85.2c0,0,43.5,21,0,57.2C280.9,142.3,330.6,109.8,280.9,85.2z"/>
	<path class="st3" d="M280.9,85.2c0,0,55.5,17.8,0,57.2C280.9,142.3,342.8,106.7,280.9,85.2z"/>
	<path class="st8" d="M280.9,85.2"/>
	<path class="st3" d="M280.9,85.2c0,0,67.2,15.1,0,57.2C280.9,142.3,318.9,110.4,280.9,85.2z"/>
	<path class="st3" d="M280.9,85.3c0,0,71.9,13.2,0,57"/>
</g>
</svg>
